<?xml version="1.0" encoding="utf-8"?>
<!-- Generator: Adobe Illustrator 22.1.0, SVG Export Plug-In . SVG Version: 6.00 Build 0)  -->
<svg version="1.1" id="mouse" xmlns="http://www.w3.org/2000/svg" xmlns:xlink="http://www.w3.org/1999/xlink" x="0px" y="0px"
	 viewBox="0 0 560 960" style="enable-background:new 0 0 560 960;" xml:space="preserve">
<style type="text/css">
	.st0{fill:none;stroke:#000000;stroke-miterlimit:10;}
	.st1{fill:#2000E9;}
	.st2{opacity:0.66;}
	.st3{fill:#5FC2FF;}
	.st4{opacity:0.84;}
	.st5{fill:#1F2CFF;}
	.st6{fill:none;stroke:#000000;stroke-width:0.5;stroke-linecap:round;stroke-linejoin:round;}
	.st7{fill:#94E2FF;stroke:#000000;stroke-miterlimit:10;}
	.st8{fill:#4A9BFF;stroke:#000000;stroke-miterlimit:10;}
	.st9{fill:#0A2DFF;}
	.st10{fill:#0099FF;stroke:#000000;stroke-miterlimit:10;}
	.st11{fill:#3399FF;stroke:#000000;stroke-miterlimit:10;}
	.st12{fill:#3C2AFF;stroke:#000000;stroke-miterlimit:10;}
	.st13{fill:#5FA2FF;stroke:#000000;stroke-miterlimit:10;}
	.st14{fill:#0A11FF;stroke:#000000;stroke-miterlimit:10;}
	.st15{fill:#0072FF;}
	.st16{fill:#1F39FF;}
</style>
<g id="body">
	<g id="XMLID_2_">
		<g>
		</g>
		<g>
			<path class="st0" d="M256.5,212.5c3.7-4.8,4.6-6.4,6.5-6.5c1.5-0.1,2.9,0.9,3,1c0.7,0.5,1.1,1.1,2,3c0.3,0.6,0.5,1,0.6,1.4
				c0.7,1.7,0.7,2.2,1.4,3.6c0.8,1.5,1.2,1.7,1.9,2.4c0.3,0.4,0.7,0.8,1.1,1.6c1.6,2.8,1.9,5.2,2,6c0.1,1.1-0.3,1.8,0,3
				c0.4,1.4,1.2,2.2,1.5,2.5c2.6,2.7,2.9,8.5,7,16c1.7,3.2,4,8.1,5,11c0.3,1,0.7,2,1,3c0.9,2.7,1,2.9,1,3c0.8,2.4,1.3,5.2,2,9
				c1.2,6.8,1.3,7.8,2,10c0.5,1.7,1.2,3.9,3,6c0.4,0.4,0.7,0.8,1.1,1.2c0.3,0.3,0.5,0.5,0.9,0.8c2.5,2.1,5,4.4,9,6
				c4.6,1.8,8.1,2,9,2c2.2,0.1,4.5,0.1,7-1s3.5-2.7,6-6c7.3-9.5,7-7,11-13c1.4-2,2.9-4.5,6-6c1.9-0.9,3.5-1,4-1c2.7,0,4.6,1.1,6,2
				c2.1,1.3,4,2.5,4,4c0,1.8-2.5,2.6-8,6c-5.1,3.1-7.6,4.8-9,7c-2.2,3.6-1,6.8-1,11c0,5.4-3,10.3-9,20c-7,11.3-12.4,16.8-19,29
				c-0.9,1.7-2.1,3.9-3,7c-1,3.4-1.5,6.9-1,17c0.3,6.2,0.6,11.9,2,20c0.4,2.5,0.6,3.1,3,14c4.4,20,4.7,21.6,5,24
				c0.7,5.4,0.8,9.9,1,19c0.1,4.2,0.2,9.8,0,17c-0.3,9.4-1,19-1,19c-0.7,9.5-1.1,11,0,14c0.5,1.5,0.9,1.9,9,11c0,0,3.3,3.7,10,12
				c1.8,2.2,2.9,3.7,4,6c1.7,3.8,1.9,7.1,2,9c0.4,7.8,0,12.6,0,18c-0.1,10.5,1.1,16.1,0,23c-0.5,3-0.9,5.2-2,8c-0.9,2.3-1.5,3-2,5
				c-0.2,0.9-0.8,3.8,0,7c1.2,4.8,5,7.5,7,9c3.8,2.8,4.7,1.6,12,5c5.7,2.7,5.7,3.7,10,5c3.4,1.1,7.5,1.8,9,2c3.3,0.5,5.3,0.7,8,2
				c0.6,0.3,2.4,1.2,4,3c0.7,0.7,2.6,2.8,2,4c-0.3,0.6-1.1,0.4-3,1c-2.6,0.9-2.4,1.8-4,2c-1.6,0.2-2-0.8-5-1c-1-0.1-1.8,0-2,0
				c-2,0.2-3.1,0.7-4,1c-1.8,0.5-2.9-0.2-8-2c0,0-3-1-6-2c-6.1-1.9-6.5-1.4-11-3c-2.5-0.9-4.6-1.9-7-3c-2.3-1.1-3.5-1.6-4-2
				c-2.8-2.1-3.5-4.7-6-6c-1-0.5-2-1-2-1c-1.6-0.8-1.7-0.8-2-1c-0.1-0.1-2.1-1.5-2-3c0.1-1.3,1.7-1.1,3-3c0.1-0.2,1.7-2.4,1-5
				c0-0.2-0.3-1-1-2c-1.4-1.9-3.5-2.6-5-3c-4.3-1.2-8.3-1.1-10-1c-6.3,0.2-9.5,0.3-13,1c-7.5,1.4-6.9,2.8-14,4
				c-5.4,0.9-7.1,0.3-11,2c-3.7,1.6-5.9,3.8-7,5c-1.3,1.5-3.4,3.7-4,7c-0.3,1.3-0.1,1.9,0,5c0,0.2,0,2.8,0,8c0,13.2-1.1,14.9,0,20
				c1.3,5.9,4.2,10,5,11c4.2,5.7,9.6,8.1,16,11c2,0.9,7.5,3.2,16,5c9.6,2,17,2,25,2c8.7,0,16.6,0,27-2c2.4-0.5,13.7-2.7,28-9
				c10.7-4.8,7.6-4.9,27-15c0,0,17.3-9,32-13c1.3-0.4,2-0.4,4-1c2.2-0.7,3.3-1.3,5-1c0.9,0.2,2,0.6,2,1c0,0.4-1,0.7-2,1
				c-1.7,0.5-3.3,1.4-5,2c-4.4,1.5-13.4,4.7-17,6c-6.5,2.4-9.7,3.6-14,6c-3.4,1.9-3.9,2.6-9,6c-1.4,0.9-7.9,5.2-15,9
				c-0.7,0.4-9,4.8-18,8c-17.9,6.5-34.4,6.8-44,7c-8.8,0.1-21.8,0.3-38-4c-13.6-3.6-21.4-5.6-28-13c-8.9-9.9-10.9-23.9-11-29
				c-0.1-5.7,0-8,0-8c0.2-5.4,0.6-6.5,0-9c-0.7-2.7-2.1-4.5-4-7c-0.8-1-3-3.8-7-7c-2.8-2.3-7.3-5.8-14-8c-3.7-1.2-6.4-1.5-11-2
				c-6.5-0.7-13.6-1.4-18,2c-0.6,0.5-2.3,1.8-3,4c-0.3,0.9-0.9,2.8,0,4c1.1,1.5,3.4,0.3,5,2c0.7,0.8,1.2,2,1,3c-0.1,1-0.7,1.1-2,3
				c-1.5,2.1-1.1,2.4-2,3c-1.1,0.8-2.5,0.9-4,1c-1,0.1-1.6,0-2,0c-2.5,0-4.2,2.3-6,4c-4,3.8-6.1,2.6-15,8c-0.5,0.3-1.1,0.7-2,1
				c-2.4,0.8-4,0.3-8,0c-3.2-0.3-4.7-0.4-6,0c-1.4,0.4-2.6,1.3-5,3c-2,1.5-3.1,2.2-4,3c-1.6,1.3-2.1,2-3,2c-1.3,0-1.7-1.1-3-1
				c-0.9,0.1-1,0.7-2,1c-1.2,0.4-2.9,0.1-4-1c-1.5-1.5-1.1-3.6-1-4c0.3-1.4,1.3-2.3,2-3c3.5-3.1,5.2-3.3,9-6c1.6-1.2,3.5-2.7,6-4
				c0.6-0.3,1.6-0.8,3-1s2.5-0.1,3,0c0.9,0.1,4.9,0.6,8,0c1.7-0.4,3.5-1.6,7-4c3.4-2.3,5.1-3.5,6-5c1.3-2.1,1.4-4.2,1-9
				c-0.7-9-2-14-2-14c-2.2-8.7-3.2-8.7-6-18c-2.2-7.5-3.4-13.5-4-18c-0.6-4-1-7-1-11c0-3.2,0-9.1,2-15c2.2-6.4,5.8-10.3,13-18
				c6.3-6.7,9.2-8.2,12-14c1.8-3.7,2.4-6.7,3-10c1.7-9.2,0.3-12.8,0-28c-0.2-10.3,0.5-10,0-18c-0.4-6-0.9-8.6-1-16
				c-0.2-7.9,0.3-11.1,1-14c0.9-3.5,1.5-3.8,2-7c0.8-5-0.2-6.8,0-12c0.2-4.5,1-4,2-11c0.9-6.1,0.2-5.6,1-15c0.7-7.4,1.3-9.5,0-13
				c-1-2.8-2.4-4-4-6c-4.1-5.1-5.4-10.8-8-22c-1.8-7.9-1.7-10.4-4-18c-0.2-0.5-1.2-3.8-3-8c-2.1-4.9-3.2-7.3-5-9s-3.2-2-4-4
				c-1-2.5-0.1-4.8,0-5c0.5-1.3,1.7-2.2,4-4c2.6-2,3.9-3,5-3c3.4,0,5.8,4.5,6,5c0.3,0.6,1.2,2.6,1,5c-0.2,2.2-1.1,2.5-1,4
				c0.1,1.6,1.3,2.5,4,5c3.3,3.1,1.9,2.2,5,5c4.6,4.2,6.8,6.3,9,7c0.9,0.3,4.8,1.5,9,0c3.8-1.4,5.7-4.7,6.8-6.6
				c0.1-0.1,0.2-0.3,0.2-0.4c1.1-2,1.7-3.9,2-5c0.5-1.8,0.7-3,1-5c0.3-2.1,0.9-5.7,2-10c0.7-2.7,1.1-4.5,2-7
				c0.3-0.9,0.6-1.5,0.8-2.2c0.1-0.2,0.1-0.5,0.2-0.8c0.5-2.1,0.5-2.9,1-5c0.3-1.3,0.7-2.1,1-3c1.3-4,4.2-8.1,7-13
				c5-8.9,3.6-10.2,7-13c1.9-1.6,3.9-2.4,5-5c1-2.3,0.2-3.3,1-6c0.3-0.8,0.5-1.3,1-2C253.2,216.6,254.3,215.3,256.5,212.5z"/>
			<path class="st0" d="M220.5,294.5c-1.1-1-2.6-2.6-4-5c-1.1-1.8-3.3-5.8-3-11c0.1-1.5,0.3-4.3,2-7c3.7-5.8,11.6-6,12.9-6
				c0,0,0.1,0,0.1,0"/>
			<path class="st0" d="M290.5,263.5c1.3,0.1,4.7,0.5,8,3c0.7,0.5,3.5,2.8,5,7c0.5,1.4,1.6,5.4,0,10c-1.1,3.1-3,5-4,6"/>
			<path class="st0" d="M256.5,212.5c-4.2-3.2-10.6-7.2-19-10c-5.3-1.8-10.1-2.6-14-3"/>
			<path class="st0" d="M252.5,217.5c-4.2-2.7-10.6-6-19-8c-12.1-2.8-22.4-1.3-28,0"/>
			<path class="st0" d="M250.5,221.5c-5.8-0.4-12.2-0.4-19,0c-19.2,1.3-35.2,6.1-47,11"/>
			<path class="st0" d="M250.5,224.5c-6.2,0.2-14.6,1.1-24,4c-8.4,2.6-15.1,6-20,9"/>
			<path class="st0" d="M275.5,225.5c2.9,1.5,5.9,3.1,9,5c9.4,5.8,17,12.1,23,18"/>
			<path class="st0" d="M274,221c2.3-0.1,4.6-0.1,7,0c20,0.9,36.1,9.3,47,17"/>
			<path class="st0" d="M271.5,217.5c0.1,0,0.2-0.1,0.4-0.1c4.2-1.3,9.5-2.5,15.6-2.9c12.1-0.8,21.9,1.8,28,4"/>
			<path class="st0" d="M268.5,211.5c0,0,0.1,0,0.1-0.1c5.9-2.1,13.6-4.3,22.9-4.9c4.8-0.4,9.1-0.3,13,0"/>
		</g>
	</g>
</g>
<g id="brain">
	<g id="XMLID_1_">
		<g>
			<path class="st1" d="M270.8,287c-0.2,0.3-0.4,0.6-0.7,1c0,0-0.1,0-0.1,0.1c-1,0.6-2.2-0.3-3.5,0.5c-0.5,0.3-0.3,0.5-1,1
				c-1.2,0.9-2.6,1-3,1c-1.1,0-1.9-0.3-2.5-0.5c-2.2-0.8-2.7-2.1-4-2c-0.9,0.1-1.6,0.6-2,1l-0.5,0.1c-0.2-0.2-0.4-0.4-0.7-0.6
				c-1.5-1.1-1.2-2-3.1-4c-0.5-0.5-0.8-0.8-1-1c-1.1-0.8-2-0.6-4.2-1c-1.3-0.3-2.2-0.4-3.1-1c-0.7-0.4-1.6-0.9-2.1-2
				c-0.1-0.2-0.7-1.7,0-3c0.3-0.6,0.9-1,2.1-2c0.8-0.6,1-0.7,1-1c0-0.1,0-0.2-0.1-0.3l0.3,0c5,1.9,9.9,1.4,13.1-1.4
				c0.5,0.4,0.9,0.6,1,0.6c1.4,0.6,2.7,0.4,4.6,0.1c0.8-0.1,1.4-0.2,2-0.4c2.7,2.8,6.9,2.7,8.8,2.7c3.2,0,5.8-0.9,7.6-1.8
				c-0.1,0.1-0.1,0.2-0.1,0.3c0,0.3,0.2,0.4,1,1c1.1,1,1.7,1.4,2,2c0.7,1.3,0.1,2.8,0,3c-0.5,1.1-1.3,1.6-2,2c-0.9,0.6-1.7,0.7-3,1
				c-2.1,0.4-2.9,0.2-4,1c-0.3,0.2-0.5,0.5-1,1C271.5,285.6,271.1,286.3,270.8,287z"/>
			<path class="st1" d="M260.9,228l-0.8,15c-0.5-0.1-1.2-0.5-2.1-0.9c-1.2-0.6-2-1.1-3-2c-0.6-0.5-1.4-1.3-2.1-2.6
				c-0.2-0.3-0.3-0.6-0.4-0.9c-0.4-1.1-0.4-2-0.5-3.5c-0.1-1.6-0.1-2.6,0.5-3.5c0.4-0.7,1.1-1.2,1.5-1.5c0.3-0.2,1-0.7,2-1
				c0.9-0.3,2.9-0.9,4,0C260.5,227.4,260.6,227.9,260.9,228z"/>
			<path class="st1" d="M267.4,261.4c1.2,2.3,0.2,5.3-0.2,6.4c-0.3,0.9-0.9,2.6-2.4,3.7c-0.5,0.4-1,0.6-1.5,0.8
				c-0.1-0.1-0.2-0.2-0.3-0.3c-0.6-0.7-1.3-1.7-2-4c-0.4-1.4-0.7-2.7-0.9-4c-0.3-2-0.3-3.9-0.2-5.9c0-1.3,0.1-2.6,0.1-4.1
				c0-0.5,0-1.1,0-1.7c2.5,0.1,3.7-0.6,4.2,0.1c0.2,0.3,0.1,0.6-0.1,2.5c-0.1,1.4-0.1,2.1-0.1,2.5
				C264.4,259.5,266.3,259.4,267.4,261.4z"/>
			<path class="st1" d="M260.1,242.9l0.8-15c0,0,0.1,0,0.1,0c0.4,0,0.6-0.6,1-1c0.4-0.4,0.8-0.5,0.9-0.5c0.1,0,0.4-0.1,0.9-0.2
				c0.2,0,0.7-0.1,1.6,0.1c0.3,0.1,1,0.2,1.7,0.6c1.1,0.6,1.7,1.6,2,2c0.7,1.2,0.9,2.3,1,3c0.3,2.3-0.3,4-0.5,4.5
				c-0.1,0.2-0.2,0.5-0.4,0.8c-0.3,0.5-0.6,1.1-1.1,1.7c-0.8,0.8-1.5,1.2-3,2c-0.8,0.4-0.8,0.4-2,1c-1.5,0.8-1.6,0.9-2,1
				C260.7,243.1,260.4,243,260.1,242.9z"/>
			<path class="st1" d="M257.2,257.3c-0.3-4.4-0.1-4.9,0.2-5.1c0.4-0.4,0.8-0.1,2.3,0.1c0.1,0,0.3,0,0.4,0c0,0.6,0,1.2,0,1.7
				c0,1.4-0.1,2.8-0.1,4.1l-2.7-0.1C257.2,257.8,257.2,257.6,257.2,257.3z"/>
			<path class="st1" d="M259.6,252.3c-1.5-0.1-1.9-0.4-2.3-0.1c-0.2,0.2-0.4,0.6-0.2,5.1c0,0.3,0,0.5,0,0.7c0,0.2,0,0.4-0.1,0.5
				c-0.3,1.3-1.4,1.3-2.4,2.5c-0.8,0.9-1,2-1.3,3.8c-0.3,1.5-0.4,2.6-0.1,3.8c0.4,1.6,1.5,2.7,2.3,3.3c-3.2,2.7-8.1,3.3-13.1,1.4
				l-0.3,0c-0.4-0.5-1.8-0.7-3.1-1.8c-1.5-1.3-1.8-3.3-2.1-5c-0.2-1.1-0.1-2.1,0-4c0.3-4.2,0.9-7.3,1-8c0.4-1.8,0.8-3.1,1-4
				c0.5-1.6,0.7-2.4,1.1-3c1-1.9,2.5-3,5.2-5c2.9-2.1,3.4-1.8,4.2-3c0.4-0.6,1-1.7,2.1-2c0.4-0.1,0.8-0.1,1,0l0.2-0.1
				c0.7,1.3,1.5,2.1,2.1,2.6c1,0.9,1.8,1.4,3,2c0.9,0.5,1.6,0.8,2.1,0.9l0,0.5H260c0.1,3.5,0.1,6.5,0,8.8
				C259.9,252.3,259.8,252.3,259.6,252.3z"/>
			<path class="st1" d="M256.9,270.6c2.5-3,3.1-6.6,3.1-6.6l0.1,0c0.2,1.3,0.5,2.6,0.9,4c0.7,2.3,1.4,3.3,2,4
				c0.1,0.1,0.2,0.2,0.3,0.3c-0.6,0.2-1.2,0.3-2,0.4c-2,0.3-3.2,0.5-4.6-0.1c-0.1,0-0.5-0.2-1-0.6
				C256.1,271.5,256.5,271.1,256.9,270.6z"/>
			<path class="st1" d="M257.1,258.5c0.1-0.2,0.1-0.3,0.1-0.5l2.7,0.1c0,2,0,3.9,0.2,5.9l-0.1,0c0,0-0.6,3.6-3.1,6.6
				c-0.4,0.5-0.8,0.9-1.3,1.3c-0.8-0.6-1.9-1.7-2.3-3.3c-0.3-1.2-0.2-2.3,0.1-3.8c0.3-1.8,0.5-2.8,1.3-3.8
				C255.7,259.9,256.8,259.8,257.1,258.5z"/>
			<path class="st1" d="M268,239c0.5-0.6,0.9-1.2,1.1-1.7l0.4,0.2c0.3-0.1,0.6-0.1,1,0c1.1,0.3,1.6,1.4,2,2c0.8,1.2,1.2,0.9,4,3
				c2.6,2,4.1,3.1,5,5c0.3,0.6,0.5,1.4,1,3c0.3,0.9,0.6,2.2,1,4c0.1,0.7,0.8,3.8,1,8c0.1,1.9,0.2,2.9,0,4c-0.3,1.7-0.5,3.7-2,5
				c-1.1,1-2.5,1.2-2.9,1.7c-1.8,0.9-4.4,1.8-7.6,1.8c-1.9,0-6,0-8.8-2.7c0.5-0.2,1-0.4,1.5-0.8c1.5-1.1,2.1-2.8,2.4-3.7
				c0.4-1.1,1.4-4,0.2-6.4c-1.1-2.1-3-1.9-3.3-3.9c-0.1-0.4,0-1.1,0.1-2.5c0.1-2,0.3-2.2,0.1-2.5c-0.5-0.7-1.7,0-4.2-0.1
				c0-2.3,0.1-5.3,0-8.8h0.1l0-0.5c0.3,0.1,0.6,0.1,0.9,0.1c0.4-0.1,0.5-0.2,2-1c1.2-0.6,1.2-0.6,2-1
				C266.5,240.2,267.3,239.8,268,239z"/>
			<path class="st1" d="M270.1,287.9c0.3-0.3,0.5-0.6,0.7-1C270.6,287.5,270.3,287.8,270.1,287.9z"/>
		</g>
		<g>
			<path class="st0" d="M260,243c0,0.2,0,0.3,0,0.5c0.1,3.5,0.1,6.5,0,8.8c0,0.6,0,1.2,0,1.7c0,1.4-0.1,2.8-0.1,4.1
				c0,2,0,3.9,0.2,5.9c0.2,1.3,0.5,2.6,0.9,4c0.7,2.3,1.4,3.3,2,4c0.1,0.1,0.2,0.2,0.3,0.3c2.7,2.8,6.9,2.7,8.8,2.7
				c3.2,0,5.8-0.9,7.6-1.8c0.1-0.1,0.3-0.1,0.4-0.2"/>
			<path class="st0" d="M260.9,228c0,0,0.1,0,0.1,0c0.4,0,0.6-0.6,1-1c0.4-0.4,0.8-0.5,0.9-0.5c0.1,0,0.4-0.1,0.9-0.2
				c0.2,0,0.7-0.1,1.6,0.1c0.3,0.1,1,0.2,1.7,0.6c1.1,0.6,1.7,1.6,2,2c0.7,1.2,0.9,2.3,1,3c0.3,2.3-0.3,4-0.5,4.5
				c-0.1,0.2-0.2,0.5-0.4,0.8c-0.3,0.5-0.6,1.1-1.1,1.7c-0.8,0.8-1.5,1.2-3,2c-0.8,0.4-0.8,0.4-2,1c-1.5,0.8-1.6,0.9-2,1
				c-0.3,0.1-0.6,0-0.9-0.1c-0.5-0.1-1.2-0.5-2.1-0.9c-1.2-0.6-2-1.1-3-2c-0.6-0.5-1.4-1.3-2.1-2.6c-0.2-0.3-0.3-0.6-0.4-0.9
				c-0.4-1.1-0.4-2-0.5-3.5c-0.1-1.6-0.1-2.6,0.5-3.5c0.4-0.7,1.1-1.2,1.5-1.5c0.3-0.2,1-0.7,2-1c0.9-0.3,2.9-0.9,4,0
				C260.5,227.4,260.6,227.9,260.9,228z"/>
			<polyline class="st0" points="260.9,227.5 260.9,228 260.1,242.9 260.1,243.5 			"/>
			<path class="st0" d="M257.2,258c0-0.2,0-0.4,0-0.7c-0.3-4.4-0.1-4.9,0.2-5.1c0.4-0.4,0.8-0.1,2.3,0.1c0.1,0,0.3,0,0.4,0
				c2.5,0.1,3.7-0.6,4.2,0.1c0.2,0.3,0.1,0.6-0.1,2.5c-0.1,1.4-0.1,2.1-0.1,2.5c0.3,2,2.3,1.9,3.3,3.9c1.2,2.3,0.2,5.3-0.2,6.4
				c-0.3,0.9-0.9,2.6-2.4,3.7c-0.5,0.4-1,0.6-1.5,0.8c-0.6,0.2-1.2,0.3-2,0.4c-2,0.3-3.2,0.5-4.6-0.1c-0.1,0-0.5-0.2-1-0.6
				c-0.8-0.6-1.9-1.7-2.3-3.3c-0.3-1.2-0.2-2.3,0.1-3.8c0.3-1.8,0.5-2.8,1.3-3.8c0.9-1.2,2-1.2,2.4-2.5
				C257.2,258.4,257.2,258.2,257.2,258z"/>
			<path class="st0" d="M252.8,237.5c-0.3-0.1-0.6-0.1-1,0c-1.1,0.3-1.7,1.4-2.1,2c-0.8,1.2-1.2,0.9-4.2,3c-2.8,2-4.2,3.1-5.2,5
				c-0.3,0.6-0.6,1.4-1.1,3c-0.3,0.9-0.7,2.2-1,4c-0.2,0.7-0.8,3.8-1,8c-0.1,1.9-0.2,2.9,0,4c0.3,1.7,0.6,3.7,2.1,5
				c1.2,1.1,2.7,1.3,3.1,1.8c0.1,0.1,0.1,0.2,0.1,0.3c0,0.3-0.3,0.4-1,1c-1.2,1-1.8,1.4-2.1,2c-0.7,1.3-0.1,2.8,0,3
				c0.5,1.1,1.4,1.6,2.1,2c1,0.6,1.8,0.7,3.1,1c2.2,0.4,3.1,0.2,4.2,1c0.3,0.2,0.5,0.5,1,1c1.9,2,1.7,2.9,3.1,4
				c0.3,0.2,0.5,0.4,0.7,0.6c0.1,0.1,0.2,0.3,0.3,0.4c0.4,0.9,0.1,1.8,0,2c-0.4,1.2-0.8,5.6-1,16"/>
			<path class="st0" d="M269.5,237.5c0.3-0.1,0.6-0.1,1,0c1.1,0.3,1.6,1.4,2,2c0.8,1.2,1.2,0.9,4,3c2.6,2,4.1,3.1,5,5
				c0.3,0.6,0.5,1.4,1,3c0.3,0.9,0.6,2.2,1,4c0.1,0.7,0.8,3.8,1,8c0.1,1.9,0.2,2.9,0,4c-0.3,1.7-0.5,3.7-2,5c-1.1,1-2.5,1.2-2.9,1.7
				c-0.1,0.1-0.1,0.2-0.1,0.3c0,0.3,0.2,0.4,1,1c1.1,1,1.7,1.4,2,2c0.7,1.3,0.1,2.8,0,3c-0.5,1.1-1.3,1.6-2,2c-0.9,0.6-1.7,0.7-3,1
				c-2.1,0.4-2.9,0.2-4,1c-0.3,0.2-0.5,0.5-1,1c-1,1.1-1.4,1.8-1.7,2.5c-0.2,0.3-0.4,0.6-0.7,1c-0.2,0.2-0.4,0.4-0.6,0.6
				c-0.5,0.4-0.8,0.5-1,1c-0.4,0.9-0.1,1.8,0,2c0.4,1.2,0.8,5.6,1,16"/>
			<path class="st0" d="M260,264c0,0-0.6,3.6-3.1,6.6c-0.4,0.5-0.8,0.9-1.3,1.3c-3.2,2.7-8.1,3.3-13.1,1.4"/>
			<path class="st0" d="M254,289c0.4-0.4,1.1-0.9,2-1c1.3-0.1,1.8,1.2,4,2c0.6,0.2,1.4,0.5,2.5,0.5c0.4,0,1.8-0.1,3-1
				c0.7-0.5,0.5-0.7,1-1c1.3-0.8,2.5,0.1,3.5-0.5c0,0,0.1,0,0.1-0.1c0.2-0.2,0.5-0.5,0.7-1c0.1-0.3,0.2-0.6,0.2-1"/>
		</g>
	</g>
</g>
<g id="lungs">
	<g id="XMLID_3_" class="st2">
		<g>
			<path class="st3" d="M266.5,330.5c0.4-0.7,1.1-1.8,2-3c1.3-1.7,2-2.6,3-3c1.7-0.7,3.5,0.2,5,1c2.7,1.4,4.3,3.2,6,5
				c3.8,4.2,5.7,6.3,7,8c1.8,2.5,4,5.5,6,10c1.6,3.7,2.2,6.5,3,10c2,9.1,1.3,13.5,1,15c-0.9,4.5-2.3,5.6-3,6c-1.6,0.9-3.3,0.6-6,0
				c-7.9-1.8-11.8-2.7-16-5c-6.1-3.4-6.8-5.3-7-6c-0.2-0.9-0.1-1.3,0-5c0-2,0-4,0-6c0-4,0-8,0-12h-5c0-0.3,0-0.7,0-1v-2v-13v-5h4
				C266.5,326.5,266.5,328.5,266.5,330.5z"/>
			<path class="st3" d="M263.5,361.5c0.3,2.4,0.8,5.5-1,8c-1.1,1.5-2.4,1.9-5,3c-7.2,3-5.5,3.1-13,6c-7.2,2.8-8.8,2.7-10,2
				c-1.6-0.9-2.2-2.6-3-5c-1.4-4.2-1.2-8-1-10c0.2-1.4,0.5-3.4,4-12c2.7-6.7,4.1-10.1,6-13c2.4-3.7,2.6-2.9,6-8c2.2-3.3,2.9-4.8,5-6
				c0.9-0.5,3.8-2.2,7-1c2.6,1,3.7,3.4,4,4v13v2c0,0.3,0,0.7,0,1C262.5,352.5,263,357.8,263.5,361.5z"/>
		</g>
		<g>
			<polyline class="st0" points="262.5,342.5 262.5,329.5 262.5,324.5 			"/>
			<line class="st0" x1="262.5" y1="324.5" x2="266.5" y2="324.5"/>
			<path class="st0" d="M266.5,324.5c0,2,0,4,0,6c0,4,0,8,0,12"/>
			<line class="st0" x1="262.5" y1="345.5" x2="267.5" y2="345.5"/>
			<path class="st0" d="M266.5,330.5c0.4-0.7,1.1-1.8,2-3c1.3-1.7,2-2.6,3-3c1.7-0.7,3.5,0.2,5,1c2.7,1.4,4.3,3.2,6,5
				c3.8,4.2,5.7,6.3,7,8c1.8,2.5,4,5.5,6,10c1.6,3.7,2.2,6.5,3,10c2,9.1,1.3,13.5,1,15c-0.9,4.5-2.3,5.6-3,6c-1.6,0.9-3.3,0.6-6,0
				c-7.9-1.8-11.8-2.7-16-5c-6.1-3.4-6.8-5.3-7-6c-0.2-0.9-0.1-1.3,0-5c0-2,0-4,0-6c0-4,0-8,0-12c0-0.3,0-0.7,0-1"/>
			<path class="st0" d="M262.5,329.5c-0.3-0.6-1.4-3-4-4c-3.2-1.2-6.1,0.5-7,1c-2.1,1.3-2.8,2.7-5,6c-3.4,5.1-3.6,4.3-6,8
				c-1.9,2.9-3.3,6.3-6,13c-3.5,8.6-3.8,10.6-4,12c-0.2,2-0.4,5.8,1,10c0.8,2.4,1.4,4.1,3,5c1.2,0.7,2.8,0.8,10-2
				c7.5-2.9,5.8-3,13-6c2.6-1.1,3.9-1.5,5-3c1.8-2.5,1.3-5.6,1-8c-0.5-3.7-1-9-1-16c0-0.3,0-0.7,0-1"/>
		</g>
	</g>
</g>
<g id="heart">
	<g id="XMLID_4_" class="st4">
		<g>
			<path class="st5" d="M259.3,371.6c0.3-0.1,4.3-1.6,5.3-1.1c0.1,0.1,0.1,0.1,1,1c0,0,1,1.1,2,2c1.1,1,1.5,0.7,4,2
				c1.4,0.7,2.1,1.1,3,2c0.4,0.4,0.7,0.7,0.9,1.1c0.6,0.8,0.9,1.5,1.1,1.9c0.6,1.3,0.7,2.3,1,4c0.6,4.2,1,6.3,1,7
				c0.1,3.1,0.2,4.9-1,6c-0.4,0.4-1,0.5-3,1c-0.7,0.2-3.9,0.9-8,0c-1.6-0.3-4.3-0.9-7-3c-1.5-1.1-2.5-2.5-3-3c-0.6-0.8-1.4-1.7-2-3
				c-0.5-1-1.3-3-1-6l-0.1-0.5c0.8-0.1,1.6-1,2.6-2c0.4-0.4,1.3-1.4,2-3c0.8-1.8,1-3.4,1-4c0-0.1,0-0.5,0-1c0-0.8,0.1-0.9,0-1
				c0,0-0.1-0.1-0.2-0.1L259.3,371.6C259.2,371.6,259.2,371.6,259.3,371.6z"/>
			<path class="st5" d="M275.5,376.5c0,0.7,0,1.3,0,2l-0.1,0.1c-0.2-0.4-0.6-0.7-0.9-1.1c-0.9-0.9-1.6-1.3-3-2c-2.5-1.3-2.9-1-4-2
				c0.3-0.3,0.7-0.7,1-1s0.7-0.7,1-1c0.2-0.2,0.9-0.9,2-1c1.7-0.2,2.9,0.9,3,1c1.2,1.2,1,2.8,1,3c0,0.3,0,0.7,0,1
				S275.5,376.2,275.5,376.5z"/>
			<path class="st5" d="M256,373c1.8-0.9,2.5-1.1,2.8-1.1c0.1,0,0.2,0,0.2,0.1c0.1,0.1,0,0.2,0,1c0,0.5,0,0.9,0,1c0,0.6-0.2,2.2-1,4
				c-0.7,1.6-1.6,2.6-2,3c-1,1-1.8,1.9-2.6,2c-0.1,0-0.3,0-0.4,0c-1.3-0.2-1.9-2.8-2-4c0-0.1,0-0.5,0-1c0.1-0.8,0.1-2.1,1-3
				c0.3-0.3,0.3-0.2,2-1C255,373.5,255,373.5,256,373z"/>
		</g>
		<g>
			<path class="st6" d="M258.8,371.9c-0.3,0-1,0.2-2.8,1.1c-1,0.5-1,0.5-2,1c-1.7,0.8-1.7,0.7-2,1c-0.9,0.9-0.9,2.2-1,3
				c0,0.5,0,0.9,0,1c0.1,1.2,0.7,3.8,2,4c0.1,0,0.3,0,0.4,0c0.8-0.1,1.6-1,2.6-2c0.4-0.4,1.3-1.4,2-3c0.8-1.8,1-3.4,1-4
				c0-0.1,0-0.5,0-1c0-0.8,0.1-0.9,0-1C259,372,258.9,371.9,258.8,371.9z"/>
			<path class="st6" d="M259.2,371.6C259.2,371.6,259.2,371.6,259.2,371.6c0.1,0,0.1,0,0.3-0.1"/>
			<path class="st6" d="M253.5,383.5c-0.3,3,0.5,5,1,6c0.6,1.3,1.4,2.2,2,3c0.5,0.5,1.5,1.9,3,3c2.7,2.1,5.4,2.7,7,3
				c4.1,0.9,7.3,0.2,8,0c2-0.5,2.6-0.6,3-1c1.2-1.1,1.1-2.9,1-6c0-0.7-0.4-2.8-1-7c-0.3-1.7-0.4-2.7-1-4c-0.2-0.5-0.5-1.1-1.1-1.9
				c-0.2-0.4-0.6-0.7-0.9-1.1c-0.9-0.9-1.6-1.3-3-2c-2.5-1.3-2.9-1-4-2c-1-0.9-2-2-2-2c-0.9-0.9-0.9-0.9-1-1c-1-0.5-4.9,0.9-5.3,1.1
				"/>
			<path class="st6" d="M275.5,378.5c0-0.7,0-1.3,0-2c0-0.3,0-0.7,0-1s0-0.7,0-1"/>
			<path class="st6" d="M267.5,373.5c0.3-0.3,0.7-0.7,1-1s0.7-0.7,1-1"/>
			<path class="st6" d="M269.5,371.5c0.2-0.2,0.9-0.9,2-1c1.7-0.2,2.9,0.9,3,1c1.2,1.2,1,2.8,1,3"/>
		</g>
	</g>
</g>
<g id="female">
	<path id="ovary" class="st7" d="M203,491c-0.5-0.3-2.1-1.1-3-3c-1-2.2-0.3-4.2,0-5c0.8-2.2,2.3-3.5,3-4c0.9-0.7,3.1-2.4,6-2
		c2.8,0.4,4.5,2.4,5,3c1.2,1.5,1.5,2.9,2,5c0.5,2,0.8,3.5,0,5c-0.6,1.1-1.4,1.7-2,2"/>
	<path id="输卵管" class="st8" d="M199,496c0.1-1.4,0.8-2.6,1-3c0.7-1.1,1.5-1.7,2-2c0.2-0.1,0.9-0.6,2-1
		c0.4-0.1,1.7-0.6,3.5-0.5c1.7,0.1,2.9,0.5,4,1c1.3,0.5,1.9,0.8,2.5,1.5c0.3,0.4,0.3,0.5,1,2c0.7,1.5,0.8,1.4,1,2
		c0.1,0.4,0.5,1.7,0,3c-0.1,0.3-0.5,1-2,2c-1,0.7-2.6,1.7-5,2c-1,0.1-3.5,0.4-6-1C202.7,501.9,198.9,499.5,199,496z"/>
	<g id="XMLID_5_">
		<g>
			<rect x="258.5" y="550.5" class="st9" width="3" height="21"/>
			<path class="st9" d="M258.5,571.5v34H254c0-0.9,0-2.3,0-4c0-2.3,0-4.7,0-7c0.1-4.5,0.3-6.3-1-8c-0.3-0.4-0.6-0.6-1-1
				c-3.1-2.7-4.2-4.8-6.1-7c-2.4-2.7-4.8-4.1-8.1-6c-4.1-2.3-4.5-1.8-8.1-4c-1.9-1.2-4.6-2.9-7.1-6c-0.8-0.9-1.9-3-4.1-7
				c-2.3-4.3-3.4-6.6-4-8c-1.2-2.6-1.8-3.9-2-5c-0.7-2.9-0.2-4.3,0-9c0.1-2.7-0.1-1.3,0-10c0-4.2,0.1-5.8,0-9c-0.1-2.7-0.2-5.1-1-8
				c-0.3-1.3-0.7-2.3-1-3c0.2-0.3,0.6-0.7,1-1c0.8-0.6,1.5-0.9,2-1l2.1-2c0.8,0.6,2,1.5,3,3c1.4,2,1.7,4,2,6c0.4,2.4,0.1,3.7,0,7
				c-0.1,3.6,0.1,2.7,0,9c-0.1,6.2-0.3,7,0,10c0.3,3.2,0.9,5.5,1,6c1.1,4.3,2.7,7.4,3,8c1.5,2.8,3.1,4.6,5.1,7c1.7,2,3.8,4.4,7.1,7
				c0.3,0.2,2.2,1.5,6.1,4c3.9,2.5,5.1,3.3,7.1,4c1.8,0.6,3.4,0.9,4.6,1v-21h4V571.5z"/>
		</g>
		<g>
			<polyline class="st0" points="254.5,571.5 254.5,571.5 254.5,550.5 			"/>
			<polyline class="st0" points="254.5,550.5 258.5,550.5 261.5,550.5 			"/>
			<polyline class="st0" points="261.5,550.5 261.5,571.5 258.5,571.5 258.4,571.5 			"/>
			<path class="st6" d="M210.5,503.5c0.3,0.7,0.7,1.7,1,3c0.8,2.9,0.9,5.3,1,8c0.1,3.2,0,4.8,0,9c-0.1,8.7,0.1,7.3,0,10
				c-0.2,4.7-0.7,6.1,0,9c0.3,1.1,0.9,2.4,2,5c0.6,1.4,1.7,3.7,4,8c2.2,4,3.3,6.1,4.1,7c2.5,3.1,5.2,4.8,7.1,6c3.6,2.2,4,1.7,8.1,4
				c3.3,1.9,5.7,3.3,8.1,6c1.9,2.2,3,4.3,6.1,7c0.4,0.4,0.7,0.6,1,1c1.4,1.7,1.1,3.5,1,8c0,2.3,0,4.7,0,7c0,1.7,0,3.1,0,4"/>
			<path class="st6" d="M215.6,499.5c0.8,0.6,2,1.5,3,3c1.4,2,1.7,4,2,6c0.4,2.4,0.1,3.7,0,7c-0.1,3.6,0.1,2.7,0,9
				c-0.1,6.2-0.3,7,0,10c0.3,3.2,0.9,5.5,1,6c1.1,4.3,2.7,7.4,3,8c1.5,2.8,3.1,4.6,5.1,7c1.7,2,3.8,4.4,7.1,7c0.3,0.2,2.2,1.5,6.1,4
				c3.9,2.5,5.1,3.3,7.1,4c1.8,0.6,3.4,0.9,4.6,1c0.2,0,0.4,0,0.5,0"/>
			<polyline class="st6" points="253.5,605.5 254,605.5 258.5,605.5 258.5,571.5 258.5,550.5 			"/>
			<path class="st6" d="M210.5,503.5c0.2-0.3,0.6-0.7,1-1c0.8-0.6,1.5-0.9,2-1"/>
		</g>
	</g>
</g>
<line id="line" class="st0" x1="259" y1="505" x2="258" y2="613"/>
<g id="kidney">
	<path class="st10" d="M224.5,457.5c2.6-2.6,6.1-3,7-3c0.9-0.1,4.1-0.2,7,2c2.6,2,4.8,5.7,4,9c-0.9,3.7-4.7,3.8-5,7
		c-0.2,2.2,1.5,2.7,4,8c1.6,3.4,2.4,5.1,2,7c-0.7,3.4-4.4,5.2-6,6c-1.6,0.8-5.4,2.6-9,1c-2.7-1.2-3.9-3.7-5-6c-1.4-2.8-1.6-5.2-2-9
		c-0.5-4.7-0.2-8.6,0-11C222.1,462.6,222.4,459.7,224.5,457.5z"/>
	<path class="st11" d="M293.1,483.8c-0.3-1.3-0.7-1.6-1.9-3.9c-1.1-2.1-1.7-3.4-2-4.9c-0.4-2.1-0.1-4.9,1.4-7.1
		c2.1-3,5.3-3.2,6.8-3.3c1.1-0.1,3.8-0.2,6.2,1.7c2.6,2.1,3.3,5.3,3.9,7.8c0.7,3,0.2,3.4,0.5,10c0.3,5.5,0.6,5.9,0.4,9
		c-0.2,3.5-0.4,6.2-2.2,8.1c-1.6,1.7-3.5,2-6,2.3c-2.6,0.3-4.4,0.6-6.1-0.7c-2.7-2.1-2.9-6.4-2.9-6.9c0-0.8,0.4-2.9,1.4-7.1
		C293.1,486,293.4,485.2,293.1,483.8z"/>
</g>
<g id="liver">
	<path class="st12" d="M206.5,435.5c-1.3-4.9-1.8-8.7-2-10c-0.9-6.9-1.4-10.3,0-13c1.8-3.6,5.3-5.2,7-6c2.1-1,5.3-1.9,16-1
		c8.7,0.8,8.7,1.5,16,2c6.2,0.4,9.4,0.6,14,0c6.9-0.9,10.6-2.7,12-1c1.2,1.5-0.2,4.4-1,6c-1.8,3.8-4.6,6.4-10,10
		c-2.7,1.8-7,4.6-14,8c-7,3.4-10.5,5.2-14,6c-6.5,1.5-8.8,0.4-13,3c-4,2.5-5,5.5-7,5C208.8,444.1,208,441.2,206.5,435.5z"/>
</g>
<path id="stomach_1_" class="st13" d="M284,420c0.6,0.6,1.6,1.6,3,2c1.4,0.4,2.6,0.1,3,0c2.2-0.6,2.1-2.1,4-3c3-1.4,6.6,0.7,7,1
	c1.6,1,2.5,2.3,3,3c1.9,2.8,2,5.6,2,7c0,1.6,0.1,4.8-2,8c-2.1,3.2-5.3,4.4-7,5c-3.6,1.3-6.7,1.1-8,1c-3.9-0.3-4.1-1.5-9-2
	c-4.7-0.5-6.2,0.4-7,1c-0.4,0.3-1.6,1.3-2,3c-0.1,0.3-0.5,2.1,0.5,3.5c0.6,0.9,1.8,1.3,4,2c1,0.3,0.6,0.1,4,1c3.8,1,3.2,0.9,3.7,1
	c0.9,0.1,1.7,0.2,1.8,0.5c0.1,0.3-0.5,0.8-1,1c-0.9,0.4-1.7,0.1-2,0c-1.8-0.6-3.7-0.9-5.5-1.5c-3.1-1-3.5-0.6-5.5-1.5
	c-1.4-0.7-2.3-1.1-3-2c-1.6-2-1.2-4.7-1-6c0.1-0.8,0.3-1.9,1-3c0.8-1.2,1.7-1.8,2-2c1.3-0.8,2.6-0.9,5-1c1.6-0.1,1.5,0,3,0
	c2.9-0.1,4.4-0.1,6-1c1.8-1,2.7-2.5,3-3c0.2-0.4,1.6-2.9,1-6c-0.4-2.2-1.6-3.6-2-4c-2.2-2.5-4.7-2.3-5-4c-0.1-0.9,0.5-1.9,1-2
	C282.5,417.9,282.8,418.8,284,420z"/>
<g id="male">
	<path id="testis" class="st14" d="M284,583c1.1-0.9,1.9-1.5,3-2c1.7-0.8,3.3-1.6,5-1c1.4,0.5,2.5,1.6,3,3c0.7,2.1-0.4,4-1,5
		c-1.4,2.3-3.5,3.3-5,4c-2.3,1.1-5,2.3-7,1c-1.3-0.9-2-2.6-2-4c0-1.3,0.6-2.3,1-3C281.7,584.8,282.6,584.1,284,583z"/>
	<g id="XMLID_7_">
		<g>
			<path class="st15" d="M264.5,554.5c1.6-2,3.7-3.2,5-4c2.1-1.2,4.6-2.7,8-3c1-0.1,1.4,0,10,2c4.1,1,6.1,1.5,7,3c0.7,1.2,1,3.2,0,4
				c-0.7,0.7-2.1,0.6-3,0c-1.2-0.8-0.8-2.4-2-3c-0.7-0.3-1.3-0.1-2,0c-2.8,0.6-3.6-0.3-6,0c-3.8,0.4-6.8,3-8,4c-1.1,0.9-2,2-4,3
				c-1.6,0.8-2.6,1-3,1c-2,0.2-3.4-0.7-4-1c-0.8-0.5-1-0.8-1-1c-0.1-0.6,0.4-1.2,1-2C263.8,555.8,263.5,555.7,264.5,554.5z"/>
		</g>
		<g>
			<path class="st0" d="M262.5,557.5c1.3-1.7,1-1.8,2-3c1.6-2,3.7-3.2,5-4c2.1-1.2,4.6-2.7,8-3c1-0.1,1.4,0,10,2c4.1,1,6.1,1.5,7,3
				c0.7,1.2,1,3.2,0,4c-0.7,0.7-2.1,0.6-3,0c-1.2-0.8-0.8-2.4-2-3c-0.7-0.3-1.3-0.1-2,0c-2.8,0.6-3.6-0.3-6,0c-3.8,0.4-6.8,3-8,4
				c-1.1,0.9-2,2-4,3c-1.6,0.8-2.6,1-3,1c-2,0.2-3.4-0.7-4-1c-0.8-0.5-1-0.8-1-1C261.4,558.9,261.9,558.3,262.5,557.5z"/>
		</g>
	</g>
	<g id="XMLID_6_">
		<g>
			<path class="st16" d="M269.5,565.5c0.2,0.5,0.8,1.9,0,3c-0.9,1.3-2.8,1-3,1c-0.4,0-1.3-0.2-2-1c-0.7-0.8-0.8-1.6-1-3
				c-0.6-3.5-1.5-4.6-1-5c0.5-0.4,2,0.6,4,2C268.9,564.2,269.3,565.1,269.5,565.5z"/>
		</g>
		<g>
			<path class="st0" d="M262.5,560.5c0.5-0.4,2,0.6,4,2c2.4,1.7,2.8,2.6,3,3c0.2,0.5,0.8,1.9,0,3c-0.9,1.3-2.8,1-3,1
				c-0.4,0-1.3-0.2-2-1c-0.7-0.8-0.8-1.6-1-3C262.9,562,262,560.9,262.5,560.5z"/>
		</g>
	</g>
	<path class="st0" d="M265.5,561.5c0.9,0.2,2.3,0.5,4,1c2.5,0.7,3.8,1.1,5,2c1,0.7,2.8,2,3,4c0.2,1.9-1.4,2.5-1,4
		c0.3,1.2,1.4,1.1,3,3c1.5,1.8,1.9,3.6,2,4c0.3,1.5,0.2,2.6,0,4c-0.2,1.7-0.6,3.1-1,4"/>
</g>
</svg>
