<?xml version="1.0" encoding="utf-8"?>
<!-- Generator: Adobe Illustrator 26.2.1, SVG Export Plug-In . SVG Version: 6.00 Build 0)  -->
<svg version="1.1" id="图层_1" xmlns="http://www.w3.org/2000/svg" xmlns:xlink="http://www.w3.org/1999/xlink" x="0px" y="0px"
	 viewBox="0 0 350 600" style="enable-background:new 0 0 350 600;" xml:space="preserve">
<style type="text/css">
	.st0{fill:none;stroke:#000000;stroke-width:0.8571;stroke-miterlimit:8.5714;}
	.st1{fill:#9FE5FF;stroke:#000000;stroke-width:0.8571;stroke-miterlimit:8.5714;}
	.st2{fill:#0022C9;}
	.st3{opacity:0.26;fill:#0000C9;stroke:#000000;stroke-width:0.8571;stroke-miterlimit:8.5714;enable-background:new    ;}
	.st4{opacity:0.36;fill:#0000C9;stroke:#000000;stroke-width:0.8571;stroke-miterlimit:8.5714;enable-background:new    ;}
	.st5{fill:#0019DF;stroke:#000000;stroke-width:0.8571;stroke-miterlimit:8.5714;}
	.st6{opacity:0.91;fill:#5F9EFF;stroke:#000000;stroke-width:0.8571;stroke-miterlimit:8.5714;enable-background:new    ;}
	.st7{opacity:0.6;fill:#1F1FFF;stroke:#000000;stroke-width:0.8571;stroke-miterlimit:8.5714;enable-background:new    ;}
	.st8{opacity:0.62;fill:#1F1FFF;stroke:#000000;stroke-width:0.8571;stroke-miterlimit:8.5714;enable-background:new    ;}
	.st9{fill:#29ABE2;stroke:#000000;stroke-width:0.8571;stroke-miterlimit:8.5714;}
	.st10{fill:#0000FF;stroke:#000000;stroke-width:0.8571;stroke-miterlimit:8.5714;}
	.st11{fill:#FFE7BA;}
	.st12{fill:#80B8D6;stroke:#000000;stroke-width:0.5;stroke-miterlimit:10;}
	.st13{fill:#6FA6DA;stroke:#000000;stroke-width:0.25;stroke-miterlimit:10;}
</style>
<path id="body" class="st0" d="M78.6,175.3c1.9-4.5,2.8-6.9,5.1-9.4c3.7-4.2,8.1-6,10.3-6.9c2.7-1.1,4.5-1.4,17.1-2.6
	c11-1,12.6-1.1,15.4-2.6c2.7-1.4,4.6-3.3,8.6-6.9c4.6-4.3,7-7.6,7.7-8.6c2.1-3,3.4-4.8,4.3-7.7c0.3-0.9,0.3-1.3,0.9-8.6
	c0.4-6,0.5-6.7,0-7.7c-1-2.3-2.7-2.4-6-5.1c-3.4-2.8-5.4-5.7-6.9-7.7c-1.7-2.4-3.9-5.6-5.1-10.3c-0.9-3.5-0.9-6.3-0.9-9.4
	c0-3.3,0.1-7.2,1.7-12c1.5-4.5,3.5-7.5,4.3-8.6c2.3-3.3,4.6-5.1,7.7-7.7c3.7-3,6.3-5.1,10.3-6.9c4.9-2.1,9.1-2.3,12.9-2.6
	c8.5-0.5,14.8,1.3,16.3,1.7c3.8,1.1,8.7,2.7,13.7,6.9c2.8,2.4,6.6,5.7,7.7,11.1c0.4,2.1,0.3,6.6-0.9,9.4c-0.1,0.3-0.7,1.6-0.9,3.4
	c-0.1,0.6-0.2,1.5,0,2.6c0.2,0.9,0.4,1.5,2.6,4.3c2.1,2.7,3.2,4.1,4.3,5.1c0.6,0.5,0.9,0.9,1.7,1.7c1.5,1.5,1.7,2.1,1.7,2.6
	c0,0.8-0.6,1.4-0.9,1.7c-0.9,0.9-1.5,0.7-2.6,1.7c-0.4,0.4-0.4,0.5-0.9,0.9c-0.9,0.6-1.2,0.4-1.7,0.9c-0.7,0.6-0.8,1.6-0.9,2.6
	c0,0.1,0,0,0,1.7c0,1.3-0.1,1.4,0,1.7c0.3,1,0.9,1.2,0.9,1.7c-0.2,0.6-1.5,0.9-1.7,0.9c-0.8,0.1-0.9-0.1-1.7,0
	c-0.9,0.1-1.7,0.5-1.7,0.9c0,0.3,0.9,0.4,2.6,0.9c1.3,0.3,1.6,0.3,1.9,0.7c0.3,0.5,0.1,1.4-0.2,1.9c-0.3,0.5-0.6,0.6-0.9,0.9
	c-0.9,0.9-0.2,2.5,0,4.3c0.3,2.9,0.4,4.5,0,5.1c-1,1.9-4.7,1.7-6.9,1.7c-2.2,0-2.7-0.4-3.4,0c-1.5,0.9-1.4,3.2-1.7,7.7
	c-0.5,7.5-1.2,7.2-0.9,10.3c0.3,2.7,0.8,6.2,3.4,8.6c1,0.9,2.1,1.5,7.7,2.6c5.1,0.9,8.1,1.3,11.1,1.7c6.6,0.9,6,1.6,12,2.6
	c10,1.5,12.2-0.3,17.7,2.4c3.7,1.8,6.3,4.4,7.2,5.3c2.4,2.4,3.8,4.6,5.1,6.9c3.1,5.1,4.5,9.4,5.1,11.1c2.5,7.7,2.6,14.1,2.6,19.7
	c0,9.5-1.4,9.5-0.9,16.3c0.6,7.8,2.6,7.9,4.3,17.1c1.7,9.1,0.1,10.2,1.7,23.1c0.8,5.9,1.2,9.3,2.6,13.7c2.6,8.2,5,9.8,7.7,17.1
	c2.1,5.7,2.6,10,3.4,18.9c1.4,13.1-0.2,12.9,0.9,25.7c1.1,14.1,2.8,12.4,6,29.1c0.3,1.6,0.9,4.9,3.4,7.7c1.2,1.3,2.5,2.2,4.3,3.4
	c2.3,1.6,3.2,1.8,6,3.4c2.1,1.2,4.8,2.7,7.7,5.1c1.6,1.3,3.3,2.7,5.1,5.1c1.4,1.8,2.1,3.3,3.4,6c0.5,1,1.2,2.7,2.6,6
	c1.9,4.6,2.1,5.3,1.7,6c-1,1.7-4.8,0.9-5.1,0.9c-0.6-0.1-2.8-0.6-4.3-2.6c-0.9-1.1-0.7-1.6-1.7-5.1c-1.4-4.5-2.1-5-2.6-5.1
	c-0.9-0.3-2,0.3-2.6,0.9c-1,1-0.9,2.6-0.9,4.3c0.1,1.7,0.4,2.3,0.9,4.3c0.7,2.9,0.3,2.8,0.9,6c0.3,2,0.8,3.8,1.7,6
	c0.4,1,1,2.1,1.7,3.4c0.9,1.6,1.2,2.2,1.7,3.4c0.4,1.2,0.4,1.5,0.9,2.6c0.4,1.2,1,2.3,1.7,3.4c0.4,1,3.3,7.3,4.3,11.1
	c0.1,0.4,0.4,1.5,0,2.6c-0.4,1.1-1.4,2.5-2.6,2.6c-0.6,0.1-1.5-0.1-3.4-2.6c-2.1-2.8-2.8-5.3-4.3-9.4c-0.9-2.5-0.4-1-2.7-6.8
	c-2.1-5.4-2.9-7.8-5.1-8.7c-0.3-0.1-1.6-0.7-2.6,0c-0.9,0.6-0.9,1.9-0.9,3.4c0.1,2.1,0.3,3.8,0.9,6.9c0.5,2.7,0.6,2.8,0.9,4.3
	c0.3,2,0.3,2.8,0.4,4.5c0.2,1.5,0.6,4.4,1.3,7.5c0.4,2,2.1,4,1.7,6.9c-0.1,0.9-0.3,2.6-1.7,3.4c-1,0.6-2.5,0.5-3.4,0
	c-1.4-0.8-1.8-2.2-2.6-5.1c-1.8-6.5-1.3-3.4-2.6-8.6c-0.9-3.8-1.4-5.7-1.7-7.7c-1.4-8.6-0.2-13.5-2.6-14.6c-0.5-0.3-1.2-0.3-1.7,0
	c-1.3,0.8-0.8,3.5,0,9.4c0.3,2.8,0.7,5.1,0.9,6.9c0.4,2.4,0.7,4.5,0.9,6c0.2,1.3,0.4,3.8,0,6.9c-0.2,1-0.3,1.8-0.9,2.6
	c-0.8,1.1-2.3,2-3.4,1.7c-1.5-0.3-2.4-2.7-3.4-8.6c-1-6.2-1.3-10.6-1.7-16.3c-0.5-6.9-0.9-12-1.7-12c-0.5,0-0.9,2.3-1.7,6
	c-0.9,4.9-1.5,7.3-1.7,10.3c-0.3,3.5-0.2,5.5-1.7,6.9c-0.2,0.1-1.5,1.3-2.6,0.9c-1.5-0.5-1.6-3.3-1.7-6c-0.3-7.1,0-12.9,0-13.7
	c0.1-2.9-0.2-1.5-0.9-12.9c-0.9-13.5-1.3-20.3-0.9-23.1c0.1-0.7,0.3-2.3,0-4.3c-0.5-2.7-1.6-3.5-2.6-6c-1.3-3.3,0-3.8-0.9-8.6
	c-0.3-1.3-1-3.4-2.6-7.7c-1.5-3.9-2.2-5.7-3.4-7.7c-0.9-1.4-1.5-2.3-1.7-2.6c-2.3-3.2-7.7-13.8-12-30c-3.6-13.5-6.7-24.9-5.1-31.7
	c0.3-1.1,1.5-5.7,0-11.1c-0.3-1.2-0.7-2.1-0.9-2.6c-2.6-6.7-3.7-15.7-4.3-21.4c-1.3-11.6-1.1-13.2-1.4-16c-0.1-1.3-0.3-2.3-0.3-2.8
	c-0.5-3.3-3.6-23.2-4.3-23.1c-0.7,0.1,1,18.2,1.7,25.7c0.9,9.6,1,11,0.9,14.6c-0.3,4.2-1.6,9.1-4.3,18.9c-1.5,5.1-2.1,7.2-2.6,11.1
	c-0.4,4-0.2,7.3,0,10.3c0.2,3.1,0.5,7.1,1.7,12c1.3,5.3,2.1,5.1,3.4,10.3c1.5,6.2,1.7,11.2,1.7,12.9c0.1,6.8-1.3,7.3-0.9,12.9
	c0.3,4.4,1.3,5.3,2.6,11.1c0.9,4.1,1.2,7.6,1.7,14.6c0.7,8.7,0.3,10.3,0.9,20.6c0.5,10.8,0.8,16.3,1.7,23.1
	c0.8,5.6,1.4,7.5,1.7,12.9c0.3,5.1,0.1,6.1,0,14.6c-0.1,13.4,0.7,14.6,0,22.3c-0.4,4.5-1,8-1.7,12c-0.7,3.9-1.3,6.6-4.3,18.9
	c-3.2,12.9-4.7,19.4-5.1,20.6c-0.9,2.5-2.7,7.5-4.3,14.6c-0.2,0.7-0.5,2.2-0.9,4.3c-0.5,3-1.4,8.1-1.7,14.6
	c-0.4,7.1-0.1,12.5,0,13.7c0.5,7.5,1.4,8.7,1.7,16.3c0.2,3,0.1,5.4,0,10.3c-0.1,4.5-0.3,8.1-0.9,18.9c-0.7,11.6-0.7,12.3-0.9,14.6
	c-0.2,1.7-0.3,2.1-1.7,13.7c-1.3,10.4-1.4,11-1.7,12.9c-0.7,4-0.9,4-2.6,12.9c-1.3,6.3-1.9,9.6-2.6,13.7c-0.5,3.2-1.2,7.4-1.7,12.9
	c-0.3,2.8-0.2,2.2-0.9,12c-0.5,7-0.8,10.5-0.9,11.1c-0.5,3.6-1.1,5.7-0.9,9.4c0.2,2.1,0.5,3.5,0.9,5.1c0.6,2.7,1.9,7.9,5.1,13.7
	c1.4,2.5,3.3,5.9,6.9,9.4c1.5,1.5,4.2,3.9,6.9,7.7c1.1,1.5,2.1,3.3,1.7,5.1c-0.3,1-0.8,1.4-0.9,2.6c-0.1,1.2,0.4,1.5,0.9,3.4
	c0.4,1.8,0.9,3.3,0,4.3c-0.8,0.9-2.4,0.9-2.6,0.9c-0.9,0-1.5-0.3-1.7,0c-0.3,0.3,0.2,0.9,0,1.7c-0.2,0.8-0.9,1.5-1.7,1.7
	c-1.2,0.2-2.1-1.2-2.6-0.9c-0.2,0.1-0.1,0.3,0,1.7c0.1,1.5,0.1,1.5,0,1.7c-0.4,0.8-1.6,0.9-2.6,0.9c-1.5-0.2-2.2-1.1-2.6-0.9
	c-0.3,0.3,0.2,0.9,0,1.7c-0.2,0.8-0.9,1.5-1.7,1.7c-2.1,0.5-4.4-3.1-5.1-2.6c-0.4,0.3,0.3,1.3,0,2.6c-0.5,2.1-3.5,3.4-6,3.4
	c-2.7,0-5.7-1.9-6.9-4.3c-0.9-1.9-0.6-3.8-2.6-6c-0.3-0.3-0.5-0.5-0.9-0.9c0,0-3.1-2-4.3-6c-2.1-6.7-0.7-9.8-1.7-17.1
	c-0.2-0.9-1.2-5.2-3.4-13.7c-2.1-8.1-2.2-8.3-2.6-10.3c-0.3-2.1-1.2-7.6-0.9-14.6c0.3-5.2,1-8.1,1.7-12c1.1-6.7,1-12.2,0.9-23.1
	c-0.1-4.2-0.3-12.5-1.7-28.3c-1.5-17.1-2.2-18-3.4-33.4c0,0-1.5-20.1,0.9-29.1c0.7-2.6,1.1-5.1,1.7-7.7c0.7-2.9,1.1-4.1,0.9-6
	c-0.2-1.6-0.6-2.1-1.7-5.1c0,0-1-3-1.7-6c-0.6-2.7-0.8-4.9-0.9-8.6c-0.2-5.1-0.2-7.5,0-12c0.3-5.5,0.2-11.1,0-22.3
	c-0.1-8.6-0.3-14.4-0.9-22.3c-0.9-10.5-1.6-11.7-2.6-24c-0.1-1-0.3-5.6-0.9-14.6c-0.5-9.7-0.9-14.5-0.9-16.3
	c-0.2-11-0.2-16.5,0-17.1c0.1-0.2,0.4-1.3,0-1.7c-0.3-0.3-0.6,0-1.7,0s-1.5-0.3-1.7,0c-0.5,0.3-0.2,1.4,0,2.6c0.3,1.4,0,2.8,0,4.3
	c0,2.6,0,5.1,0,7.7c0,3.7,0,7.5,0,11.1c0,1.7,0,3.4,0,5.1c0,1.6,0,1.6,0,1.7c0,2.9-0.5,5-0.9,6.9c-0.3,2.1-0.3,1.9-0.9,6.9
	c-1.5,12-2.2,12.2-2.6,18c-0.3,5.4,0.3,5.2,0,12c-0.3,4.7-0.6,5.4-0.9,10.3c-0.2,2.8,0,2.9,0,12c0,0,0,0,0,13.7c0,2.6,0,5.1,0,7.7
	c0,2,0,4,0,6c0,5.3,0.1,5.4,0,6.9c-0.1,2.1-0.3,4.2-0.9,6.9c-0.2,0.9-0.8,3.3-1.7,6c-0.3,1-0.7,2-0.9,3.4c-0.2,1.5-0.1,2.6,0,3.4
	c0.4,3.9,1.9,6.1,2.6,9.4c0.6,2.8-0.2,2.5,0,8.6c0.2,4.4,0.6,4.8,0.9,9.4c0.3,3.9,0.2,6.6,0,11.1c-0.2,5-0.3,7.9-0.9,12
	c-0.6,4.4-1,4.5-1.7,9.4c-0.3,2-0.7,5.3-0.9,9.4c-0.2,4.4,0.1,4.7,0,9.4c0,1.2-0.1,2.2-0.9,12.9c-0.5,6.9-0.8,10.3-0.9,11.1
	c-0.6,6-0.9,7-0.9,10.3c0.1,4.3,0.7,7.9,0.9,8.6c0.5,2.9,0.9,3.7,1.7,7.7c0.5,2.9,0.9,4.5,0.9,6c0.1,3.2-0.6,3.5-0.9,7.7
	c-0.2,2.6,0.2,2.2,0,6c-0.2,4.3-0.5,5.8-0.9,6.9c-0.4,1.4-0.7,1.5-0.9,2.6c-0.4,2.4,0.3,3,0,5.1c-0.2,1.2-0.7,2.2-1.7,4.3
	c-0.9,1.9-1.2,2.1-1.7,3.4c-0.3,0.9-0.3,1.2-0.9,3.4c-0.4,2-0.7,2.6-0.9,3.4c-0.9,3.6-0.2,4.7-0.9,10.3c-0.3,2.6-0.6,3.6-0.9,4.3
	c-0.3,0.9-1,2.7-2.6,4.3c-1.5,1.5-2.1,1.1-3.4,2.6c-0.6,0.6-0.8,0.9-2.6,4.3c-2,3.7-2.1,3.9-2.6,4.3c-1.5,1.2-4,1.6-6,0.9
	c-2.7-1-3.3-3.7-5.1-3.4c-0.7,0.1-0.6,0.4-1.7,0.9c-1.5,0.5-3.9,0.6-5.1-0.9c-0.6-0.7-0.3-1.5-0.9-1.7c-0.5-0.2-0.9,0.8-1.7,0.9
	c-0.9,0.2-2.1-0.8-2.6-1.7c-0.9-1.5-0.3-3.2-0.9-3.4c-0.4-0.2-0.9,0.8-1.7,0.9c-1.1,0.1-2.2-1.4-2.6-2.6c-0.1-0.3-0.4-1.4,0-2.6
	c0.3-1,1-1.3,0.9-1.7c-0.2-0.6-1.6-0.2-2.6-0.9c-1.7-1.2-1-5.1-0.9-6c0.7-3.8,2.6-6.4,3.4-7.7c5.7-8,7.8-8.2,11.1-13.7
	c1.1-1.8,2.1-4.4,4.3-9.4c2.7-6.5,3.2-8.8,3.4-10.3c0.5-3.6,0.3-6.3,0-8.6c-1.5-14,0.3-4.1-1.7-19.7c-1.1-8.7-2.1-17-4.3-29.1
	c-1.7-10-2.2-11.1-3.4-18c-3.3-18.6-4.1-33.5-4.3-37.7c-0.6-12.8-1.2-26.7,0.9-42c0.4-3,1.3-9,0.9-17.1c-0.3-4.8-0.9-8.9-2.6-16.3
	c-2.1-9.3-3.3-13.5-6-24c-4.5-17.3-3.3-15-7.7-31.7c-1.5-5.9-2.1-7.7-2.6-11.1c-1.4-8.9-0.6-15.5,0-22.3c1.6-17.7,0-5.7,2.6-33.4
	c2.4-25.3,2.7-23.1,2.6-27.4c-0.2-12.1-2.1-17.6,0.9-27.4c1.5-5.1,2.8-6.2,3.4-11.1c1-7.8-1.5-9.8-0.9-18.9c0.5-6,2.1-11.2,2.6-12.9
	c1.6-5.4,2.7-6.1,3.4-10.3c0.4-2.3,0.4-3.9,0-12c-0.4-8.4-0.7-12.6-0.9-13.7c-1.5-8.6-3.7-9.2-4.3-16.3c-0.4-5.2,0.4-9.1,0.9-12
	c0.3-2-0.1-5.9-0.9-13.7c-0.9-10.2-1.8-18.9-2.6-18.9c-0.5,0-0.9,4.8-0.9,8.6c0.1,3,0.3,5.5,0.9,8.6c0.8,5.1,1.5,6.5,0.9,8.9
	c-0.2,0.6-0.7,2.6-0.9,4.9c-0.1,0.5-0.1,1-0.1,1.6c0,0.5,0,1.5,0,3.1c0,0.3,0.1,3.3,0,5.9c-0.1,1.2-0.2,3.6-0.9,6.4
	c-0.3,1-0.6,2.2-1.7,5.1c-2.9,7.5-4.3,8.7-4.3,12c0,2.1,0.4,2.8,0.9,5.1c1.2,5.7,0.6,10.5,0,15.4c-0.4,3.9-2.3,9.5-6,20.6
	c-5.1,15.3-5.9,17.8-7.7,22.3c-2.4,6.1-3.7,9.2-5.1,12c-2.9,5.5-4.6,7.1-6,12c-0.9,3.4-0.4,3.9-1.7,7.7c-1.4,4-2.5,5.1-3.4,8.6
	c-0.5,2.1-0.7,3.9-0.9,7.7c-0.3,4.4-0.1,6.3,0,15.4c0.1,6.6,0.1,7,0,7.7c-0.4,4.9-1.4,6.1-1.7,11.1c-0.1,1.3-0.1,3.2,0,6.9
	c0,2.6-0.1,5.1,0,7.7c0.1,3.7,0.2,5.3-0.9,6c-0.8,0.5-1.9,0.4-2.6,0c-1.3-0.8-1.5-2.6-1.7-5.1c-0.2-1.5-0.1-2.1,0-5.1
	c0-2.5,0.1-3.7,0-5.1c-0.2-4.9-0.9-6.1-1.7-6.9c-0.3-0.3-1-1-1.7-0.9c-0.9,0.3-1.3,2.1-1.7,5.1c-0.5,4.1-0.3,4.5-0.9,7.7
	c-0.4,2.5-0.7,3-0.9,5.1c0,0.3-0.1,0.9,0,4.3c0.1,3.9,0.1,4.5,0,6c-0.1,0.7-0.2,2.3-0.9,4.3c-0.6,1.7-1.1,2.3-1.7,2.6
	c-0.1,0.1-0.9,0.3-1.7,0c-0.1-0.1-0.4-0.3-0.9-0.9c-0.6-0.9-0.8-1.8-0.9-2.6c-0.1-1-0.1-1.6,0-2.6c0.1-1.5,0-2.8,0-4.3s0-2.8,0-4.3
	c0-1.1,0-2.3,0-3.4c0-0.9,0-1.7,0-2.6c0-0.6,0-1.1,0-1.7c0-0.1,0-2.6,0-2.6c0-3.4,0-3.3,0-3.4c-0.1-2.6-0.2-3.9-0.9-4.3
	c-0.7-0.3-1.9,0.2-2.6,0.9c-0.2,0.3-0.7,0.9-0.9,3.4c-0.1,2,0.1,2,0,3.4c-0.2,2-0.6,2.2-0.9,4.3c-0.2,1.6,0.1,1.5,0,3.4
	c0,0.6-0.1,1.2-0.9,5.1c-0.6,3.3-0.6,2.7-0.9,4.3c-0.4,2.6-0.4,3-0.9,4.3c-0.6,2-1.2,2.8-1.7,3.4c-0.6,0.8-1.5,1.7-2.6,1.7
	c-1.6,0-3-1.9-3.4-3.4c-0.3-1.1-0.3-2.1,0-3.4c0.6-3.9,1.3-6.6,1.7-8.6c0-0.1,0,0,0.9-6c0.6-4,0.9-6,0.9-6c0.8-3,1.5-4.3,0.9-6
	c-0.2-0.3-0.7-1.6-1.7-1.7c-0.7-0.1-1.4,0.5-1.7,0.9c-2.2,2.2-3.3,5.6-3.4,6c-0.3,1.1,0.1-0.4-4.3,8.6c0,0-1.4,2.7-4.3,7.7
	c-0.9,1.6-1.8,3-3.4,3.4c-1.1,0.3-2.7,0.1-3.4-0.9c-0.5-0.7-0.5-1.5,0-3.4c0.9-3.3,2.3-5.6,2.6-6c1.6-2.7,2.8-5.7,4.3-8.6
	c2.9-5.6,3.3-6.4,4.3-8.6c1.3-2.9,2-4.5,2.6-6.9c0.6-2.3,0.7-4.1,0.9-7.7c0.2-3,0-4.3-0.9-5.1c-0.6-0.6-1.7-1.2-2.6-0.9
	c-0.9,0.3-0.9,1.5-1.7,3.4c-0.4,0.9-1.1,1.7-2.6,3.4c-2.2,2.6-3.3,3.9-4.3,4.3c-1.8,0.7-4.6,0.8-6-0.9c-0.9-1.1-0.9-2.5-0.9-2.6
	c0.1-1.2,0.8-1.7,2.6-4.3c0.9-1.2,1.3-1.8,1.7-2.6c1.3-2.2,1.4-4.2,1.7-5.1c1.3-3.5,3.7-5.7,6-7.7c5.8-5.2,14.7-9.2,17.1-10.3
	c0.6-0.3,1.6-0.7,2.6-1.7c1.7-1.7,2-3.8,2.6-6.9c0.5-2.3,1.2-4.5,1.7-6.9c1.8-7.5,3.2-8.2,4.3-13.7c0.5-2.6,0.7-4.9,0.9-9.4
	c0.3-7.9,0-11.8,0-16.3c0-2.1,0.1-10.8,2.6-20.6c0.6-2.5,3.3-9.4,8.6-23.1c2.7-7,3-7.6,3.4-9.4c2.3-8.9-0.2-9.8,1.7-19.7
	c0.4-2.5,1.7-7.4,4.3-17.1c0.7-2.6,0.7-2.7,0.9-3.4c1.3-6.7-0.2-11.2-0.9-16.3c-1-7-0.3-12.6,0-15.4
	C74.4,185.4,76.8,179.7,78.6,175.3z"/>
<path id="_x31_" class="st1" d="M146.3,96.4c2.5-0.2,4.2-1.8,6.9-4.3c1.8-1.6,2.7-2.6,3.4-4.3c0.9-2.4,0.4-4.4,1.7-5.1
	c0.8-0.5,1.8-0.2,2.6,0c0,0,5.4,1.3,11.1-0.9c1.7-0.6,4.5-1.6,6-4.3c1.3-2.2,0.9-4.3,2.6-5.1c0.9-0.5,1.5-0.1,3.4,0
	c3.8,0.2,6.7-1.2,7.7-1.7c2.1-1,4.2-2.1,5.1-4.3c1.1-2.7-0.2-5.5-0.9-6.9c-1.5-3.3-4.1-5.1-6.9-6.9c-4-2.7-7.7-3.9-9.4-4.3
	c-5.7-1.5-10.2-1.2-13.7-0.9c-4.3,0.3-9.9,0.9-16.3,4.3c-3,1.6-8.9,4.9-12.9,12c-2.9,5.3-3.2,9.9-3.4,14.6c-0.1,2-0.3,7,1.7,7.7
	c0.9,0.3,1.9-0.5,2.6,0c0.9,0.7-0.3,2.4,0,4.3C138.1,93.6,142.4,96.7,146.3,96.4z"/>
<g id="eye">
	<g id="XMLID_1_">
		<g>
			<path class="st2" d="M191.5,80.5c-0.1,0.1-0.2,0.2-0.3,0.2C191.3,80.7,191.4,80.6,191.5,80.5z"/>
			<path class="st2" d="M197.7,77.6c0,0-0.1,0-0.2,0.1C197.6,77.6,197.6,77.6,197.7,77.6z"/>
			<path class="st2" d="M192.6,79.8c-0.2,0.1-0.3,0.2-0.5,0.3C192.2,80,192.4,79.9,192.6,79.8z"/>
			<path class="st2" d="M197.5,77.7c-0.3,0.1-0.9,0.3-1.6,0.5c-0.7,0.3-1.5,0.6-2.5,1.1c-0.2,0.1-0.4,0.3-0.6,0.3
				c0.7-0.4,1.5-0.8,2.3-1.2C196.3,78,197.1,77.7,197.5,77.7z"/>
		</g>
		<g>
			<path class="st0" d="M196,78.4c-0.1,0.1,0.6,0.7,0.9,1.7c0.3,0.9,0,1.7,0,1.7s0.6-1.5,0-2.6C196.5,78.7,196.1,78.3,196,78.4z"/>
			<path class="st0" d="M198.6,81.9L198.6,81.9c-0.1,0-0.7,0.1-1.7,0.1c-0.5,0-1.1,0-1.7-0.1c-2.4-0.3-4.1-0.9-4.3-0.9"/>
			<path class="st0" d="M190.9,81c0.2,0.1,1.5,0.6,3.4,0.9c2.3,0.3,4.1,0.1,4.3,0"/>
			<path class="st0" d="M190.9,81L190.9,81"/>
			<path class="st0" d="M191.5,80.5c-0.1,0.1-0.2,0.2-0.3,0.2"/>
			<path class="st0" d="M192.6,79.8c-0.2,0.1-0.3,0.2-0.5,0.3"/>
			<path class="st0" d="M197.5,77.7c-0.4,0.1-1.3,0.3-2.4,0.8c-0.9,0.3-1.6,0.8-2.3,1.2"/>
			<path class="st0" d="M197.7,77.6L197.7,77.6c-0.1,0-0.1,0-0.2,0.1"/>
			<path class="st0" d="M197.5,77.7c0.1,0,0.2,0,0.2-0.1"/>
			<path class="st0" d="M197.5,77.7L197.5,77.7"/>
			<path class="st0" d="M192.8,79.6c0.2-0.1,0.3-0.3,0.6-0.3c0.9-0.5,1.8-0.9,2.5-1.1c0.7-0.3,1.3-0.4,1.6-0.5"/>
			<path class="st0" d="M192.8,79.6c-0.1,0.1-0.2,0.1-0.3,0.2"/>
			<path class="st0" d="M192.1,80.1c0.2-0.1,0.3-0.2,0.5-0.3"/>
			<path class="st0" d="M192.1,80.1c-0.2,0.2-0.3,0.3-0.5,0.3l-0.1,0.1"/>
			<path class="st0" d="M191.3,80.7c0.1-0.1,0.2-0.1,0.3-0.2"/>
			<path class="st0" d="M191.3,80.7C191.2,80.7,191.2,80.7,191.3,80.7c-0.2,0.1-0.2,0.2-0.2,0.2c-0.1,0.1-0.2,0.1-0.2,0.2"/>
			<path class="st0" d="M190.9,81L190.9,81"/>
		</g>
	</g>
</g>
<g id="_x32_">
	<path class="st3" d="M118,250.7c3.8,1.1,6.3-5.9,14.6-10.3c7-3.7,9.2-0.8,16.3-5.1c5.9-3.6,8.7-8.3,9.4-9.4
		c1.5-2.6,2.5-5.2,3.4-10.3c2.1-10.7,1.8-19.5,1.7-22.3c-0.5-12.7-0.8-19-4.3-24c-0.8-1.1-6.9-9.3-16.3-9.4c-2.1,0-6.3,0.3-12,4.3
		c-12.2,8.5-16.2,23.1-18.9,33.4c0,0-6.4,24.7,2.6,48.9C115.1,247.9,116.1,250.2,118,250.7z"/>
	<path class="st4" d="M166.9,184.7c0,3.4,0.3,7.8,0.9,12.9c0.4,3.3,1.2,8.8,3.4,17.1c4.2,15.9,6.3,23.9,12,26.6
		c4.3,2.1,4.8-1,11.1,0.9c6.5,1.9,9.5,6.2,20.6,11.1c2.1,0.9,3.2,1.4,4.3,0.9c2.6-1.2,2.6-6.4,1.7-18.9c-0.8-11.7-1.2-17.5-1.7-20.6
		c-3-17.3-9-29.3-10.3-31.7c-3.9-7.5-8.3-13.7-14.6-18.9c-6.5-5.4-10-5.5-12-5.1c-4,0.6-6.7,3.9-8.6,6c-3.1,3.6-4.2,7.3-5.1,10.3
		C167.4,179.1,167,182.5,166.9,184.7z"/>
</g>
<g id="Heart">
	<g id="XMLID_2_">
		<g>
			<path class="st5" d="M318.7,281.1c0.3,1.8,0.5,3,0,4.3c-0.8,2.1-2.7,3-3.4,3.4c-1.9,0.9-3.5,0.9-11.1,0c-7.3-0.9-8.4-1.3-9.4-1.7
				c-3.2-1.3-5.5-3-6.9-4.3h-0.1c0.3-1-0.3-3.7,0.5-6.4c1.7-5.7,7.4-5.9,7.7-10.3c0.8,0.6,2.9-0.3,4.3-1.7c1.5-1.5,1-2.7,2.3-4.7
				c2.7,0.2,3.8,0.9,4.1,1.7c0.6,1.1-0.2,2.5,0.9,3.4c-0.3,0.4-0.5,0.9-0.9,1.7c-0.4,1.1-1,2.6-0.9,3.4c0.3,1.5,3.2,2.6,6.9,2.6
				l0.3-0.2c0.8,1.4,2.5,1.5,4,3.6C318.1,277.5,318.4,279.2,318.7,281.1z"/>
			<path class="st5" d="M312.7,271.7c0.1,0.3,0.2,0.5,0.3,0.7l-0.3,0.2c-3.7,0-6.5-1-6.9-2.6c-0.2-0.9,0.4-2.3,0.9-3.4
				c0.3-0.8,0.6-1.3,0.9-1.7c0.4,0.4,0.8,0.3,1.7,0.9c0.4,0.3,2.8,1.5,3.4,3.4C313.1,270.3,312.5,270.5,312.7,271.7z"/>
			<path class="st5" d="M302.6,259.7c-1.3,2.1-0.9,3.2-2.3,4.7c-1.4,1.5-3.5,2.3-4.3,1.7c0.1-0.7,0-1.4-0.3-2.1
				c0-0.3-0.1-0.6-0.2-0.9c-0.6-1.8-1.7-1.5-2.1-3c-0.7-2.5,2-5.4,2.6-6c1.4-1.5,1.7-0.9,5.1-3.4c2.3-1.7,2.9-2.5,4.3-2.6
				c1.3-0.1,2.9,0.5,3.4,1.7c0.9,1.9-1.3,4.5-2.6,6c-1.7,2.1-2.2,1.7-3.4,3.4C302.8,259.5,302.7,259.6,302.6,259.7z"/>
			<path class="st5" d="M295.7,264c0.2,0.7,0.3,1.4,0.3,2.1C295.6,265.8,295.9,265.1,295.7,264z"/>
			<path class="st5" d="M284.9,280.7l0.2,0.7c-0.2-0.3-2.7-5.2-2.7-11c0-2.5,0-6.1,2.6-8.6c1.7-1.6,5-3.1,7.7-1.7
				c1.5,0.8,2.7,2.2,3.2,3.9c0.1,1-0.3,1.7,0.3,2.1c-0.3,4.4-6,4.6-7.7,10.3c-0.9,2.7-0.3,5.4-0.5,6.4c-0.1,0.3-0.2,0.4-0.3,0.4
				C287,283.4,284.9,280.9,284.9,280.7z"/>
		</g>
		<g>
			<path class="st0" d="M295.7,264c0-0.3-0.1-0.6-0.2-0.9c-0.6-1.8-1.7-1.5-2.1-3c-0.7-2.5,2-5.4,2.6-6c1.4-1.5,1.7-0.9,5.1-3.4
				c2.3-1.7,2.9-2.5,4.3-2.6c1.3-0.1,2.9,0.5,3.4,1.7c0.9,1.9-1.3,4.5-2.6,6c-1.7,2.1-2.2,1.7-3.4,3.4c-0.1,0.2-0.2,0.3-0.3,0.4
				c-1.3,2.1-0.9,3.2-2.3,4.7c-1.4,1.5-3.5,2.3-4.3,1.7C295.6,265.8,295.9,265.1,295.7,264z"/>
			<path class="st0" d="M284.9,280.7L284.9,280.7c0.1,0.2,2.1,2.7,2.6,2.6c0.2,0,0.3-0.2,0.3-0.4c0.3-1-0.3-3.7,0.5-6.4
				c1.7-5.7,7.4-5.9,7.7-10.3c0.1-0.7,0-1.4-0.3-2.1c-0.5-1.6-1.7-3.2-3.2-3.9c-2.7-1.4-6,0.1-7.7,1.7c-2.6,2.5-2.6,6.1-2.6,8.6
				c0,5.7,2.6,10.6,2.7,11"/>
			<polyline class="st0" points="285,281.4 285,281.4 284.9,280.7 			"/>
			<path class="st0" d="M287.9,282.9c1.4,1.3,3.7,3,6.9,4.3c1,0.4,2.1,0.8,9.4,1.7c7.6,0.9,9.3,0.9,11.1,0c0.8-0.4,2.7-1.4,3.4-3.4
				c0.5-1.3,0.3-2.5,0-4.3c-0.3-2-0.6-3.6-1.7-5.1c-1.5-2.1-3.3-2.2-4-3.6c-0.1-0.2-0.2-0.4-0.3-0.7c-0.3-1.2,0.3-1.4,0-2.6
				c-0.6-2-3-3.2-3.4-3.4c-0.9-0.5-1.3-0.4-1.7-0.9c-1-0.9-0.3-2.3-0.9-3.4c-0.4-0.8-1.5-1.5-4.1-1.7c-0.1,0-0.1,0-0.2,0"/>
			<path class="st0" d="M307.6,264.9c-0.3,0.4-0.5,0.9-0.9,1.7c-0.4,1.1-1,2.6-0.9,3.4c0.3,1.5,3.2,2.6,6.9,2.6"/>
		</g>
	</g>
</g>
<g id="_x35_">
	<path class="st6" d="M116.3,265.3c0.8-3.7,1.1-5.5,2.6-6.9c2.9-2.7,7.5-2.4,16.3-1.7c4.8,0.4,4.3,0.8,7.7,0.9
		c7,0.3,7.6-1.3,13.7-0.9c4.9,0.3,5.7,1.4,9.4,0.9c3.3-0.5,5.2-1.7,6-0.9c1.1,1.2-1.5,5.1-2.6,6.9c-3.6,5.6-7.7,8.7-8.6,9.4
		c-4.7,3.6-9.1,5.4-12.9,6.9c-6.3,2.5-7.4,1.9-11.1,4.3c-3.3,2.1-3.4,3.1-7.7,6c-5,3.3-7.5,5.1-9.4,4.3c-2-0.8-2.5-5.1-3.4-13.7
		C115.3,272.1,115.6,268.5,116.3,265.3z"/>
</g>
<g id="_x31__00000078738649372407869800000018013368148696279183_">
	<path class="st7" d="M127.9,294.9c0.4-4,2-6.8,2.6-7.7c0.9-1.4,2.7-4.3,6-6c2.1-1.1,2.2-0.3,6-1.7c3.3-1.2,4.4-2.2,6-1.7
		c1.1,0.4,1.8,1.3,2.6,2.6c0.8,1.1,2.4,3.6,1.7,6.9c-0.1,0.3-0.8,3.6-3.4,5.1c-2.1,1.2-3.5,0.5-4.3,1.7c-0.7,1.2,0,3.2,0.9,4.3
		c1.2,1.5,2.3,1.1,3.4,2.6c0.9,1.2,1.2,2.9,0.9,4.3c-0.7,2.7-3.9,3.7-6,4.3c-1.8,0.5-6.8,2.1-11.1-0.9c-2.7-1.8-3.8-4.3-4.2-5.4
		C128.3,301.5,127.4,298.5,127.9,294.9z"/>
	<path class="st8" d="M178.4,276.9c-1.1,0.9-1,3-0.9,6c0.1,1.5,0.2,2.7,0.9,4.3c0.5,1.1,1.2,1.9,2.6,3.4c2.3,2.6,3.3,3,3.4,4.3
		c0.1,0.9-0.3,1.5-0.9,2.6c-1.8,3.3-3.9,3.3-4.3,5.1c-0.6,2.5,2.5,5.1,3.4,6c0.9,0.7,2.5,2.2,5.1,2.6c3.8,0.5,6.7-1.8,7.7-2.6
		c2.2-1.7,3.2-3.7,4.3-6c1.5-3.2,2.9-5.9,2.6-9.4c-0.4-5-3.9-8.2-5.1-9.4c-2-1.9-4.7-3-10.3-5.1C180.2,275.9,179,276.3,178.4,276.9z
		"/>
</g>
<g id="_x31__00000070833419957523059820000005131108951864354237_">
	<path class="st9" d="M196,509.6c-3.9-12.4-6-18.6-6-18.9c-0.7-4.7-1.5-11.5-1.7-25.7c-0.2-10.9,0.2-18.9,1.7-28.3
		c1.4-8.1,2.9-12.6,6.9-15.4c4.2-3,9.1-2.6,9.4-2.6c4.3,0.4,7.1,2.9,8.6,4.3c1.7,1.5,4.8,5,6.9,13.7c1.2,5.1,1.8,11.1,0.9,20.6
		c-0.5,5-2.1,11.8-5.1,25.7c-6,26.6-5.9,20.7-6,23.1c-0.1,2-0.2,5.5-2.6,7.7c-2.4,2.1-6.6,2.6-9.4,0.9
		C197.3,513.3,196.4,511,196,509.6z"/>
</g>
<g id="_x35__00000148628268146412437180000004940021224152814475_">
	<path class="st10" d="M169,384v16.3 M169.4,395.6c0.6,0,1.5,0.1,2.6,0c1.9-0.1,3-0.2,4.3-0.9c0.6-0.3,2-1,2.6-2.6
		c0.6-1.5,0.2-2.9,0-3.4c-0.4-1.5-1.4-2.2-1.7-2.6c-1.5-1.3-3.1-1.5-4.3-1.7c-0.8-0.1-2-0.3-3.4,0"/>
</g>
<g id="_x33_">
	<path class="st9" d="M216.2,320.4c-0.3,1.8,0.3,1.6,0,3.9c-0.3,2.6-1.2,3.3-0.9,5.1c0.3,1.2,0.6,1.1,0.9,2.3c0.3,1.2,0,2.2-0.9,4.7
		c-1.5,4.4-1.6,4.2-1.6,5.1c0,1.7,0.7,1.5,1.6,5.1c0.6,2.3,0.8,4,0.9,5.1c0.1,1.5,0.1,2.3,0,2.7c-0.2,1.5-0.6,2.5-0.9,3.2
		c-0.2,0.3-0.7,1.6-1.6,3.2c-1.5,2.2-2,1.9-2.5,3.2c-0.9,2.2,0.3,3.7-0.9,4.7c-0.8,0.7-1.4,0.1-2.5,0.8c-1.8,1.1-0.9,3.2-2.5,4.3
		c-1.3,0.9-2.2-0.1-5,0.8c-1.7,0.5-1.6,1.2-3.3,1.5c-2,0.4-2.3-0.3-4.1,0c-2.7,0.5-3.3,2.6-5,2.3c-1.6-0.2-1.5-2-3.3-2.3
		c-2.1-0.4-3.3,1.5-5,0.8c-1.1-0.4-1.4-1.7-1.6-1.5c-0.4,0.2,0.3,3.9,0.1,4c0,0,0,0-0.1-0.1c-0.3-0.3-1.1,0-1.6,0.4
		c-0.6,0.4-0.8,1.1-0.9,1.5c-0.3,1.4,0.3,2,0,2.3c-0.3,0.3-1.1-0.1-3.3-0.8c-2.1-0.6-3.3-0.3-3.3-0.8c0-0.8-0.2-3.3,0-5.5
		c0.1-2,0-4.7,0-8.7c0,0.7,5.8-3.4,6.7-3.5c1.1-0.1,1.2-1.4,2.5-1.5c0.9-0.2,1.8,0.3,2.5,0.8c1.6,1,1.4,2,2.5,2.3
		c1.4,0.5,1.9-0.9,4.1-0.8c1.9,0,2.2,0.9,4.1,0.8c0.7-0.1,1.6-0.1,2.5-0.8c0.9-0.7,0.6-1.3,1.6-3.2c0.4-0.9,0.9-1.6,1.6-2.3
		c1-1,1.6-0.8,2.5-1.5c1.2-1.1,1.5-2.6,1.6-3.9c0.2-0.9,0.1-1.2,0-3.9c-0.1-2.7-0.1-4,0-4.7c0.4-2.7,1.4-3.3,0.9-4.7
		c-0.4-1.3-1.3-1.1-1.6-2.3c-0.5-1.6,0.9-2.2,0.9-4.7c0-0.6-0.1-0.2-0.9-3.9c-0.3-1.5-0.4-2.3-0.9-2.3c-0.5-0.1-0.7,1.1-1.6,1.5
		c-1.6,0.8-3.3-1.4-5-0.8c-1.5,0.5-0.9,2.4-2.5,3.2c-2,0.9-3.9-1.7-6.7-0.8c-1.4,0.4-1.1,1.1-2.5,1.5c-2,0.6-2.8-0.7-5.8-0.8
		c-1.9-0.1-1.7,0.5-5,0.8c-2,0.2-3.3,0.3-5,0c-2.7-0.5-2.9-1.5-5-1.5c-2.2-0.1-2.4,1.1-4.1,0.8c-1.1-0.3-2.9-1.1-4.1-2
		c-0.2-0.1-0.4-0.3-0.9-0.4c-1-0.2-1.5,0.9-2.5,0.8c-2.1-0.1-3.1-2.7-4.1-2.3c-0.5,0.2-0.7,1-0.9,1.5c-0.3,1.2,0.3,1.5,0,2.3
		c-0.3,0.9-1.1,0.7-1.6,1.5c-0.7,1.2,0.4,1.9,0,3.9c-0.3,1.1-0.7,1.1-0.9,2.3c-0.2,1,0.2,1.3,0,2.3c-0.2,1.5-0.8,1.3-0.9,2.3
		c-0.1,1.4,0.8,1.8,0.9,3.9c0,0.4,0.1,0.6,0,0.8c-0.5,0.9-2.9,0.3-5,0c-6.3-0.8-8.9,2-11.7,0c-0.3-0.3-1.5-1.1-1.6-2.3
		c-0.2-1.2,0.8-1.6,0.9-3.2c0.1-1.6-0.9-1.8-0.9-3.2c0.2-1.9,2.2-2.1,2.5-3.9c0.2-1.4-0.9-1.5-0.9-3.2c0.1-1.8,1.5-2.1,1.6-3.9
		c0.1-1.4-0.8-1.5-0.9-3.2c-0.1-2.1,1.1-2.1,0.9-3.9c-0.2-1.3-0.9-2.2-0.9-3.9c0-0.3,0.1-0.6,0.1-0.6c0.2-1.2,0.6-2.1,0.8-2.6
		c0.9-2.2-0.1-3.2,0.9-3.9c0.8-0.6,1.7,0,2.5-0.8c0.7-0.6,0.3-1.3,0.9-1.5c0.9-0.5,2,1.4,4.1,1.5c1.9,0.2,2.5-1.2,4.1-0.8
		c1.1,0.3,1,0.9,2.5,1.5c2,0.9,2.7,0,4.1,0.8c0.9,0.4,0.7,0.9,2.5,3.9c1.5,2.6,2,2.9,2.5,3.2c1.3,0.5,1.8-0.4,3.3,0
		c1.5,0.4,1.4,1.4,3.3,2.3c0.4,0.2,1.3,0.6,2.5,0.8c1.7,0.3,2.1-0.3,3.3,0c1.5,0.4,1.4,1.5,2.5,1.5c1.3,0.1,1.6-1.3,3.3-1.5
		c1.3-0.2,1.6,0.5,3.3,0.8c2,0.3,2.2-0.5,5-0.8c3.3-0.3,3.9,0.8,5.8,0c1.7-0.7,1.5-1.5,3.3-2.3c2.2-0.9,2.9,0.1,5-0.8
		c2.2-0.9,2-2.5,4.1-3.2c1.8-0.5,2.2,0.4,4.1,0c2.4-0.6,2.3-2.2,5-3.2c2-0.7,2.4,0,4.1-0.8c2.1-0.9,2-2.1,3.3-2.3
		c1.9-0.3,4,1.5,5,3.2c0.9,1.5,0.9,2.9,0.9,3.2C217.8,317.7,216.7,318.1,216.2,320.4z"/>
</g>
<g id="_x31__00000059276518810576857390000000195585581457694863_">
	<path class="st11" d="M167.7,381c-0.3,0-0.9,0-1.7,0c-1.3,0-1.7,0.2-2.6,0c-0.6-0.1-1.5-0.3-1.7-0.9c-0.1-0.3-0.1-0.4,0-0.9
		c0.1-0.6,0.2-1.6,0-2.6c-0.2-0.8-0.6-1.4-0.9-1.7c-0.3-0.3-0.3-0.3-1.7-1.7c-0.8-0.8-0.7-0.7-0.9-0.9c-0.6-0.5-0.9-0.6-0.9-0.9
		c0-0.3,0.6-0.3,0.9-0.9c0.1-0.3,0.1-0.6,0-0.9c-0.3-1-1-1.5-0.9-1.7c0.1-0.2,0.4,0,0.9,0c0.8,0,1.3-0.7,1.7-0.9
		c2.6-1.3,2.9-1.5,3.4-1.7c2.3-0.8,4.5,0.5,5.1,0.9c0,4.9,0,9.8,0,14.7L167.7,381z M157.9,369.4c0.2-0.4,0-0.9,0-0.9
		c0-0.1-0.2-0.3-0.4-0.4c-0.3-0.2-0.5,0.1-0.9,0c-0.1,0-0.3-0.1-0.9-0.9c-0.5-0.8-0.8-1.2-0.9-1.7c-0.1-0.9,0.3-1.1,0-1.7
		c-0.2-0.5-0.6-0.7-0.9-0.9c-1.1-0.6-2.5-0.4-5.1,0c-2.3,0.4-3.5,0.6-4.3,0.9c-0.4,0.2-1.8,0.7-3.4,1.7c-1.5,1-2.4,1.5-2.6,2.6
		c-0.1,0.7,0.2,1.3,0.9,2.6c0.5,1.1,0.9,1.8,1.7,2.6c0,0,1.4,1.3,3.4,1.7c0.3,0.1,0.8,0.2,0.9,0c0.1-0.2-0.4-0.3-0.9-0.9
		c-0.6-0.7-0.8-1.5-0.9-1.7c-0.2-0.7-0.3-1.3,0-1.7c0.8-1.1,3.7,0.2,4.3-0.9c0.2-0.3,0.2-0.7,0-0.9c-0.2-0.2-0.4-0.1-0.9,0
		c-0.2,0,0,0-1.7,0c-1.5,0-1.5,0-1.7,0c-0.5-0.1-1.4-0.3-1.7-0.9c-0.1-0.3-0.2-0.6,0-0.9c0.2-0.3,0.6-0.1,1.7,0
		c0.9,0.1,1.5,0.2,1.7,0c0.5-0.3,0.3-1,0.9-1.7c0.4-0.5,1-0.7,1.7-0.9c0.3-0.1,1.3-0.3,2.6,0c1.5,0.3,3.4,1.5,3.4,2.6
		c0,0.3-0.1,0.5,0,0.9c0.1,0.3,0.3,0.5,0.9,0.9c1,0.6,1.9,1.2,2.6,0.9C157.5,369.9,157.7,369.7,157.9,369.4z M153.1,375
		c0.3-0.1,0.7-0.3,0.9-0.9c0.1-0.3-0.1-0.5,0-0.9c0.2-0.4,0.6-0.4,1.7-0.9c0.3-0.1,0.9-0.4,1.7-0.9c0.4-0.3,0.7-0.5,0.9-0.9
		c0-0.1,0.3-0.6,0-0.9c-0.2-0.1-0.3,0-0.9,0c-0.5,0-0.6,0-0.9,0c-0.8,0.1-0.9,0.6-1.7,0.9c-0.3,0.1-0.3,0-1.7,0c-0.6,0-1.1,0-1.7,0
		c-0.6,0-1.1,0-1.7,0c-0.3,0-0.6,0-0.9,0c-0.3,0-0.6,0-0.9,0c-1.6,0-3.9-0.7-4.3,0c-0.1,0.1,0,0.1,0,0.9c0,0.6-0.1,1.4,0,1.7
		c0.1,0.9,1,1.4,1.7,1.7C148.9,376.9,152.5,375.3,153.1,375z M162.6,381c0.6,1,0.8,2,0.9,2.6c0,0,0,0,0,1.7c0,1.7,0,1.7,0,1.7
		c0,0.8,0,0.8,0,0.9c0.2,0.9,1.1,1.4,1.7,1.7c0.6,0.3,1.7,0.9,3.4,0.9V381 M168.6,399.9v-9.4c-1.6,0-2.7-0.4-3.4-0.9
		c-0.9-0.5-1.4-1-1.7-0.9c-0.4,0.3-0.1,1.5,0,1.7c0.2,0.8,0.6,1.4,0.9,1.7v7.7H168.6z"/>
</g>
<g id="_x31__00000052822480329971268200000008575200583055622546_">
	<path class="st0" d="M172.9,401.6c0.1,0.2,0.1,0.1,0.9,1.7c1.2,2.4,1.4,2.5,1.7,3.4c0.6,1.5,0.9,2.3,0.9,3.4c0,0.3-0.2,2.2-1.7,3.4
		c-0.3,0.2-0.9,0.7-1.7,0.9c-0.4,0.1-1,0.3-1.7,0c-0.8-0.3-0.9-0.7-1.7-0.9c-0.4-0.1-0.8,0-0.9,0c-0.9,0.2-1.1,0.7-1.7,0.9
		c-0.9,0.3-1.8-0.3-2.6-0.9c-0.5-0.3-1.3-0.9-1.7-1.7c-0.7-1.3-0.3-2.6,0-4.3c0.3-1.3,0.8-2.3,0.9-2.6c0.2-0.3,0.3-0.4,0.9-1.7
		c0.9-1.6,0.8-1.6,0.9-1.7C166.3,399.8,171.1,399.5,172.9,401.6z M163.4,411c0.1,0.6,0.3,1.4,0.9,1.7c0.5,0.3,1,0.2,1.7,0
		c0.4-0.1,1.1-0.3,1.7-0.9c0.5-0.5,0.7-1.1,0.9-1.7c0.2-0.8,0.5-1.7,0-2.6c-0.1-0.2-0.3-0.6-0.9-0.9c-0.6-0.3-1.1-0.2-1.7,0
		c-0.5,0.1-1.1,0.3-1.7,0.9c-0.7,0.7-0.8,1.4-0.9,1.7C163.3,409.6,163.3,410.2,163.4,411z M169.4,408.4c-0.3,0.7-0.1,1.3,0,1.7
		c0.2,0.9,0.6,1.5,0.9,1.7c0.1,0.1,0.3,0.5,0.9,0.9c0.7,0.5,1.1,0.9,1.7,0.9c0.9-0.1,1.5-1.2,1.6-1.5c0.3-0.7,0.3-1.3,0.3-1.5
		c0-0.5-0.1-0.9-0.3-1.2c-0.2-0.5-0.3-1.1-0.9-1.7c-0.7-0.7-1.5-0.9-1.7-0.9c-0.3,0-0.5-0.1-0.9,0
		C170.3,406.9,169.7,407.7,169.4,408.4z"/>
</g>
<g id="_x32__00000142157825016947978520000009422562546619206308_">
	<g>
		<path class="st0" d="M161.5,111.1c-0.2,0.1-0.3,0.2-0.4,0.3s-0.1,0.3-0.1,0.4c0,0.9,0,1.7,0,2.6c2.4,0.7,5,0.6,7.4-0.1
			c0.1,0,0.3-0.1,0.3-0.2c0.1-0.1,0.1-0.3,0.2-0.4c0.1-1.5-0.2-3.9-2.1-4.3C165.2,109.1,162.9,110.4,161.5,111.1z"/>
		<path class="st0" d="M159.1,111.6c-0.8,0.3-1.6,0.7-2.3,1.1c-0.3,0.2-0.6,0.3-0.8,0.7c-0.2,0.3-0.2,0.8,0.2,0.9
			c0.2,0.2,0.5,0.2,0.8,0.2c0.7,0.1,1.3,0.7,1.9,0.4s0.7-0.9,0.8-1.5c0.1-0.5,0.1-1-0.1-1.5c-0.4,0-0.8-0.3-1-0.6"/>
	</g>
	<g>
		<path class="st0" d="M161.3,117.3c-0.2,0.1-0.3,0.2-0.4,0.3c-0.1,0.2-0.1,0.3-0.1,0.4c0,0.9,0,1.7,0,2.6c2.4,0.7,5,0.6,7.4-0.1
			c0.1,0,0.3-0.1,0.3-0.2c0.1-0.1,0.1-0.3,0.2-0.4c0.1-1.5-0.2-3.9-2.1-4.3C165.1,115.4,162.7,116.7,161.3,117.3z"/>
		<path class="st0" d="M158.9,117.8c-0.8,0.3-1.6,0.7-2.3,1.1c-0.3,0.2-0.6,0.3-0.8,0.7s-0.2,0.8,0.2,0.9c0.2,0.2,0.5,0.2,0.8,0.2
			c0.7,0.1,1.3,0.7,1.9,0.4c0.6-0.3,0.7-0.9,0.8-1.5c0.1-0.5,0.1-1-0.1-1.5c-0.4,0-0.8-0.3-1-0.6"/>
	</g>
	<g>
		<path class="st0" d="M162.6,123.9c-0.2,0.1-0.3,0.2-0.4,0.3s-0.1,0.3-0.1,0.4c0,0.9,0,1.7,0,2.6c2.4,0.7,5,0.6,7.4-0.1
			c0.1,0,0.3-0.1,0.3-0.2c0.1-0.1,0.1-0.3,0.2-0.4c0.1-1.5-0.2-3.9-2.1-4.3C166.3,122,163.9,123.3,162.6,123.9z"/>
		<path class="st0" d="M160.1,124.4c-0.8,0.3-1.6,0.7-2.3,1.1c-0.3,0.2-0.6,0.3-0.8,0.7c-0.2,0.3-0.2,0.8,0.2,0.9
			c0.2,0.2,0.5,0.2,0.8,0.2c0.7,0.1,1.3,0.7,1.9,0.4c0.6-0.3,0.7-0.9,0.8-1.5c0.1-0.5,0.1-1-0.1-1.5c-0.4,0-0.8-0.3-1-0.6"/>
	</g>
	<g>
		<path class="st0" d="M162.8,130.5c-0.2,0.1-0.3,0.2-0.4,0.3c-0.1,0.2-0.1,0.3-0.1,0.4c0,0.9,0,1.7,0,2.6c2.4,0.7,5,0.6,7.4-0.1
			c0.1,0,0.3-0.1,0.3-0.2c0.1-0.1,0.1-0.3,0.2-0.4c0.1-1.5-0.2-3.9-2.1-4.3C166.5,128.5,164.2,129.8,162.8,130.5z"/>
		<path class="st0" d="M160.3,130.9c-0.8,0.3-1.6,0.7-2.3,1.1c-0.3,0.2-0.6,0.3-0.8,0.7c-0.2,0.3-0.2,0.8,0.2,0.9
			c0.2,0.2,0.5,0.2,0.8,0.2c0.7,0.1,1.3,0.7,1.9,0.4c0.6-0.3,0.7-0.9,0.8-1.5c0.1-0.5,0.1-1-0.1-1.5c-0.4,0-0.8-0.3-1-0.6"/>
	</g>
	<g>
		<path class="st0" d="M161.5,137.1c-0.2,0.1-0.3,0.2-0.4,0.3c-0.1,0.2-0.1,0.3-0.1,0.4c0,0.9,0,1.7,0,2.6c2.4,0.7,5,0.6,7.4-0.1
			c0.1,0,0.3-0.1,0.3-0.2c0.1-0.1,0.1-0.3,0.2-0.4c0.1-1.5-0.2-3.9-2.1-4.3C165.1,135.3,162.8,136.5,161.5,137.1z"/>
		<path class="st0" d="M159,137.7c-0.8,0.3-1.6,0.7-2.3,1.1c-0.3,0.2-0.6,0.3-0.8,0.7c-0.2,0.3-0.2,0.8,0.2,0.9
			c0.2,0.2,0.5,0.2,0.8,0.2c0.7,0.1,1.3,0.7,1.9,0.4c0.6-0.3,0.7-0.9,0.8-1.5c0.1-0.5,0.1-1-0.1-1.5c-0.4,0-0.8-0.3-1-0.6"/>
	</g>
	<g>
		<path class="st0" d="M159.8,144c-0.2,0.1-0.3,0.2-0.4,0.3c-0.1,0.2-0.1,0.3-0.1,0.4c0,0.9,0,1.7,0,2.6c2.4,0.7,5,0.6,7.4-0.1
			c0.1,0,0.3-0.1,0.3-0.2c0.1-0.1,0.1-0.3,0.2-0.4c0.1-1.5-0.2-3.9-2.1-4.3C163.5,142,161.2,143.3,159.8,144z"/>
		<path class="st0" d="M157.3,144.4c-0.8,0.3-1.6,0.7-2.3,1.1c-0.3,0.2-0.6,0.3-0.8,0.7c-0.2,0.3-0.2,0.8,0.2,0.9
			c0.2,0.2,0.5,0.2,0.8,0.2c0.7,0.1,1.3,0.7,1.9,0.4c0.6-0.3,0.7-0.9,0.8-1.5c0.1-0.5,0.1-1-0.1-1.5c-0.4,0-0.8-0.3-1-0.6"/>
	</g>
	<g>
		<path class="st0" d="M157.9,150.7c-0.2,0.1-0.3,0.2-0.4,0.3c-0.1,0.2-0.1,0.3-0.1,0.4c0,0.9,0,1.7,0,2.6c2.4,0.7,5,0.6,7.4-0.1
			c0.1,0,0.3-0.1,0.3-0.2c0.1-0.1,0.1-0.3,0.2-0.4c0.1-1.5-0.2-3.9-2.1-4.3C161.6,148.7,159.3,150,157.9,150.7z"/>
		<path class="st0" d="M155.5,151.1c-0.8,0.3-1.6,0.7-2.3,1.1c-0.3,0.2-0.6,0.3-0.8,0.7c-0.2,0.3-0.2,0.8,0.2,0.9
			c0.2,0.2,0.5,0.2,0.8,0.2c0.7,0.1,1.3,0.7,1.9,0.4c0.6-0.3,0.7-0.9,0.8-1.5c0.1-0.5,0.1-1-0.1-1.5c-0.4,0-0.8-0.3-1-0.6"/>
	</g>
	<g>
		<path class="st0" d="M156.8,157.4c-0.2,0.1-0.3,0.2-0.4,0.3c-0.1,0.2-0.1,0.3-0.1,0.4c0,0.9,0,1.7,0,2.6c2.4,0.7,5,0.6,7.4-0.1
			c0.1,0,0.3-0.1,0.3-0.2c0.1-0.1,0.1-0.3,0.2-0.4c0.1-1.5-0.2-3.9-2.1-4.3C160.5,155.4,158.2,156.7,156.8,157.4z"/>
		<path class="st0" d="M154.3,157.8c-0.8,0.3-1.6,0.7-2.3,1.1c-0.3,0.2-0.6,0.3-0.8,0.7c-0.2,0.3-0.2,0.8,0.2,0.9
			c0.2,0.2,0.5,0.2,0.8,0.2c0.7,0.1,1.3,0.7,1.9,0.4c0.6-0.3,0.7-0.9,0.8-1.5c0.1-0.5,0.1-1-0.1-1.5c-0.4,0-0.8-0.3-1-0.6"/>
	</g>
</g>
<g id="_x33__00000182494057050573335250000003299853685104775839_">
	<path class="st6" d="M121.8,429.7c-2.2-4.5-4.2-7-4-11c0.1-1.2,0.2-3.6,2-5c1.9-1.5,4.4-1.1,5-1c3.2,0.6,3.3,2.6,6,3
		c2.2,0.3,2.6-1.1,7-2c2.8-0.6,4.6-1,6,0c2,1.4,2,4.5,2,7c0,1.4-0.2,3.9-2,9c-1.5,4.1-3,6.9-3,7c-7.5,14.3,3.7,91.9,3,96.9
		c0,0.2-0.2,1,0,2c0.2,1.6,1,2.7,2,4c3.3,4.5,3.7,4.9,4,6c0.3,1.1,0.8,2.6,0,4c-0.8,1.4-2.6,2.3-4,2c-1.5-0.3-1.5-1.8-3-2
		c-0.8-0.1-1,0.3-3,1c-1.3,0.5-2.5,0.9-4,1c-1.1,0.1-3,0.1-4-1c-0.7-0.9-0.5-2,0-5c0.3-2,0.5-4,1-6c1.8-7-0.7-25.5-1-27.9
		c-0.2-1.9-1.8-13.9-3-26.9c-1.4-15.9-2.2-23.8-2-27.9c0.2-5.1,0.7-9.7-1-15.9C124.1,434.3,121.8,429.7,121.8,429.7z"/>
</g>
<g id="breast">
	<path class="st12" d="M324.6,296.5c-0.7,0.3-1.4,0.8-2,1.4c-1.4,1.2-2.8,2.4-4.2,3.7c-1.2,1.2-2.4,2.4-2.9,4
		c-0.7,2.1-0.2,4.5,0.6,6.6c0.4,1,0.8,2.1,1.6,2.8c0.9,0.8,2.1,1.1,3.2,1.3c3.9,0.9,7.7,1.8,11.6,2.7c2.7,0.6,5.8,1.2,7.9-0.6
		c0.9-0.8,1.5-1.9,2-3c1.3-2.7,2.3-5.6,1.8-8.6c-0.4-2.7-2-5.1-4-6.9C336.4,296.3,329.6,294.1,324.6,296.5z"/>
	<path class="st13" d="M332.4,310.3c-0.1,0.4-0.1,0.8,0.1,1.1c0.2,0.4,0.7,0.4,1.1,0.5c0.3,0,0.6,0,0.8-0.1c0.4-0.2,0.7-0.5,0.8-0.9
		c0.1-0.4,0.1-0.8-0.1-1.2c-0.2-0.6-1-0.5-1.6-0.5C332.8,309.1,332.5,309.5,332.4,310.3z"/>
</g>
</svg>
