<?xml version="1.0" encoding="utf-8"?>
<!-- Generator: Adobe Illustrator 10.0, SVG Export Plug-In . SVG Version: 3.0.0 Build 77)  -->
<!DOCTYPE svg PUBLIC "-//W3C//DTD SVG 1.0//EN"    "http://www.w3.org/TR/2001/REC-SVG-20010904/DTD/svg10.dtd" [
		<!ENTITY ns_flows "http://ns.adobe.com/Flows/1.0/">
		<!ENTITY ns_extend "http://ns.adobe.com/Extensibility/1.0/">
		<!ENTITY ns_ai "http://ns.adobe.com/AdobeIllustrator/10.0/">
		<!ENTITY ns_graphs "http://ns.adobe.com/Graphs/1.0/">
		<!ENTITY ns_vars "http://ns.adobe.com/Variables/1.0/">
		<!ENTITY ns_imrep "http://ns.adobe.com/ImageReplacement/1.0/">
		<!ENTITY ns_sfw "http://ns.adobe.com/SaveForWeb/1.0/">
		<!ENTITY ns_custom "http://ns.adobe.com/GenericCustomNamespace/1.0/">
		<!ENTITY ns_adobe_xpath "http://ns.adobe.com/XPath/1.0/">
		<!ENTITY ns_svg "http://www.w3.org/2000/svg">
		<!ENTITY ns_xlink "http://www.w3.org/1999/xlink">
		]>
<svg 	xmlns:x="&ns_extend;" xmlns:i="&ns_ai;" xmlns:graph="&ns_graphs;" i:viewOrigin="108.0039 634.4854" i:rulerOrigin="0 0" i:pageBounds="0 792 612 0"
		xmlns="&ns_svg;" xmlns:xlink="&ns_xlink;" xmlns:a="http://ns.adobe.com/AdobeSVGViewerExtensions/3.0/"
		width="350" height="600" viewBox="120 50 350 700" overflow="visible" enable-background="new 0 0 382.622 461.325"
		xml:space="preserve">
	<metadata>
		<variableSets  xmlns="&ns_vars;">
			<variableSet  varSetName="binding1" locked="none">
				<variables></variables>
				<v:sampleDataSets  xmlns="&ns_custom;" xmlns:v="&ns_vars;"></v:sampleDataSets>
			</variableSet>
		</variableSets>
		<sfw  xmlns="&ns_sfw;">
			<slices></slices>
			<sliceSourceBounds  y="173.16" x="108.004" width="382.622" height="461.325" bottomLeftOrigin="true"></sliceSourceBounds>
		</sfw>
	</metadata>
<style type="text/css">
	.st0{fill:none;stroke:#000000;stroke-miterlimit:10;}
	.st1{fill:#9FE5FF;stroke:#000000;stroke-miterlimit:10;}
	.st2{fill:#0022C9;}
	.st3{opacity:0.74;}
	.st4{fill:#0019DF;}
	.st5{opacity:0.26;fill:#0000C9;stroke:#000000;stroke-miterlimit:10;}
	.st6{opacity:0.36;fill:#0000C9;stroke:#000000;stroke-miterlimit:10;}
	.st7{opacity:0.91;fill:#5F9EFF;stroke:#000000;stroke-miterlimit:10;}
	.st8{opacity:0.6;fill:#1F1FFF;stroke:#000000;stroke-miterlimit:10;}
	.st9{opacity:0.62;fill:#1F1FFF;stroke:#000000;stroke-miterlimit:10;}
	.st10{fill:#29ABE2;stroke:#000000;stroke-miterlimit:10;}
	.st11{fill:#0000FF;stroke:#000000;stroke-miterlimit:10;}
</style>
<path id="body" fill="#fff7e6" class="st0" d="M182.5,254.5c2.2-5.3,3.3-8,6-11c4.3-4.9,9.4-7,12-8c3.2-1.3,5.3-1.6,20-3c12.8-1.2,14.7-1.3,18-3
	c3.2-1.6,5.4-3.8,10-8c5.4-5,8.2-8.9,9-10c2.5-3.5,4-5.6,5-9c0.3-1.1,0.4-1.5,1-10c0.5-7,0.6-7.8,0-9c-1.2-2.7-3.1-2.8-7-6
	c-4-3.3-6.3-6.6-8-9c-2-2.8-4.5-6.5-6-12c-1.1-4.1-1-7.3-1-11c0-3.8,0.1-8.4,2-14c1.7-5.2,4.1-8.8,5-10c2.7-3.8,5.4-6,9-9
	c4.3-3.5,7.3-6,12-8c5.7-2.5,10.6-2.7,15-3c9.9-0.6,17.3,1.5,19,2c4.4,1.3,10.2,3.1,16,8c3.3,2.8,7.7,6.6,9,13c0.5,2.4,0.3,7.7-1,11
	c-0.1,0.4-0.8,1.9-1,4c-0.1,0.7-0.2,1.8,0,3c0.2,1,0.5,1.8,3,5c2.5,3.2,3.7,4.8,5,6c0.7,0.6,1.1,1.1,2,2c1.7,1.8,2,2.4,2,3
	c0,0.9-0.7,1.6-1,2c-1,1-1.7,0.8-3,2c-0.5,0.5-0.5,0.6-1,1c-1,0.7-1.4,0.5-2,1c-0.8,0.7-0.9,1.9-1,3c0,0.1,0,0,0,2
	c0,1.5-0.1,1.6,0,2c0.3,1.2,1.1,1.4,1,2c-0.2,0.7-1.7,1-2,1c-0.9,0.1-1.1-0.1-2,0c-1,0.1-2,0.6-2,1c0,0.3,1,0.5,3,1
	c1.5,0.4,1.9,0.4,2.2,0.8c0.4,0.6,0.1,1.6-0.2,2.2c-0.3,0.6-0.7,0.7-1,1c-1,1-0.2,2.9,0,5c0.3,3.4,0.5,5.2,0,6c-1.2,2.2-5.5,2-8,2
	c-2.6,0-3.1-0.5-4,0c-1.8,1-1.6,3.7-2,9c-0.6,8.8-1.4,8.4-1,12c0.4,3.2,0.9,7.2,4,10c1.2,1,2.5,1.7,9,3c5.9,1.1,9.5,1.5,13,2
	c7.7,1.1,7,1.9,14,3c11.7,1.8,14.2-0.3,20.6,2.8c4.3,2.1,7.4,5.1,8.4,6.2c2.8,2.8,4.4,5.4,6,8c3.6,5.9,5.3,11,6,13
	c2.9,9,3,16.5,3,23c0,11.1-1.6,11.1-1,19c0.7,9.1,3,9.2,5,20c2,10.6,0.1,11.9,2,27c0.9,6.9,1.4,10.8,3,16c3,9.6,5.8,11.4,9,20
	c2.4,6.6,3,11.7,4,22c1.6,15.3-0.2,15,1,30c1.3,16.4,3.3,14.5,7,34c0.4,1.9,1.1,5.7,4,9c1.4,1.5,2.9,2.6,5,4c2.7,1.9,3.7,2.1,7,4
	c2.5,1.4,5.6,3.2,9,6c1.9,1.5,3.9,3.2,6,6c1.6,2.1,2.5,3.9,4,7c0.6,1.2,1.4,3.2,3,7c2.2,5.4,2.5,6.2,2,7c-1.2,2-5.6,1.1-6,1
	c-0.7-0.1-3.3-0.7-5-3c-1-1.3-0.8-1.9-2-6c-1.6-5.2-2.4-5.8-3-6c-1.1-0.3-2.3,0.4-3,1c-1.2,1.2-1.1,3-1,5c0.1,2,0.5,2.7,1,5
	c0.8,3.4,0.3,3.3,1,7c0.4,2.3,0.9,4.4,2,7c0.5,1.2,1.2,2.5,2,4c1,1.9,1.4,2.6,2,4c0.5,1.4,0.5,1.7,1,3c0.5,1.4,1.2,2.7,2,4
	c0.5,1.2,3.8,8.5,5,13c0.1,0.5,0.5,1.7,0,3c-0.5,1.3-1.6,2.9-3,3c-0.7,0.1-1.8-0.1-4-3c-2.5-3.3-3.3-6.2-5-11
	c-1-2.9-0.5-1.2-3.1-7.9c-2.4-6.3-3.4-9.1-5.9-10.1c-0.3-0.1-1.9-0.8-3,0c-1,0.7-1.1,2.2-1,4c0.1,2.4,0.3,4.4,1,8
	c0.6,3.1,0.7,3.3,1,5c0.3,2.3,0.3,3.3,0.5,5.2c0.2,1.7,0.7,5.1,1.5,8.8c0.5,2.3,2.4,4.7,2,8c-0.1,1-0.4,3-2,4c-1.2,0.7-2.9,0.6-4,0
	c-1.6-0.9-2.1-2.6-3-6c-2.1-7.6-1.5-4-3-10c-1.1-4.4-1.6-6.6-2-9c-1.6-10-0.2-15.7-3-17c-0.6-0.3-1.4-0.4-2,0c-1.5,0.9-0.9,4.1,0,11
	c0.4,3.3,0.8,6,1,8c0.5,2.8,0.8,5.2,1,7c0.2,1.5,0.5,4.4,0,8c-0.2,1.2-0.3,2.1-1,3c-0.9,1.3-2.7,2.3-4,2c-1.8-0.4-2.8-3.1-4-10
	c-1.2-7.2-1.5-12.4-2-19c-0.6-8.1-1.1-14-2-14c-0.6,0-1.1,2.7-2,7c-1.1,5.7-1.7,8.5-2,12c-0.3,4.1-0.2,6.4-2,8c-0.2,0.1-1.7,1.5-3,1
	c-1.7-0.6-1.9-3.9-2-7c-0.3-8.3,0-15.1,0-16c0.1-3.4-0.2-1.8-1-15c-1-15.8-1.5-23.7-1-27c0.1-0.8,0.4-2.7,0-5c-0.6-3.2-1.9-4.1-3-7
	c-1.5-3.8,0-4.4-1-10c-0.3-1.5-1.2-4-3-9c-1.7-4.5-2.6-6.7-4-9c-1-1.6-1.8-2.7-2-3c-2.7-3.7-9-16.1-14-35c-4.2-15.7-7.8-29.1-6-37
	c0.3-1.3,1.7-6.6,0-13c-0.4-1.4-0.8-2.4-1-3c-3-7.8-4.3-18.3-5-25c-1.5-13.5-1.3-15.4-1.6-18.7c-0.1-1.5-0.3-2.7-0.4-3.3
	c-0.6-3.8-4.2-27.1-5-27c-0.8,0.1,1.2,21.2,2,30c1,11.2,1.2,12.8,1,17c-0.3,4.9-1.9,10.6-5,22c-1.7,6-2.5,8.4-3,13
	c-0.5,4.7-0.2,8.5,0,12c0.2,3.6,0.6,8.3,2,14c1.5,6.2,2.5,5.9,4,12c1.8,7.2,2,13.1,2,15c0.1,7.9-1.5,8.5-1,15c0.4,5.1,1.5,6.2,3,13
	c1,4.8,1.4,8.9,2,17c0.8,10.2,0.4,12,1,24c0.6,12.6,0.9,19,2,27c0.9,6.5,1.6,8.8,2,15c0.4,5.9,0.1,7.1,0,17c-0.1,15.6,0.8,17,0,26
	c-0.5,5.3-1.2,9.3-2,14c-0.8,4.6-1.5,7.7-5,22c-3.7,15-5.5,22.6-6,24c-1,2.9-3.2,8.8-5,17c-0.2,0.8-0.6,2.6-1,5
	c-0.6,3.5-1.6,9.5-2,17c-0.5,8.3-0.1,14.6,0,16c0.6,8.7,1.6,10.1,2,19c0.2,3.5,0.1,6.3,0,12c-0.1,5.2-0.3,9.4-1,22
	c-0.8,13.5-0.8,14.4-1,17c-0.2,2-0.3,2.5-2,16c-1.5,12.1-1.6,12.8-2,15c-0.8,4.7-1,4.7-3,15c-1.5,7.4-2.2,11.2-3,16
	c-0.6,3.7-1.4,8.6-2,15c-0.3,3.3-0.2,2.6-1,14c-0.6,8.2-0.9,12.2-1,13c-0.6,4.2-1.3,6.7-1,11c0.2,2.4,0.6,4.1,1,6
	c0.7,3.2,2.2,9.2,6,16c1.6,2.9,3.8,6.9,8,11c1.8,1.8,4.9,4.6,8,9c1.3,1.8,2.5,3.9,2,6c-0.3,1.2-0.9,1.6-1,3c-0.1,1.4,0.5,1.8,1,4
	c0.5,2.1,1,3.9,0,5c-0.9,1-2.8,1-3,1c-1,0-1.7-0.4-2,0c-0.4,0.4,0.2,1,0,2c-0.2,0.9-1.1,1.8-2,2c-1.4,0.2-2.5-1.4-3-1
	c-0.2,0.1-0.1,0.4,0,2c0.1,1.7,0.1,1.8,0,2c-0.5,0.9-1.9,1.1-3,1c-1.7-0.2-2.6-1.3-3-1c-0.3,0.3,0.2,1,0,2c-0.2,0.9-1.1,1.8-2,2
	c-2.5,0.6-5.1-3.6-6-3c-0.5,0.3,0.4,1.5,0,3c-0.6,2.4-4.1,4-7,4c-3.2,0-6.6-2.2-8-5c-1-2.2-0.7-4.4-3-7c-0.4-0.4-0.6-0.6-1-1
	c0,0-3.6-2.3-5-7c-2.4-7.8-0.8-11.4-2-20c-0.2-1.1-1.4-6.1-4-16c-2.4-9.4-2.6-9.7-3-12c-0.4-2.5-1.4-8.9-1-17c0.3-6.1,1.2-9.4,2-14
	c1.3-7.8,1.2-14.2,1-27c-0.1-4.9-0.3-14.6-2-33c-1.8-20-2.6-21-4-39c0,0-1.8-23.5,1-34c0.8-3,1.3-6,2-9c0.8-3.4,1.3-4.8,1-7
	c-0.2-1.9-0.7-2.4-2-6c0,0-1.2-3.5-2-7c-0.7-3.2-0.9-5.7-1-10c-0.2-5.9-0.2-8.8,0-14c0.3-6.4,0.2-12.9,0-26c-0.1-10-0.3-16.8-1-26
	c-1-12.3-1.9-13.6-3-28c-0.1-1.2-0.4-6.5-1-17c-0.6-11.3-1-16.9-1-19c-0.2-12.8-0.2-19.3,0-20c0.1-0.2,0.5-1.5,0-2
	c-0.3-0.3-0.7,0-2,0c-1.3,0-1.7-0.3-2,0c-0.6,0.4-0.2,1.6,0,3c0.3,1.6,0,3.3,0,5c0,3,0,6,0,9c0,4.3,0,8.7,0,13c0,2,0,4,0,6
	c0,1.9,0,1.9,0,2c0,3.4-0.6,5.8-1,8c-0.4,2.4-0.3,2.2-1,8c-1.8,14-2.6,14.2-3,21c-0.3,6.3,0.4,6.1,0,14c-0.3,5.5-0.7,6.3-1,12
	c-0.2,3.3,0,3.4,0,14c0,0,0,0,0,16c0,3,0,6,0,9c0,2.3,0,4.7,0,7c0,6.2,0.1,6.3,0,8c-0.1,2.5-0.3,4.9-1,8c-0.2,1-0.9,3.8-2,7
	c-0.4,1.2-0.8,2.3-1,4c-0.2,1.7-0.1,3,0,4c0.5,4.6,2.2,7.1,3,11c0.7,3.3-0.2,2.9,0,10c0.2,5.1,0.7,5.6,1,11c0.3,4.5,0.2,7.7,0,13
	c-0.2,5.8-0.3,9.2-1,14c-0.7,5.1-1.2,5.2-2,11c-0.3,2.3-0.8,6.2-1,11c-0.2,5.1,0.1,5.5,0,11c0,1.4-0.1,2.6-1,15c-0.6,8-0.9,12-1,13
	c-0.7,7-1.1,8.2-1,12c0.1,5,0.8,9.2,1,10c0.6,3.4,1.1,4.3,2,9c0.6,3.4,1,5.2,1,7c0.1,3.7-0.7,4.1-1,9c-0.2,3,0.2,2.6,0,7
	c-0.2,5-0.6,6.8-1,8c-0.5,1.6-0.8,1.7-1,3c-0.5,2.8,0.4,3.5,0,6c-0.2,1.4-0.8,2.6-2,5c-1.1,2.2-1.4,2.4-2,4c-0.4,1-0.4,1.4-1,4
	c-0.5,2.3-0.8,3-1,4c-1,4.2-0.2,5.5-1,12c-0.4,3-0.7,4.2-1,5c-0.4,1.1-1.2,3.1-3,5c-1.7,1.8-2.4,1.3-4,3c-0.7,0.7-0.9,1.1-3,5
	c-2.3,4.3-2.5,4.6-3,5c-1.8,1.4-4.7,1.9-7,1c-3.1-1.2-3.8-4.3-6-4c-0.8,0.1-0.7,0.5-2,1c-1.7,0.6-4.5,0.7-6-1c-0.7-0.8-0.4-1.8-1-2
	c-0.6-0.2-1,0.9-2,1c-1.1,0.2-2.4-0.9-3-2c-1.1-1.8-0.3-3.7-1-4c-0.5-0.2-1,0.9-2,1c-1.3,0.1-2.6-1.6-3-3c-0.1-0.3-0.5-1.6,0-3
	c0.4-1.2,1.2-1.5,1-2c-0.2-0.7-1.9-0.2-3-1c-2-1.4-1.2-5.9-1-7c0.8-4.4,3-7.5,4-9c6.6-9.3,9.1-9.6,13-16c1.3-2.1,2.5-5.1,5-11
	c3.2-7.6,3.7-10.3,4-12c0.6-4.2,0.3-7.3,0-10c-1.7-16.3,0.3-4.8-2-23c-1.3-10.2-2.5-19.8-5-34c-2-11.7-2.6-12.9-4-21
	c-3.9-21.7-4.8-39.1-5-44c-0.7-14.9-1.4-31.2,1-49c0.5-3.5,1.5-10.5,1-20c-0.3-5.6-1.1-10.4-3-19c-2.4-10.8-3.8-15.7-7-28
	c-5.2-20.2-3.9-17.5-9-37c-1.8-6.9-2.4-9-3-13c-1.6-10.4-0.7-18.1,0-26c1.9-20.6,0-6.6,3-39c2.8-29.5,3.1-26.9,3-32
	c-0.2-14.1-2.4-20.5,1-32c1.8-6,3.3-7.2,4-13c1.2-9.1-1.8-11.4-1-22c0.6-7,2.4-13.1,3-15c1.9-6.3,3.1-7.1,4-12c0.5-2.7,0.5-4.6,0-14
	c-0.5-9.8-0.8-14.7-1-16c-1.7-10-4.3-10.7-5-19c-0.5-6.1,0.5-10.6,1-14c0.3-2.3-0.1-6.9-1-16c-1.1-11.9-2.1-22-3-22
	c-0.6,0-1.1,5.6-1,10c0.1,3.5,0.4,6.4,1,10c0.9,5.9,1.8,7.6,1.1,10.4c-0.2,0.7-0.8,3-1,5.7c-0.1,0.6-0.1,1.2-0.1,1.9
	c0,0.6,0,1.8,0,3.6c0,0.3,0.1,3.8,0,6.9c-0.1,1.4-0.2,4.2-1,7.5c-0.3,1.2-0.7,2.6-2,6c-3.4,8.8-5,10.2-5,14c0,2.4,0.5,3.3,1,6
	c1.4,6.7,0.7,12.2,0,18c-0.5,4.5-2.7,11.1-7,24c-5.9,17.8-6.9,20.8-9,26c-2.8,7.1-4.3,10.7-6,14c-3.4,6.4-5.4,8.3-7,14
	c-1.1,4-0.5,4.6-2,9c-1.6,4.7-2.9,5.9-4,10c-0.6,2.4-0.8,4.6-1,9c-0.3,5.1-0.1,7.4,0,18c0.1,7.7,0.1,8.2,0,9c-0.5,5.7-1.6,7.1-2,13
	c-0.1,1.5-0.1,3.7,0,8c0,3-0.1,6,0,9c0.1,4.3,0.2,6.2-1,7c-0.9,0.6-2.2,0.5-3,0c-1.5-0.9-1.7-3-2-6c-0.2-1.7-0.1-2.4,0-6
	c0-2.9,0.1-4.3,0-6c-0.2-5.7-1.1-7.1-2-8c-0.4-0.4-1.2-1.2-2-1c-1.1,0.3-1.5,2.4-2,6c-0.6,4.8-0.4,5.3-1,9c-0.5,2.9-0.8,3.5-1,6
	c0,0.4-0.1,1,0,5c0.1,4.5,0.1,5.2,0,7c-0.1,0.8-0.2,2.7-1,5c-0.7,2-1.3,2.7-2,3c-0.1,0.1-1.1,0.4-2,0c-0.1-0.1-0.5-0.3-1-1
	c-0.7-1-0.9-2.1-1-3c-0.1-1.2-0.1-1.9,0-3c0.1-1.7,0-3.3,0-5s0-3.3,0-5c0-1.3,0-2.7,0-4c0-1,0-2,0-3c0-0.7,0-1.3,0-2c0-0.1,0-3,0-3
	c0-4,0-3.9,0-4c-0.1-3-0.2-4.6-1-5c-0.8-0.4-2.2,0.2-3,1c-0.2,0.3-0.8,1-1,4c-0.1,2.3,0.1,2.3,0,4c-0.2,2.3-0.7,2.6-1,5
	c-0.2,1.9,0.1,1.8,0,4c0,0.7-0.1,1.4-1,6c-0.7,3.8-0.7,3.2-1,5c-0.5,3-0.5,3.5-1,5c-0.7,2.3-1.4,3.3-2,4c-0.7,0.9-1.7,2-3,2
	c-1.9,0-3.5-2.2-4-4c-0.4-1.3-0.3-2.4,0-4c0.7-4.5,1.5-7.7,2-10c0-0.1,0,0,1-7c0.7-4.7,1-7,1-7c0.9-3.5,1.8-5,1-7
	c-0.2-0.4-0.8-1.9-2-2c-0.8-0.1-1.6,0.6-2,1c-2.6,2.6-3.9,6.5-4,7c-0.4,1.3,0.1-0.5-5,10c0,0-1.6,3.2-5,9c-1.1,1.9-2.1,3.5-4,4
	c-1.3,0.3-3.1,0.1-4-1c-0.6-0.8-0.6-1.8,0-4c1-3.8,2.7-6.5,3-7c1.9-3.2,3.3-6.7,5-10c3.4-6.5,3.9-7.5,5-10c1.5-3.4,2.3-5.2,3-8
	c0.7-2.7,0.8-4.8,1-9c0.2-3.5,0-5-1-6c-0.7-0.7-2-1.4-3-1c-1.1,0.4-1,1.8-2,4c-0.5,1-1.3,2-3,4c-2.6,3-3.8,4.5-5,5
	c-2.1,0.8-5.4,0.9-7-1c-1.1-1.3-1-2.9-1-3c0.1-1.4,0.9-2,3-5c1-1.4,1.5-2.1,2-3c1.5-2.6,1.6-4.9,2-6c1.5-4.1,4.3-6.6,7-9
	c6.8-6.1,17.2-10.7,20-12c0.7-0.3,1.9-0.8,3-2c2-2,2.3-4.4,3-8c0.6-2.7,1.4-5.3,2-8c2.1-8.7,3.7-9.6,5-16c0.6-3,0.8-5.7,1-11
	c0.4-9.2,0-13.8,0-19c0-2.5,0.1-12.6,3-24c0.7-2.9,3.8-11,10-27c3.2-8.2,3.5-8.9,4-11c2.7-10.4-0.2-11.4,2-23c0.5-2.9,2-8.6,5-20
	c0.8-3,0.8-3.2,1-4c1.5-7.8-0.2-13.1-1-19c-1.2-8.2-0.4-14.7,0-18C177.6,266.3,180.4,259.6,182.5,254.5z"/>
	<path name="Brain" class="st1" id="1" fill="#ffe7ba" d="M261.5,162.5c2.9-0.2,4.9-2.1,8-5c2.1-1.9,3.2-3,4-5c1.1-2.8,0.5-5.1,2-6c0.9-0.6,2.1-0.2,3,0
	c0,0,6.3,1.5,13-1c2-0.7,5.2-1.9,7-5c1.5-2.6,1.1-5,3-6c1.1-0.6,1.8-0.1,4,0c4.4,0.2,7.8-1.4,9-2c2.5-1.2,4.9-2.4,6-5
	c1.3-3.2-0.2-6.4-1-8c-1.8-3.8-4.8-5.9-8-8c-4.7-3.1-9-4.5-11-5c-6.6-1.8-11.9-1.4-16-1c-5,0.4-11.6,1-19,5c-3.5,1.9-10.4,5.7-15,14
	c-3.4,6.2-3.7,11.6-4,17c-0.1,2.3-0.3,8.2,2,9c1.1,0.4,2.2-0.6,3,0c1,0.8-0.3,2.8,0,5C252,159.2,257,162.8,261.5,162.5z"/>
<g id="eye">
	<g id="XMLID_1_">
		<g>
			<path class="st2" d="M314.3,143.9c-0.1,0.1-0.2,0.2-0.3,0.2C314,144.1,314.1,144,314.3,143.9z"/>
			<path class="st2" d="M321.5,140.5c0,0-0.1,0-0.2,0.1C321.4,140.5,321.4,140.5,321.5,140.5z"/>
			<path class="st2" d="M315.5,143.1c-0.2,0.1-0.4,0.2-0.6,0.4C315.1,143.3,315.3,143.2,315.5,143.1z"/>
			<path class="st2" d="M321.3,140.6c-0.3,0.1-1,0.3-1.9,0.6c-0.8,0.3-1.8,0.7-2.9,1.3c-0.2,0.1-0.5,0.3-0.7,0.4
				c0.8-0.5,1.7-0.9,2.7-1.4C319.8,141,320.8,140.7,321.3,140.6z"/>
		</g>
		<g>
			<path class="st0" d="M319.5,141.5c-0.1,0.1,0.7,0.8,1,2c0.3,1.1,0,2,0,2c0,0,0.7-1.7,0-3C320.1,141.8,319.6,141.4,319.5,141.5z"
				/>
			<path class="st0" d="M322.5,145.5C322.5,145.5,322.5,145.5,322.5,145.5c-0.1,0-0.8,0.1-2,0.1c-0.6,0-1.3,0-2-0.1
				c-2.8-0.3-4.8-1-5-1"/>
			<path class="st0" d="M313.5,144.5c0.2,0.1,1.8,0.7,4,1c2.7,0.4,4.8,0.1,5,0"/>
			<path class="st0" d="M313.5,144.5C313.5,144.5,313.5,144.5,313.5,144.5"/>
			<path class="st0" d="M314.3,143.9c-0.1,0.1-0.2,0.2-0.3,0.2"/>
			<path class="st0" d="M315.5,143.1c-0.2,0.1-0.4,0.2-0.6,0.4"/>
			<path class="st0" d="M321.3,140.6c-0.5,0.1-1.5,0.4-2.8,0.9c-1,0.4-1.9,0.9-2.7,1.4"/>
			<path class="st0" d="M321.5,140.5C321.5,140.5,321.5,140.5,321.5,140.5c-0.1,0-0.1,0-0.2,0.1"/>
			<path class="st0" d="M321.3,140.6c0.1,0,0.2,0,0.2-0.1"/>
			<path class="st0" d="M321.3,140.6C321.3,140.6,321.3,140.6,321.3,140.6"/>
			<path class="st0" d="M315.8,142.9c0.2-0.1,0.4-0.3,0.7-0.4c1.1-0.6,2.1-1,2.9-1.3c0.8-0.3,1.5-0.5,1.9-0.6"/>
			<path class="st0" d="M315.8,142.9c-0.1,0.1-0.2,0.1-0.3,0.2"/>
			<path class="st0" d="M315,143.4c0.2-0.1,0.4-0.2,0.6-0.4"/>
			<path class="st0" d="M315,143.4c-0.2,0.2-0.4,0.3-0.6,0.4c0,0-0.1,0.1-0.1,0.1"/>
			<path class="st0" d="M314,144.1c0.1-0.1,0.2-0.1,0.3-0.2"/>
			<path class="st0" d="M314,144.1c-0.1,0-0.1,0.1-0.1,0.1c-0.1,0-0.1,0.1-0.1,0.1c-0.1,0.1-0.2,0.1-0.2,0.2"/>
			<path class="st0" d="M313.5,144.5C313.5,144.5,313.5,144.5,313.5,144.5"/>
		</g>
	</g>
</g>
<g name="Lung" id="2" fill="#ffd591">
	<path class="st5" d="M228.5,342.5c4.4,1.3,7.3-6.9,17-12c8.2-4.3,10.7-0.9,19-6c6.9-4.2,10.2-9.7,11-11c1.7-3,2.9-6.1,4-12
		c2.4-12.5,2.1-22.7,2-26c-0.6-14.8-0.9-22.2-5-28c-0.9-1.3-8-10.8-19-11c-2.4,0-7.3,0.3-14,5c-14.2,9.9-18.9,27-22,39
		c0,0-7.5,28.8,3,57C225.1,339.2,226.3,341.9,228.5,342.5z"/>
	<path class="st6" d="M285.5,265.5c0,4,0.3,9.1,1,15c0.5,3.8,1.4,10.3,4,20c4.9,18.6,7.4,27.9,14,31c5,2.4,5.6-1.2,13,1
		c7.6,2.2,11.1,7.2,24,13c2.4,1.1,3.7,1.6,5,1c3-1.4,3-7.5,2-22c-0.9-13.6-1.4-20.4-2-24c-3.5-20.2-10.5-34.2-12-37
		c-4.5-8.8-9.7-16-17-22c-7.6-6.3-11.7-6.4-14-6c-4.7,0.7-7.8,4.5-10,7c-3.6,4.2-4.9,8.5-6,12C286.1,259,285.7,262.9,285.5,265.5z"
		/>
</g>
<g name="Liver" id="5" fill="#fa8c16">
	<path class="st7" d="M226.5,359.5c0.9-4.3,1.3-6.4,3-8c3.4-3.2,8.8-2.8,19-2c5.6,0.5,5,0.9,9,1c8.2,0.3,8.9-1.5,16-1
		c5.7,0.4,6.6,1.6,11,1c3.9-0.6,6.1-2,7-1c1.3,1.4-1.7,6-3,8c-4.2,6.5-9,10.2-10,11c-5.5,4.2-10.6,6.3-15,8c-7.3,2.9-8.6,2.2-13,5
		c-3.8,2.4-4,3.6-9,7c-5.8,3.9-8.7,5.9-11,5c-2.3-0.9-2.9-6-4-16C225.4,367.5,225.7,363.3,226.5,359.5z"/>
</g>
<g name="Kidney" id="1" fill="#ffe7ba">
	<path class="st8" d="M240,394c0.5-4.7,2.3-7.9,3-9c1-1.6,3.1-5,7-7c2.5-1.3,2.6-0.3,7-2c3.8-1.4,5.1-2.6,7-2c1.3,0.5,2.1,1.5,3,3
		c0.9,1.3,2.8,4.2,2,8c-0.1,0.4-0.9,4.2-4,6c-2.4,1.4-4.1,0.6-5,2c-0.8,1.4,0,3.7,1,5c1.4,1.8,2.7,1.3,4,3c1.1,1.4,1.4,3.4,1,5
		c-0.8,3.1-4.6,4.3-7,5c-2.1,0.6-7.9,2.4-13-1c-3.1-2.1-4.4-5-4.9-6.3C240.5,401.8,239.5,398.3,240,394z"/>
	<path class="st9" d="M299,373c-1.3,1.1-1.2,3.5-1,7c0.1,1.7,0.2,3.2,1,5c0.6,1.3,1.4,2.2,3,4c2.7,3,3.8,3.5,4,5c0.1,1-0.3,1.7-1,3
		c-2.1,3.9-4.5,3.8-5,6c-0.7,2.9,2.9,6,4,7c1,0.8,2.9,2.6,6,3c4.4,0.6,7.8-2.1,9-3c2.6-2,3.7-4.3,5-7c1.8-3.7,3.4-6.9,3-11
		c-0.5-5.8-4.5-9.6-6-11c-2.3-2.2-5.5-3.5-12-6C301.1,371.9,299.7,372.4,299,373z"/>
</g>
<g name="Adipose Tissue" id="1" fill="#ffe7ba">
	<path class="st10" d="M319.5,644.5c-4.6-14.5-7-21.7-7-22c-0.8-5.5-1.8-13.4-2-30c-0.2-12.7,0.2-22.1,2-33c1.6-9.5,3.4-14.7,8-18
		c4.9-3.5,10.6-3,11-3c5,0.5,8.3,3.4,10,5c2,1.8,5.6,5.8,8,16c1.4,6,2.1,12.9,1,24c-0.6,5.8-2.4,13.8-6,30c-7,31-6.9,24.2-7,27
		c-0.1,2.3-0.2,6.4-3,9c-2.8,2.5-7.7,3-11,1C321,648.9,320,646.2,319.5,644.5z"/>
</g>
<g name="Prostate" id="5" fill="#ffe7ba">
	<path class="st11" d="M288,498v19 M288.5,511.5c0.7,0,1.7,0.1,3,0c2.2-0.1,3.5-0.2,5-1c0.7-0.4,2.3-1.2,3-3c0.7-1.8,0.2-3.4,0-4
		c-0.5-1.7-1.6-2.6-2-3c-1.7-1.5-3.6-1.8-5-2c-0.9-0.1-2.3-0.3-4,0"/>
</g>
<g name="Colon" id="3" fill="#ffc069">
	<path class="st10" d="M343.1,423.8c-0.4,2.1,0.3,1.9,0,4.6c-0.4,3-1.4,3.8-1,5.9c0.3,1.4,0.7,1.3,1,2.7c0.3,1.4,0,2.6-1,5.5
		c-1.7,5.1-1.9,4.9-1.9,5.9c0,2,0.8,1.7,1.9,5.9c0.7,2.7,0.9,4.7,1,5.9c0.1,1.8,0.1,2.7,0,3.2c-0.2,1.7-0.7,2.9-1,3.7
		c-0.2,0.4-0.8,1.9-1.9,3.7c-1.7,2.6-2.3,2.2-2.9,3.7c-1.1,2.6,0.4,4.3-1,5.5c-0.9,0.8-1.6,0.1-2.9,0.9c-2.1,1.3-1,3.7-2.9,5
		c-1.5,1.1-2.6-0.1-5.8,0.9c-2,0.6-1.9,1.4-3.9,1.8c-2.3,0.5-2.7-0.4-4.8,0c-3.2,0.6-3.8,3-5.8,2.7c-1.9-0.2-1.8-2.3-3.9-2.7
		c-2.4-0.5-3.9,1.7-5.8,0.9c-1.3-0.5-1.6-2-1.9-1.8c-0.5,0.2,0.3,4.6,0.1,4.7c0,0,0,0-0.1-0.1c-0.3-0.3-1.3,0-1.9,0.5
		c-0.7,0.5-0.9,1.3-1,1.8c-0.3,1.6,0.4,2.3,0,2.7c-0.4,0.4-1.3-0.1-3.9-0.9c-2.4-0.7-3.9-0.4-3.9-0.9c0-0.9-0.2-3.9,0-6.4
		c0.1-2.3,0-5.5,0-10.1c0,0.8,6.8-4,7.8-4.1c1.3-0.1,1.4-1.6,2.9-1.8c1.1-0.2,2.1,0.4,2.9,0.9c1.9,1.2,1.6,2.3,2.9,2.7
		c1.6,0.6,2.2-1,4.8-0.9c2.2,0,2.6,1.1,4.8,0.9c0.8-0.1,1.9-0.1,2.9-0.9c1-0.8,0.7-1.5,1.9-3.7c0.5-1,1-1.9,1.9-2.7
		c1.2-1.2,1.9-0.9,2.9-1.8c1.4-1.3,1.7-3,1.9-4.6c0.2-1.1,0.1-1.4,0-4.6c-0.1-3.1-0.1-4.7,0-5.5c0.5-3.1,1.6-3.8,1-5.5
		c-0.5-1.5-1.5-1.3-1.9-2.7c-0.6-1.9,1-2.6,1-5.5c0-0.7-0.1-0.2-1-4.6c-0.3-1.7-0.5-2.7-1-2.7c-0.6-0.1-0.8,1.3-1.9,1.8
		c-1.9,0.9-3.8-1.6-5.8-0.9c-1.8,0.6-1.1,2.8-2.9,3.7c-2.3,1.1-4.6-2-7.8-0.9c-1.6,0.5-1.3,1.3-2.9,1.8c-2.3,0.7-3.3-0.8-6.8-0.9
		c-2.2-0.1-2,0.6-5.8,0.9c-2.3,0.2-3.9,0.4-5.8,0c-3.1-0.6-3.4-1.8-5.8-1.8c-2.6-0.1-2.8,1.3-4.8,0.9c-1.3-0.3-3.4-1.3-4.8-2.3
		c-0.2-0.1-0.5-0.4-1-0.5c-1.2-0.2-1.8,1-2.9,0.9c-2.5-0.1-3.6-3.2-4.8-2.7c-0.6,0.2-0.8,1.2-1,1.8c-0.3,1.4,0.3,1.8,0,2.7
		c-0.4,1.1-1.3,0.8-1.9,1.8c-0.8,1.4,0.5,2.2,0,4.6c-0.3,1.3-0.8,1.3-1,2.7c-0.2,1.2,0.2,1.5,0,2.7c-0.2,1.7-0.9,1.5-1,2.7
		c-0.1,1.6,0.9,2.1,1,4.6c0,0.5,0.1,0.7,0,0.9c-0.6,1-3.4,0.3-5.8,0c-7.4-0.9-10.4,2.3-13.6,0c-0.4-0.3-1.8-1.3-1.9-2.7
		c-0.2-1.4,0.9-1.9,1-3.7c0.1-1.9-1.1-2.1-1-3.7c0.2-2.2,2.6-2.4,2.9-4.6c0.2-1.6-1.1-1.8-1-3.7c0.1-2.1,1.8-2.4,1.9-4.6
		c0.1-1.6-0.9-1.7-1-3.7c-0.1-2.4,1.3-2.5,1-4.6c-0.2-1.5-1.1-2.6-1-4.6c0-0.3,0.1-0.7,0.1-0.7c0.2-1.4,0.7-2.4,0.9-3
		c1-2.6-0.1-3.7,1-4.6c0.9-0.7,2,0,2.9-0.9c0.8-0.7,0.4-1.5,1-1.8c1-0.6,2.3,1.6,4.8,1.8c2.2,0.2,2.9-1.4,4.8-0.9
		c1.3,0.3,1.2,1.1,2.9,1.8c2.3,1,3.2,0,4.8,0.9c1,0.5,0.8,1,2.9,4.6c1.8,3,2.3,3.4,2.9,3.7c1.5,0.6,2.1-0.5,3.9,0
		c1.7,0.5,1.6,1.6,3.9,2.7c0.5,0.2,1.5,0.7,2.9,0.9c2,0.3,2.5-0.4,3.9,0c1.7,0.5,1.6,1.7,2.9,1.8c1.5,0.1,1.9-1.5,3.9-1.8
		c1.5-0.2,1.9,0.6,3.9,0.9c2.3,0.3,2.6-0.6,5.8-0.9c3.8-0.4,4.5,0.9,6.8,0c2-0.8,1.7-1.8,3.9-2.7c2.6-1.1,3.4,0.1,5.8-0.9
		c2.6-1.1,2.3-2.9,4.8-3.7c2.1-0.6,2.6,0.5,4.8,0c2.8-0.7,2.7-2.6,5.8-3.7c2.3-0.8,2.8,0,4.8-0.9c2.4-1.1,2.3-2.5,3.9-2.7
		c2.2-0.4,4.7,1.8,5.8,3.7c1,1.7,1,3.4,1,3.7C344.9,420.7,343.6,421.1,343.1,423.8z"/>
</g>
<g name="Uterus" id="1" fill="#ffe7ba">
	<path d="M286.5,494.5c-0.4,0-1.1,0-2,0c-1.5,0-2,0.2-3,0c-0.7-0.1-1.7-0.3-2-1c-0.1-0.3-0.1-0.5,0-1
		c0.1-0.7,0.2-1.9,0-3c-0.2-0.9-0.7-1.6-1-2c-0.3-0.4-0.3-0.3-2-2c-0.9-0.9-0.8-0.8-1-1c-0.7-0.6-1-0.7-1-1c0-0.4,0.7-0.4,1-1
		c0.1-0.3,0.1-0.7,0-1c-0.3-1.2-1.2-1.7-1-2c0.1-0.2,0.5,0,1,0c0.9,0,1.5-0.8,2-1c3-1.5,3.4-1.8,4-2c2.7-0.9,5.2,0.6,6,1
		c0,5.7,0,11.4,0,17.1L286.5,494.5z M275,481c0.2-0.5,0-1,0-1c0-0.1-0.2-0.4-0.5-0.5c-0.4-0.2-0.6,0.1-1,0c-0.1,0-0.4-0.1-1-1
		c-0.6-0.9-0.9-1.4-1-2c-0.1-1,0.3-1.3,0-2c-0.2-0.6-0.7-0.8-1-1c-1.3-0.7-2.9-0.5-6,0c-2.7,0.5-4.1,0.7-5,1c-0.5,0.2-2.1,0.8-4,2
		c-1.8,1.2-2.8,1.8-3,3c-0.1,0.8,0.2,1.5,1,3c0.6,1.3,1.1,2.1,2,3c0,0,1.6,1.5,4,2c0.3,0.1,0.9,0.2,1,0c0.1-0.2-0.5-0.4-1-1
		c-0.7-0.8-0.9-1.7-1-2c-0.2-0.8-0.3-1.5,0-2c0.9-1.3,4.3,0.2,5-1c0.2-0.3,0.2-0.8,0-1c-0.2-0.2-0.5-0.1-1,0c-0.2,0,0,0-2,0
		c-1.8,0-1.7,0-2,0c-0.6-0.1-1.6-0.3-2-1c-0.1-0.3-0.2-0.7,0-1c0.2-0.3,0.7-0.1,2,0c1.1,0.1,1.7,0.2,2,0c0.6-0.4,0.3-1.2,1-2
		c0.5-0.6,1.2-0.8,2-1c0.4-0.1,1.5-0.3,3,0c1.8,0.4,4,1.7,4,3c0,0.3-0.1,0.6,0,1c0.1,0.4,0.4,0.6,1,1c1.2,0.7,2.2,1.4,3,1
		C274.6,481.5,274.8,481.3,275,481z M269.5,487.5c0.3-0.1,0.8-0.4,1-1c0.1-0.4-0.1-0.6,0-1c0.2-0.5,0.7-0.5,2-1c0.4-0.1,1.1-0.5,2-1
		c0.5-0.3,0.8-0.6,1-1c0-0.1,0.3-0.7,0-1c-0.2-0.1-0.4,0-1,0c-0.6,0-0.7,0-1,0c-0.9,0.1-1,0.7-2,1c-0.3,0.1-0.3,0-2,0
		c-0.7,0-1.3,0-2,0s-1.3,0-2,0c-0.3,0-0.7,0-1,0s-0.7,0-1,0c-1.9,0-4.5-0.8-5,0c-0.1,0.1,0,0.1,0,1c0,0.7-0.1,1.6,0,2
		c0.1,1,1.2,1.6,2,2C264.5,489.7,268.7,487.9,269.5,487.5z M280.5,494.5c0.7,1.2,0.9,2.3,1,3c0,0,0,0,0,2c0,2,0,2,0,2
		c0,0.9,0,0.9,0,1c0.2,1,1.3,1.6,2,2c0.7,0.4,2,1,4,1v-11 M287.5,516.5v-11c-1.9,0-3.2-0.5-4-1c-1-0.6-1.6-1.2-2-1
		c-0.5,0.3-0.1,1.7,0,2c0.2,0.9,0.7,1.6,1,2v9H287.5z"/>
</g>
<!--g name="Testis" id="1" fill="#ffe7ba">
	<path class="st0" d="M292.5,518.5c0.1,0.2,0.1,0.1,1,2c1.4,2.8,1.6,2.9,2,4c0.7,1.8,1.1,2.7,1,4c0,0.3-0.2,2.6-2,4
		c-0.3,0.2-1,0.8-2,1c-0.5,0.1-1.2,0.3-2,0c-0.9-0.3-1-0.8-2-1c-0.5-0.1-0.9,0-1,0c-1,0.2-1.3,0.8-2,1c-1,0.3-2.1-0.4-3-1
		c-0.6-0.4-1.5-1-2-2c-0.8-1.5-0.4-3,0-5c0.3-1.5,0.9-2.7,1-3c0.2-0.4,0.3-0.5,1-2c1-1.9,0.9-1.9,1-2
		C284.9,516.4,290.5,516.1,292.5,518.5z M281.5,529.5c0.1,0.7,0.3,1.6,1,2c0.6,0.3,1.2,0.2,2,0c0.5-0.1,1.3-0.3,2-1
		c0.6-0.6,0.8-1.3,1-2c0.2-0.9,0.6-2,0-3c-0.1-0.2-0.4-0.7-1-1c-0.7-0.3-1.3-0.2-2,0c-0.6,0.1-1.3,0.3-2,1c-0.8,0.8-0.9,1.6-1,2
		C281.4,527.9,281.3,528.6,281.5,529.5z M288.5,526.5c-0.3,0.8-0.1,1.5,0,2c0.2,1,0.7,1.7,1,2c0.1,0.1,0.4,0.6,1,1
		c0.8,0.6,1.3,1.1,2,1c1.1-0.1,1.7-1.4,1.9-1.8c0.4-0.8,0.4-1.5,0.4-1.8c0-0.6-0.1-1-0.3-1.4c-0.2-0.6-0.3-1.3-1-2
		c-0.8-0.8-1.7-1-2-1c-0.3,0-0.6-0.1-1,0C289.5,524.7,288.8,525.7,288.5,526.5z M298.5,531.5"/>
</g-->
	<!--g name="Spinal Cord" id="2" fill="#ffd591">
	<g>
		<path class="st0" d="M279.3,179.6c-0.2,0.1-0.4,0.2-0.5,0.4c-0.1,0.2-0.1,0.3-0.1,0.5c0,1,0,2,0,3c2.8,0.8,5.8,0.7,8.6-0.1
			c0.1,0,0.3-0.1,0.4-0.2c0.1-0.1,0.1-0.3,0.2-0.5c0.1-1.8-0.2-4.5-2.4-5C283.6,177.3,280.9,178.8,279.3,179.6z"/>
		<path class="st0" d="M276.4,180.2c-0.9,0.3-1.9,0.8-2.7,1.3c-0.3,0.2-0.7,0.4-0.9,0.8c-0.2,0.4-0.2,0.9,0.2,1.1
			c0.2,0.2,0.6,0.2,0.9,0.2c0.8,0.1,1.5,0.8,2.2,0.5c0.7-0.3,0.8-1.1,0.9-1.8c0.1-0.6,0.1-1.2-0.1-1.8c-0.5,0-0.9-0.3-1.2-0.7"/>
	</g>
		<g>
		<path class="st0" d="M279,186.9c-0.2,0.1-0.4,0.2-0.5,0.4c-0.1,0.2-0.1,0.3-0.1,0.5c0,1,0,2,0,3c2.8,0.8,5.8,0.7,8.6-0.1
			c0.1,0,0.3-0.1,0.4-0.2c0.1-0.1,0.1-0.3,0.2-0.5c0.1-1.8-0.2-4.5-2.4-5C283.4,184.6,280.7,186.1,279,186.9z"/>
			<path class="st0" d="M276.2,187.4c-0.9,0.3-1.9,0.8-2.7,1.3c-0.3,0.2-0.7,0.4-0.9,0.8s-0.2,0.9,0.2,1.1c0.2,0.2,0.6,0.2,0.9,0.2
			c0.8,0.1,1.5,0.8,2.2,0.5c0.7-0.3,0.8-1.1,0.9-1.8c0.1-0.6,0.1-1.2-0.1-1.8c-0.5,0-0.9-0.3-1.2-0.7"/>
	</g>
		<g>
		<path class="st0" d="M280.5,194.5c-0.2,0.1-0.4,0.2-0.5,0.4c-0.1,0.2-0.1,0.3-0.1,0.5c0,1,0,2,0,3c2.8,0.8,5.8,0.7,8.6-0.1
			c0.1,0,0.3-0.1,0.4-0.2c0.1-0.1,0.1-0.3,0.2-0.5c0.1-1.8-0.2-4.5-2.4-5C284.8,192.3,282.1,193.8,280.5,194.5z"/>
			<path class="st0" d="M277.6,195.1c-0.9,0.3-1.9,0.8-2.7,1.3c-0.3,0.2-0.7,0.4-0.9,0.8c-0.2,0.4-0.2,0.9,0.2,1.1
			c0.2,0.2,0.6,0.2,0.9,0.2c0.8,0.1,1.5,0.8,2.2,0.5c0.7-0.3,0.8-1.1,0.9-1.8c0.1-0.6,0.1-1.2-0.1-1.8c-0.5,0-0.9-0.3-1.2-0.7"/>
	</g>
		<g>
		<path class="st0" d="M280.8,202.2c-0.2,0.1-0.4,0.2-0.5,0.4c-0.1,0.2-0.1,0.3-0.1,0.5c0,1,0,2,0,3c2.8,0.8,5.8,0.7,8.6-0.1
			c0.1,0,0.3-0.1,0.4-0.2c0.1-0.1,0.1-0.3,0.2-0.5c0.1-1.8-0.2-4.5-2.4-5C285.1,199.9,282.4,201.4,280.8,202.2z"/>
			<path class="st0" d="M277.9,202.7c-0.9,0.3-1.9,0.8-2.7,1.3c-0.3,0.2-0.7,0.4-0.9,0.8c-0.2,0.4-0.2,0.9,0.2,1.1
			c0.2,0.2,0.6,0.2,0.9,0.2c0.8,0.1,1.5,0.8,2.2,0.5c0.7-0.3,0.8-1.1,0.9-1.8c0.1-0.6,0.1-1.2-0.1-1.8c-0.5,0-0.9-0.3-1.2-0.7"/>
	</g>
		<g>
		<path class="st0" d="M279.2,210c-0.2,0.1-0.4,0.2-0.5,0.4c-0.1,0.2-0.1,0.3-0.1,0.5c0,1,0,2,0,3c2.8,0.8,5.8,0.7,8.6-0.1
			c0.1,0,0.3-0.1,0.4-0.2c0.1-0.1,0.1-0.3,0.2-0.5c0.1-1.8-0.2-4.5-2.4-5C283.5,207.8,280.8,209.3,279.2,210z"/>
			<path class="st0" d="M276.3,210.6c-0.9,0.3-1.9,0.8-2.7,1.3c-0.3,0.2-0.7,0.4-0.9,0.8c-0.2,0.4-0.2,0.9,0.2,1.1
			c0.2,0.2,0.6,0.2,0.9,0.2c0.8,0.1,1.5,0.8,2.2,0.5c0.7-0.3,0.8-1.1,0.9-1.8c0.1-0.6,0.1-1.2-0.1-1.8c-0.5,0-0.9-0.3-1.2-0.7"/>
	</g>
		<g>
		<path class="st0" d="M277.3,218c-0.2,0.1-0.4,0.2-0.5,0.4c-0.1,0.2-0.1,0.3-0.1,0.5c0,1,0,2,0,3c2.8,0.8,5.8,0.7,8.6-0.1
			c0.1,0,0.3-0.1,0.4-0.2c0.1-0.1,0.1-0.3,0.2-0.5c0.1-1.8-0.2-4.5-2.4-5C281.6,215.7,278.9,217.2,277.3,218z"/>
			<path class="st0" d="M274.4,218.5c-0.9,0.3-1.9,0.8-2.7,1.3c-0.3,0.2-0.7,0.4-0.9,0.8c-0.2,0.4-0.2,0.9,0.2,1.1
			c0.2,0.2,0.6,0.2,0.9,0.2c0.8,0.1,1.5,0.8,2.2,0.5c0.7-0.3,0.8-1.1,0.9-1.8c0.1-0.6,0.1-1.2-0.1-1.8c-0.5,0-0.9-0.3-1.2-0.7"/>
	</g>
		<g>
		<path class="st0" d="M275.1,225.8c-0.2,0.1-0.4,0.2-0.5,0.4c-0.1,0.2-0.1,0.3-0.1,0.5c0,1,0,2,0,3c2.8,0.8,5.8,0.7,8.6-0.1
			c0.1,0,0.3-0.1,0.4-0.2c0.1-0.1,0.1-0.3,0.2-0.5c0.1-1.8-0.2-4.5-2.4-5C279.4,223.5,276.7,225,275.1,225.8z"/>
			<path class="st0" d="M272.2,226.3c-0.9,0.3-1.9,0.8-2.7,1.3c-0.3,0.2-0.7,0.4-0.9,0.8c-0.2,0.4-0.2,0.9,0.2,1.1
			c0.2,0.2,0.6,0.2,0.9,0.2c0.8,0.1,1.5,0.8,2.2,0.5c0.7-0.3,0.8-1.1,0.9-1.8c0.1-0.6,0.1-1.2-0.1-1.8c-0.5,0-0.9-0.3-1.2-0.7"/>
	</g>
		<g>
		<path class="st0" d="M273.8,233.6c-0.2,0.1-0.4,0.2-0.5,0.4c-0.1,0.2-0.1,0.3-0.1,0.5c0,1,0,2,0,3c2.8,0.8,5.8,0.7,8.6-0.1
			c0.1,0,0.3-0.1,0.4-0.2c0.1-0.1,0.1-0.3,0.2-0.5c0.1-1.8-0.2-4.5-2.4-5C278.1,231.3,275.4,232.8,273.8,233.6z"/>
			<path class="st0" d="M270.9,234.1c-0.9,0.3-1.9,0.8-2.7,1.3c-0.3,0.2-0.7,0.4-0.9,0.8c-0.2,0.4-0.2,0.9,0.2,1.1
			c0.2,0.2,0.6,0.2,0.9,0.2c0.8,0.1,1.5,0.8,2.2,0.5c0.7-0.3,0.8-1.1,0.9-1.8c0.1-0.6,0.1-1.2-0.1-1.8c-0.5,0-0.9-0.3-1.2-0.7"/>
	</g>
</g-->
<g name="Bone" id="3" fill="#d46b08">
	<path class="st7" d="M232.9,551.3c-2.6-5.2-4.9-8.2-4.7-12.8c0.1-1.4,0.2-4.2,2.3-5.8c2.2-1.7,5.1-1.3,5.8-1.2c3.7,0.7,3.8,3,7,3.5
		c2.6,0.3,3-1.3,8.2-2.3c3.3-0.7,5.4-1.2,7,0c2.3,1.6,2.3,5.2,2.3,8.2c0,1.6-0.2,4.5-2.3,10.5c-1.7,4.8-3.5,8-3.5,8.2
		c-8.7,16.7,4.3,107.2,3.5,113c0,0.2-0.2,1.2,0,2.3c0.2,1.9,1.2,3.1,2.3,4.7c3.8,5.2,4.3,5.7,4.7,7c0.3,1.3,0.9,3,0,4.7
		c-0.9,1.6-3,2.7-4.7,2.3c-1.7-0.3-1.7-2.1-3.5-2.3c-0.9-0.1-1.2,0.3-3.5,1.2c-1.5,0.6-2.9,1-4.7,1.2c-1.3,0.1-3.5,0.1-4.7-1.2
		c-0.8-1-0.6-2.3,0-5.8c0.3-2.3,0.6-4.7,1.2-7c2.1-8.2-0.8-29.8-1.2-32.6c-0.2-2.2-2.1-16.2-3.5-31.4c-1.6-18.5-2.6-27.8-2.3-32.6
		c0.2-5.9,0.8-11.3-1.2-18.6C235.6,556.7,232.9,551.3,232.9,551.3z"/>
</g>
<g name="Breast" id="breast" fill="#ffe7ba">
	<path class="st12" d="M324.6,296.5c-0.7,0.3-1.4,0.8-2,1.4c-1.4,1.2-2.8,2.4-4.2,3.7c-1.2,1.2-2.4,2.4-2.9,4
		c-0.7,2.1-0.2,4.5,0.6,6.6c0.4,1,0.8,2.1,1.6,2.8c0.9,0.8,2.1,1.1,3.2,1.3c3.9,0.9,7.7,1.8,11.6,2.7c2.7,0.6,5.8,1.2,7.9-0.6
		c0.9-0.8,1.5-1.9,2-3c1.3-2.7,2.3-5.6,1.8-8.6c-0.4-2.7-2-5.1-4-6.9C336.4,296.3,329.6,294.1,324.6,296.5z"/>
	<path class="st13" d="M332.4,310.3c-0.1,0.4-0.1,0.8,0.1,1.1c0.2,0.4,0.7,0.4,1.1,0.5c0.3,0,0.6,0,0.8-0.1c0.4-0.2,0.7-0.5,0.8-0.9
		c0.1-0.4,0.1-0.8-0.1-1.2c-0.2-0.6-1-0.5-1.6-0.5C332.8,309.1,332.5,309.5,332.4,310.3z"/>
</g>
<g name="Heart" id="1" fill="#ffe7ba">
	<g id="XMLID_2_">
		<g>
			<path class="st5" d="M318.7,281.1c0.3,1.8,0.5,3,0,4.3c-0.8,2.1-2.7,3-3.4,3.4c-1.9,0.9-3.5,0.9-11.1,0c-7.3-0.9-8.4-1.3-9.4-1.7
				c-3.2-1.3-5.5-3-6.9-4.3h-0.1c0.3-1-0.3-3.7,0.5-6.4c1.7-5.7,7.4-5.9,7.7-10.3c0.8,0.6,2.9-0.3,4.3-1.7c1.5-1.5,1-2.7,2.3-4.7
				c2.7,0.2,3.8,0.9,4.1,1.7c0.6,1.1-0.2,2.5,0.9,3.4c-0.3,0.4-0.5,0.9-0.9,1.7c-0.4,1.1-1,2.6-0.9,3.4c0.3,1.5,3.2,2.6,6.9,2.6
				l0.3-0.2c0.8,1.4,2.5,1.5,4,3.6C318.1,277.5,318.4,279.2,318.7,281.1z"/>
			<path class="st5" d="M312.7,271.7c0.1,0.3,0.2,0.5,0.3,0.7l-0.3,0.2c-3.7,0-6.5-1-6.9-2.6c-0.2-0.9,0.4-2.3,0.9-3.4
				c0.3-0.8,0.6-1.3,0.9-1.7c0.4,0.4,0.8,0.3,1.7,0.9c0.4,0.3,2.8,1.5,3.4,3.4C313.1,270.3,312.5,270.5,312.7,271.7z"/>
			<path class="st5" d="M302.6,259.7c-1.3,2.1-0.9,3.2-2.3,4.7c-1.4,1.5-3.5,2.3-4.3,1.7c0.1-0.7,0-1.4-0.3-2.1
				c0-0.3-0.1-0.6-0.2-0.9c-0.6-1.8-1.7-1.5-2.1-3c-0.7-2.5,2-5.4,2.6-6c1.4-1.5,1.7-0.9,5.1-3.4c2.3-1.7,2.9-2.5,4.3-2.6
				c1.3-0.1,2.9,0.5,3.4,1.7c0.9,1.9-1.3,4.5-2.6,6c-1.7,2.1-2.2,1.7-3.4,3.4C302.8,259.5,302.7,259.6,302.6,259.7z"/>
			<path class="st5" d="M295.7,264c0.2,0.7,0.3,1.4,0.3,2.1C295.6,265.8,295.9,265.1,295.7,264z"/>
			<path class="st5" d="M284.9,280.7l0.2,0.7c-0.2-0.3-2.7-5.2-2.7-11c0-2.5,0-6.1,2.6-8.6c1.7-1.6,5-3.1,7.7-1.7
				c1.5,0.8,2.7,2.2,3.2,3.9c0.1,1-0.3,1.7,0.3,2.1c-0.3,4.4-6,4.6-7.7,10.3c-0.9,2.7-0.3,5.4-0.5,6.4c-0.1,0.3-0.2,0.4-0.3,0.4
				C287,283.4,284.9,280.9,284.9,280.7z"/>
		</g>
		<g>
			<path class="st0" d="M295.7,264c0-0.3-0.1-0.6-0.2-0.9c-0.6-1.8-1.7-1.5-2.1-3c-0.7-2.5,2-5.4,2.6-6c1.4-1.5,1.7-0.9,5.1-3.4
				c2.3-1.7,2.9-2.5,4.3-2.6c1.3-0.1,2.9,0.5,3.4,1.7c0.9,1.9-1.3,4.5-2.6,6c-1.7,2.1-2.2,1.7-3.4,3.4c-0.1,0.2-0.2,0.3-0.3,0.4
				c-1.3,2.1-0.9,3.2-2.3,4.7c-1.4,1.5-3.5,2.3-4.3,1.7C295.6,265.8,295.9,265.1,295.7,264z"/>
			<path class="st0" d="M284.9,280.7L284.9,280.7c0.1,0.2,2.1,2.7,2.6,2.6c0.2,0,0.3-0.2,0.3-0.4c0.3-1-0.3-3.7,0.5-6.4
				c1.7-5.7,7.4-5.9,7.7-10.3c0.1-0.7,0-1.4-0.3-2.1c-0.5-1.6-1.7-3.2-3.2-3.9c-2.7-1.4-6,0.1-7.7,1.7c-2.6,2.5-2.6,6.1-2.6,8.6
				c0,5.7,2.6,10.6,2.7,11"/>
			<polyline class="st0" points="285,281.4 285,281.4 284.9,280.7 			"/>
			<path class="st0" d="M287.9,282.9c1.4,1.3,3.7,3,6.9,4.3c1,0.4,2.1,0.8,9.4,1.7c7.6,0.9,9.3,0.9,11.1,0c0.8-0.4,2.7-1.4,3.4-3.4
				c0.5-1.3,0.3-2.5,0-4.3c-0.3-2-0.6-3.6-1.7-5.1c-1.5-2.1-3.3-2.2-4-3.6c-0.1-0.2-0.2-0.4-0.3-0.7c-0.3-1.2,0.3-1.4,0-2.6
				c-0.6-2-3-3.2-3.4-3.4c-0.9-0.5-1.3-0.4-1.7-0.9c-1-0.9-0.3-2.3-0.9-3.4c-0.4-0.8-1.5-1.5-4.1-1.7c-0.1,0-0.1,0-0.2,0"/>
			<path class="st0" d="M307.6,264.9c-0.3,0.4-0.5,0.9-0.9,1.7c-0.4,1.1-1,2.6-0.9,3.4c0.3,1.5,3.2,2.6,6.9,2.6"/>
		</g>
	</g>
</g>
</svg>
