<?xml version="1.0" encoding="utf-8"?>
<!-- Generator: Adobe Illustrator 26.2.1, SVG Export Plug-In . SVG Version: 6.00 Build 0)  -->
<svg version="1.1" id="图层_1" xmlns="http://www.w3.org/2000/svg" xmlns:xlink="http://www.w3.org/1999/xlink" x="0px" y="0px"
	 viewBox="0 0 350 480" style="enable-background:new 0 0 350 480;" xml:space="preserve">
<style type="text/css">
	.st0{fill:#E6F7FF;}
	.st1{fill:#096DD9;}
	.st2{fill:#91D5FF;}
	.st3{fill:none;}
	.st4{fill:#BAE7FF;}
	.st5{fill:#1890FF;}
	.st6{fill:#40A9FF;}
</style>
<g id="body">
	<g id="XMLID_2_">
		<g>
			<path class="st0" d="M136.5,12.5c3.7-4.8,4.6-6.4,6.5-6.5c1.5-0.1,2.9,0.9,3,1c0.7,0.5,1.1,1.1,2,3c0.3,0.6,0.5,1,0.6,1.4
				c0.7,1.7,0.7,2.2,1.4,3.6c0.8,1.5,1.2,1.7,1.9,2.4c0.3,0.4,0.7,0.8,1.1,1.6c1.6,2.8,1.9,5.2,2,6c0.1,1.1-0.3,1.8,0,3
				c0.4,1.4,1.2,2.2,1.5,2.5c2.6,2.7,2.9,8.5,7,16c1.7,3.2,4,8.1,5,11c0.3,1,0.7,2,1,3c0.9,2.7,1,2.9,1,3c0.8,2.4,1.3,5.2,2,9
				c1.2,6.8,1.3,7.8,2,10c0.5,1.7,1.2,3.9,3,6c0.4,0.4,0.7,0.8,1.1,1.2c0.3,0.3,0.5,0.5,0.9,0.8c2.5,2.1,5,4.4,9,6
				c4.6,1.8,8.1,2,9,2c2.2,0.1,4.5,0.1,7-1s3.5-2.7,6-6c7.3-9.5,7-7,11-13c1.4-2,2.9-4.5,6-6c1.9-0.9,3.5-1,4-1c2.7,0,4.6,1.1,6,2
				c2.1,1.3,4,2.5,4,4c0,1.8-2.5,2.6-8,6c-5.1,3.1-7.6,4.8-9,7c-2.2,3.6-1,6.8-1,11c0,5.4-3,10.3-9,20c-7,11.3-12.4,16.8-19,29
				c-0.9,1.7-2.1,3.9-3,7c-1,3.4-1.5,6.9-1,17c0.3,6.2,0.6,11.9,2,20c0.4,2.5,0.6,3.1,3,14c4.4,20,4.7,21.6,5,24
				c0.7,5.4,0.8,9.9,1,19c0.1,4.2,0.2,9.8,0,17c-0.3,9.4-1,19-1,19c-0.7,9.5-1.1,11,0,14c0.5,1.5,0.9,1.9,9,11c0,0,3.3,3.7,10,12
				c1.8,2.2,2.9,3.7,4,6c1.7,3.8,1.9,7.1,2,9c0.4,7.8,0,12.6,0,18c-0.1,10.5,1.1,16.1,0,23c-0.5,3-0.9,5.2-2,8c-0.9,2.3-1.5,3-2,5
				c-0.2,0.9-0.8,3.8,0,7c1.2,4.8,5,7.5,7,9c3.8,2.8,4.7,1.6,12,5c5.7,2.7,5.7,3.7,10,5c3.4,1.1,7.5,1.8,9,2c3.3,0.5,5.3,0.7,8,2
				c0.6,0.3,2.4,1.2,4,3c0.7,0.7,2.6,2.8,2,4c-0.3,0.6-1.1,0.4-3,1c-2.6,0.9-2.4,1.8-4,2s-2-0.8-5-1c-1-0.1-1.8,0-2,0
				c-2,0.2-3.1,0.7-4,1c-1.8,0.5-2.9-0.2-8-2c0,0-3-1-6-2c-6.1-1.9-6.5-1.4-11-3c-2.5-0.9-4.6-1.9-7-3c-2.3-1.1-3.5-1.6-4-2
				c-2.8-2.1-3.5-4.7-6-6c-1-0.5-2-1-2-1c-1.6-0.8-1.7-0.8-2-1c-0.1-0.1-2.1-1.5-2-3c0.1-1.3,1.7-1.1,3-3c0.1-0.2,1.7-2.4,1-5
				c0-0.2-0.3-1-1-2c-1.4-1.9-3.5-2.6-5-3c-4.3-1.2-8.3-1.1-10-1c-6.3,0.2-9.5,0.3-13,1c-7.5,1.4-6.9,2.8-14,4
				c-5.4,0.9-7.1,0.3-11,2c-3.7,1.6-5.9,3.8-7,5c-1.3,1.5-3.4,3.7-4,7c-0.3,1.3-0.1,1.9,0,5c0,0.2,0,2.8,0,8c0,13.2-1.1,14.9,0,20
				c1.3,5.9,4.2,10,5,11c4.2,5.7,9.6,8.1,16,11c2,0.9,7.5,3.2,16,5c9.6,2,17,2,25,2c8.7,0,16.6,0,27-2c2.4-0.5,13.7-2.7,28-9
				c10.7-4.8,7.6-4.9,27-15c0,0,17.3-9,32-13c1.3-0.4,2-0.4,4-1c2.2-0.7,3.3-1.3,5-1c0.9,0.2,2,0.6,2,1s-1,0.7-2,1
				c-1.7,0.5-3.3,1.4-5,2c-4.4,1.5-13.4,4.7-17,6c-6.5,2.4-9.7,3.6-14,6c-3.4,1.9-3.9,2.6-9,6c-1.4,0.9-7.9,5.2-15,9
				c-0.7,0.4-9,4.8-18,8c-17.9,6.5-34.4,6.8-44,7c-8.8,0.1-21.8,0.3-38-4c-13.6-3.6-21.4-5.6-28-13c-8.9-9.9-10.9-23.9-11-29
				c-0.1-5.7,0-8,0-8c0.2-5.4,0.6-6.5,0-9c-0.7-2.7-2.1-4.5-4-7c-0.8-1-3-3.8-7-7c-2.8-2.3-7.3-5.8-14-8c-3.7-1.2-6.4-1.5-11-2
				c-6.5-0.7-13.6-1.4-18,2c-0.6,0.5-2.3,1.8-3,4c-0.3,0.9-0.9,2.8,0,4c1.1,1.5,3.4,0.3,5,2c0.7,0.8,1.2,2,1,3c-0.1,1-0.7,1.1-2,3
				c-1.5,2.1-1.1,2.4-2,3c-1.1,0.8-2.5,0.9-4,1c-1,0.1-1.6,0-2,0c-2.5,0-4.2,2.3-6,4c-4,3.8-6.1,2.6-15,8c-0.5,0.3-1.1,0.7-2,1
				c-2.4,0.8-4,0.3-8,0c-3.2-0.3-4.7-0.4-6,0c-1.4,0.4-2.6,1.3-5,3c-2,1.5-3.1,2.2-4,3c-1.6,1.3-2.1,2-3,2c-1.3,0-1.7-1.1-3-1
				c-0.9,0.1-1,0.7-2,1c-1.2,0.4-2.9,0.1-4-1c-1.5-1.5-1.1-3.6-1-4c0.3-1.4,1.3-2.3,2-3c3.5-3.1,5.2-3.3,9-6c1.6-1.2,3.5-2.7,6-4
				c0.6-0.3,1.6-0.8,3-1s2.5-0.1,3,0c0.9,0.1,4.9,0.6,8,0c1.7-0.4,3.5-1.6,7-4c3.4-2.3,5.1-3.5,6-5c1.3-2.1,1.4-4.2,1-9
				c-0.7-9-2-14-2-14c-2.2-8.7-3.2-8.7-6-18c-2.2-7.5-3.4-13.5-4-18c-0.6-4-1-7-1-11c0-3.2,0-9.1,2-15c2.2-6.4,5.8-10.3,13-18
				c6.3-6.7,9.2-8.2,12-14c1.8-3.7,2.4-6.7,3-10c1.7-9.2,0.3-12.8,0-28c-0.2-10.3,0.5-10,0-18c-0.4-6-0.9-8.6-1-16
				c-0.2-7.9,0.3-11.1,1-14c0.9-3.5,1.5-3.8,2-7c0.8-5-0.2-6.8,0-12c0.2-4.5,1-4,2-11c0.9-6.1,0.2-5.6,1-15c0.7-7.4,1.3-9.5,0-13
				c-1-2.8-2.4-4-4-6c-4.1-5.1-5.4-10.8-8-22c-1.8-7.9-1.7-10.4-4-18c-0.2-0.5-1.2-3.8-3-8c-2.1-4.9-3.2-7.3-5-9s-3.2-2-4-4
				c-1-2.5-0.1-4.8,0-5c0.5-1.3,1.7-2.2,4-4c2.6-2,3.9-3,5-3c3.4,0,5.8,4.5,6,5c0.3,0.6,1.2,2.6,1,5c-0.2,2.2-1.1,2.5-1,4
				c0.1,1.6,1.3,2.5,4,5c3.3,3.1,1.9,2.2,5,5c4.6,4.2,6.8,6.3,9,7c0.9,0.3,4.8,1.5,9,0c3.8-1.4,5.7-4.7,6.8-6.6
				c0.1-0.1,0.2-0.3,0.2-0.4c1.1-2,1.7-3.9,2-5c0.5-1.8,0.7-3,1-5c0.3-2.1,0.9-5.7,2-10c0.7-2.7,1.1-4.5,2-7
				c0.3-0.9,0.6-1.5,0.8-2.2c0.1-0.2,0.1-0.5,0.2-0.8c0.5-2.1,0.5-2.9,1-5c0.3-1.3,0.7-2.1,1-3c1.3-4,4.2-8.1,7-13
				c5-8.9,3.6-10.2,7-13c1.9-1.6,3.9-2.4,5-5c1-2.3,0.2-3.3,1-6c0.3-0.8,0.5-1.3,1-2C133.2,16.6,134.3,15.3,136.5,12.5z"/>
			<path class="st0" d="M100.5,94.5c-1.1-1-2.6-2.6-4-5c-1.1-1.8-3.3-5.8-3-11c0.1-1.5,0.3-4.3,2-7c3.7-5.8,11.6-6,12.9-6h0.1"/>
			<path class="st0" d="M170.5,63.5c1.3,0.1,4.7,0.5,8,3c0.7,0.5,3.5,2.8,5,7c0.5,1.4,1.6,5.4,0,10c-1.1,3.1-3,5-4,6"/>
			<path class="st0" d="M136.5,12.5c-4.2-3.2-10.6-7.2-19-10c-5.3-1.8-10.1-2.6-14-3"/>
			<path class="st0" d="M132.5,17.5c-4.2-2.7-10.6-6-19-8c-12.1-2.8-22.4-1.3-28,0"/>
			<path class="st0" d="M130.5,21.5c-5.8-0.4-12.2-0.4-19,0c-19.2,1.3-35.2,6.1-47,11"/>
			<path class="st0" d="M130.5,24.5c-6.2,0.2-14.6,1.1-24,4c-8.4,2.6-15.1,6-20,9"/>
			<path class="st0" d="M155.5,25.5c2.9,1.5,5.9,3.1,9,5c9.4,5.8,17,12.1,23,18"/>
			<path class="st0" d="M154,21c2.3-0.1,4.6-0.1,7,0c20,0.9,36.1,9.3,47,17"/>
			<path class="st0" d="M151.5,17.5c0.1,0,0.2-0.1,0.4-0.1c4.2-1.3,9.5-2.5,15.6-2.9c12.1-0.8,21.9,1.8,28,4"/>
			<path class="st0" d="M148.5,11.5c0,0,0.1,0,0.1-0.1c5.9-2.1,13.6-4.3,22.9-4.9c4.8-0.4,9.1-0.3,13,0"/>
		</g>
	</g>
</g>
<g id="_x34_1">
	<g id="XMLID_1_">
		<g>
			<path class="st1" d="M150.8,87c-0.2,0.3-0.4,0.6-0.7,1c0,0-0.1,0-0.1,0.1c-1,0.6-2.2-0.3-3.5,0.5c-0.5,0.3-0.3,0.5-1,1
				c-1.2,0.9-2.6,1-3,1c-1.1,0-1.9-0.3-2.5-0.5c-2.2-0.8-2.7-2.1-4-2c-0.9,0.1-1.6,0.6-2,1l-0.5,0.1c-0.2-0.2-0.4-0.4-0.7-0.6
				c-1.5-1.1-1.2-2-3.1-4c-0.5-0.5-0.8-0.8-1-1c-1.1-0.8-2-0.6-4.2-1c-1.3-0.3-2.2-0.4-3.1-1c-0.7-0.4-1.6-0.9-2.1-2
				c-0.1-0.2-0.7-1.7,0-3c0.3-0.6,0.9-1,2.1-2c0.8-0.6,1-0.7,1-1c0-0.1,0-0.2-0.1-0.3h0.3c5,1.9,9.9,1.4,13.1-1.4
				c0.5,0.4,0.9,0.6,1,0.6c1.4,0.6,2.7,0.4,4.6,0.1c0.8-0.1,1.4-0.2,2-0.4c2.7,2.8,6.9,2.7,8.8,2.7c3.2,0,5.8-0.9,7.6-1.8
				c-0.1,0.1-0.1,0.2-0.1,0.3c0,0.3,0.2,0.4,1,1c1.1,1,1.7,1.4,2,2c0.7,1.3,0.1,2.8,0,3c-0.5,1.1-1.3,1.6-2,2c-0.9,0.6-1.7,0.7-3,1
				c-2.1,0.4-2.9,0.2-4,1c-0.3,0.2-0.5,0.5-1,1C151.5,85.6,151.1,86.3,150.8,87z"/>
			<path class="st1" d="M140.9,28l-0.8,15c-0.5-0.1-1.2-0.5-2.1-0.9c-1.2-0.6-2-1.1-3-2c-0.6-0.5-1.4-1.3-2.1-2.6
				c-0.2-0.3-0.3-0.6-0.4-0.9c-0.4-1.1-0.4-2-0.5-3.5c-0.1-1.6-0.1-2.6,0.5-3.5c0.4-0.7,1.1-1.2,1.5-1.5c0.3-0.2,1-0.7,2-1
				c0.9-0.3,2.9-0.9,4,0C140.5,27.4,140.6,27.9,140.9,28z"/>
			<path class="st1" d="M147.4,61.4c1.2,2.3,0.2,5.3-0.2,6.4c-0.3,0.9-0.9,2.6-2.4,3.7c-0.5,0.4-1,0.6-1.5,0.8
				c-0.1-0.1-0.2-0.2-0.3-0.3c-0.6-0.7-1.3-1.7-2-4c-0.4-1.4-0.7-2.7-0.9-4c-0.3-2-0.3-3.9-0.2-5.9c0-1.3,0.1-2.6,0.1-4.1
				c0-0.5,0-1.1,0-1.7c2.5,0.1,3.7-0.6,4.2,0.1c0.2,0.3,0.1,0.6-0.1,2.5c-0.1,1.4-0.1,2.1-0.1,2.5C144.4,59.5,146.3,59.4,147.4,61.4
				z"/>
			<path class="st1" d="M140.1,42.9l0.8-15h0.1c0.4,0,0.6-0.6,1-1s0.8-0.5,0.9-0.5s0.4-0.1,0.9-0.2c0.2,0,0.7-0.1,1.6,0.1
				c0.3,0.1,1,0.2,1.7,0.6c1.1,0.6,1.7,1.6,2,2c0.7,1.2,0.9,2.3,1,3c0.3,2.3-0.3,4-0.5,4.5c-0.1,0.2-0.2,0.5-0.4,0.8
				c-0.3,0.5-0.6,1.1-1.1,1.7c-0.8,0.8-1.5,1.2-3,2c-0.8,0.4-0.8,0.4-2,1c-1.5,0.8-1.6,0.9-2,1C140.7,43.1,140.4,43,140.1,42.9z"/>
			<path class="st1" d="M137.2,57.3c-0.3-4.4-0.1-4.9,0.2-5.1c0.4-0.4,0.8-0.1,2.3,0.1c0.1,0,0.3,0,0.4,0c0,0.6,0,1.2,0,1.7
				c0,1.4-0.1,2.8-0.1,4.1l-2.7-0.1C137.2,57.8,137.2,57.6,137.2,57.3z"/>
			<path class="st1" d="M139.6,52.3c-1.5-0.1-1.9-0.4-2.3-0.1c-0.2,0.2-0.4,0.6-0.2,5.1c0,0.3,0,0.5,0,0.7s0,0.4-0.1,0.5
				c-0.3,1.3-1.4,1.3-2.4,2.5c-0.8,0.9-1,2-1.3,3.8c-0.3,1.5-0.4,2.6-0.1,3.8c0.4,1.6,1.5,2.7,2.3,3.3c-3.2,2.7-8.1,3.3-13.1,1.4
				h-0.3c-0.4-0.5-1.8-0.7-3.1-1.8c-1.5-1.3-1.8-3.3-2.1-5c-0.2-1.1-0.1-2.1,0-4c0.3-4.2,0.9-7.3,1-8c0.4-1.8,0.8-3.1,1-4
				c0.5-1.6,0.7-2.4,1.1-3c1-1.9,2.5-3,5.2-5c2.9-2.1,3.4-1.8,4.2-3c0.4-0.6,1-1.7,2.1-2c0.4-0.1,0.8-0.1,1,0l0.2-0.1
				c0.7,1.3,1.5,2.1,2.1,2.6c1,0.9,1.8,1.4,3,2c0.9,0.5,1.6,0.8,2.1,0.9v0.5h0.1c0.1,3.5,0.1,6.5,0,8.8
				C139.9,52.3,139.8,52.3,139.6,52.3z"/>
			<path class="st1" d="M136.9,70.6c2.5-3,3.1-6.6,3.1-6.6h0.1c0.2,1.3,0.5,2.6,0.9,4c0.7,2.3,1.4,3.3,2,4c0.1,0.1,0.2,0.2,0.3,0.3
				c-0.6,0.2-1.2,0.3-2,0.4c-2,0.3-3.2,0.5-4.6-0.1c-0.1,0-0.5-0.2-1-0.6C136.1,71.5,136.5,71.1,136.9,70.6z"/>
			<path class="st1" d="M137.1,58.5c0.1-0.2,0.1-0.3,0.1-0.5l2.7,0.1c0,2,0,3.9,0.2,5.9H140c0,0-0.6,3.6-3.1,6.6
				c-0.4,0.5-0.8,0.9-1.3,1.3c-0.8-0.6-1.9-1.7-2.3-3.3c-0.3-1.2-0.2-2.3,0.1-3.8c0.3-1.8,0.5-2.8,1.3-3.8
				C135.7,59.9,136.8,59.8,137.1,58.5z"/>
			<path class="st1" d="M148,39c0.5-0.6,0.9-1.2,1.1-1.7l0.4,0.2c0.3-0.1,0.6-0.1,1,0c1.1,0.3,1.6,1.4,2,2c0.8,1.2,1.2,0.9,4,3
				c2.6,2,4.1,3.1,5,5c0.3,0.6,0.5,1.4,1,3c0.3,0.9,0.6,2.2,1,4c0.1,0.7,0.8,3.8,1,8c0.1,1.9,0.2,2.9,0,4c-0.3,1.7-0.5,3.7-2,5
				c-1.1,1-2.5,1.2-2.9,1.7c-1.8,0.9-4.4,1.8-7.6,1.8c-1.9,0-6,0-8.8-2.7c0.5-0.2,1-0.4,1.5-0.8c1.5-1.1,2.1-2.8,2.4-3.7
				c0.4-1.1,1.4-4,0.2-6.4c-1.1-2.1-3-1.9-3.3-3.9c-0.1-0.4,0-1.1,0.1-2.5c0.1-2,0.3-2.2,0.1-2.5c-0.5-0.7-1.7,0-4.2-0.1
				c0-2.3,0.1-5.3,0-8.8h0.1v-0.5c0.3,0.1,0.6,0.1,0.9,0.1c0.4-0.1,0.5-0.2,2-1c1.2-0.6,1.2-0.6,2-1C146.5,40.2,147.3,39.8,148,39z"
				/>
			<path class="st1" d="M150.1,87.9c0.3-0.3,0.5-0.6,0.7-1C150.6,87.5,150.3,87.8,150.1,87.9z"/>
		</g>
		<g>
			<path class="st1" d="M140,43c0,0.2,0,0.3,0,0.5c0.1,3.5,0.1,6.5,0,8.8c0,0.6,0,1.2,0,1.7c0,1.4-0.1,2.8-0.1,4.1
				c0,2,0,3.9,0.2,5.9c0.2,1.3,0.5,2.6,0.9,4c0.7,2.3,1.4,3.3,2,4c0.1,0.1,0.2,0.2,0.3,0.3c2.7,2.8,6.9,2.7,8.8,2.7
				c3.2,0,5.8-0.9,7.6-1.8c0.1-0.1,0.3-0.1,0.4-0.2"/>
			<path class="st1" d="M140.9,28h0.1c0.4,0,0.6-0.6,1-1s0.8-0.5,0.9-0.5s0.4-0.1,0.9-0.2c0.2,0,0.7-0.1,1.6,0.1
				c0.3,0.1,1,0.2,1.7,0.6c1.1,0.6,1.7,1.6,2,2c0.7,1.2,0.9,2.3,1,3c0.3,2.3-0.3,4-0.5,4.5c-0.1,0.2-0.2,0.5-0.4,0.8
				c-0.3,0.5-0.6,1.1-1.1,1.7c-0.8,0.8-1.5,1.2-3,2c-0.8,0.4-0.8,0.4-2,1c-1.5,0.8-1.6,0.9-2,1c-0.3,0.1-0.6,0-0.9-0.1
				c-0.5-0.1-1.2-0.5-2.1-0.9c-1.2-0.6-2-1.1-3-2c-0.6-0.5-1.4-1.3-2.1-2.6c-0.2-0.3-0.3-0.6-0.4-0.9c-0.4-1.1-0.4-2-0.5-3.5
				c-0.1-1.6-0.1-2.6,0.5-3.5c0.4-0.7,1.1-1.2,1.5-1.5c0.3-0.2,1-0.7,2-1c0.9-0.3,2.9-0.9,4,0C140.5,27.4,140.6,27.9,140.9,28z"/>
			<polyline class="st1" points="140.9,27.5 140.9,28 140.1,42.9 140.1,43.5 			"/>
			<path class="st1" d="M137.2,58c0-0.2,0-0.4,0-0.7c-0.3-4.4-0.1-4.9,0.2-5.1c0.4-0.4,0.8-0.1,2.3,0.1c0.1,0,0.3,0,0.4,0
				c2.5,0.1,3.7-0.6,4.2,0.1c0.2,0.3,0.1,0.6-0.1,2.5c-0.1,1.4-0.1,2.1-0.1,2.5c0.3,2,2.3,1.9,3.3,3.9c1.2,2.3,0.2,5.3-0.2,6.4
				c-0.3,0.9-0.9,2.6-2.4,3.7c-0.5,0.4-1,0.6-1.5,0.8c-0.6,0.2-1.2,0.3-2,0.4c-2,0.3-3.2,0.5-4.6-0.1c-0.1,0-0.5-0.2-1-0.6
				c-0.8-0.6-1.9-1.7-2.3-3.3c-0.3-1.2-0.2-2.3,0.1-3.8c0.3-1.8,0.5-2.8,1.3-3.8c0.9-1.2,2-1.2,2.4-2.5
				C137.2,58.4,137.2,58.2,137.2,58z"/>
			<path class="st1" d="M132.8,37.5c-0.3-0.1-0.6-0.1-1,0c-1.1,0.3-1.7,1.4-2.1,2c-0.8,1.2-1.2,0.9-4.2,3c-2.8,2-4.2,3.1-5.2,5
				c-0.3,0.6-0.6,1.4-1.1,3c-0.3,0.9-0.7,2.2-1,4c-0.2,0.7-0.8,3.8-1,8c-0.1,1.9-0.2,2.9,0,4c0.3,1.7,0.6,3.7,2.1,5
				c1.2,1.1,2.7,1.3,3.1,1.8c0.1,0.1,0.1,0.2,0.1,0.3c0,0.3-0.3,0.4-1,1c-1.2,1-1.8,1.4-2.1,2c-0.7,1.3-0.1,2.8,0,3
				c0.5,1.1,1.4,1.6,2.1,2c1,0.6,1.8,0.7,3.1,1c2.2,0.4,3.1,0.2,4.2,1c0.3,0.2,0.5,0.5,1,1c1.9,2,1.7,2.9,3.1,4
				c0.3,0.2,0.5,0.4,0.7,0.6c0.1,0.1,0.2,0.3,0.3,0.4c0.4,0.9,0.1,1.8,0,2c-0.4,1.2-0.8,5.6-1,16"/>
			<path class="st1" d="M149.5,37.5c0.3-0.1,0.6-0.1,1,0c1.1,0.3,1.6,1.4,2,2c0.8,1.2,1.2,0.9,4,3c2.6,2,4.1,3.1,5,5
				c0.3,0.6,0.5,1.4,1,3c0.3,0.9,0.6,2.2,1,4c0.1,0.7,0.8,3.8,1,8c0.1,1.9,0.2,2.9,0,4c-0.3,1.7-0.5,3.7-2,5c-1.1,1-2.5,1.2-2.9,1.7
				c-0.1,0.1-0.1,0.2-0.1,0.3c0,0.3,0.2,0.4,1,1c1.1,1,1.7,1.4,2,2c0.7,1.3,0.1,2.8,0,3c-0.5,1.1-1.3,1.6-2,2c-0.9,0.6-1.7,0.7-3,1
				c-2.1,0.4-2.9,0.2-4,1c-0.3,0.2-0.5,0.5-1,1c-1,1.1-1.4,1.8-1.7,2.5c-0.2,0.3-0.4,0.6-0.7,1c-0.2,0.2-0.4,0.4-0.6,0.6
				c-0.5,0.4-0.8,0.5-1,1c-0.4,0.9-0.1,1.8,0,2c0.4,1.2,0.8,5.6,1,16"/>
			<path class="st1" d="M140,64c0,0-0.6,3.6-3.1,6.6c-0.4,0.5-0.8,0.9-1.3,1.3c-3.2,2.7-8.1,3.3-13.1,1.4"/>
			<path class="st1" d="M134,89c0.4-0.4,1.1-0.9,2-1c1.3-0.1,1.8,1.2,4,2c0.6,0.2,1.4,0.5,2.5,0.5c0.4,0,1.8-0.1,3-1
				c0.7-0.5,0.5-0.7,1-1c1.3-0.8,2.5,0.1,3.5-0.5c0,0,0.1,0,0.1-0.1c0.2-0.2,0.5-0.5,0.7-1c0.1-0.3,0.2-0.6,0.2-1"/>
		</g>
	</g>
</g>
<g id="_x34_">
	<g id="XMLID_3_">
		<g>
			<path class="st2" d="M146.5,130.5c0.4-0.7,1.1-1.8,2-3c1.3-1.7,2-2.6,3-3c1.7-0.7,3.5,0.2,5,1c2.7,1.4,4.3,3.2,6,5
				c3.8,4.2,5.7,6.3,7,8c1.8,2.5,4,5.5,6,10c1.6,3.7,2.2,6.5,3,10c2,9.1,1.3,13.5,1,15c-0.9,4.5-2.3,5.6-3,6c-1.6,0.9-3.3,0.6-6,0
				c-7.9-1.8-11.8-2.7-16-5c-6.1-3.4-6.8-5.3-7-6c-0.2-0.9-0.1-1.3,0-5c0-2,0-4,0-6c0-4,0-8,0-12h-5c0-0.3,0-0.7,0-1v-2v-13v-5h4
				C146.5,126.5,146.5,128.5,146.5,130.5z"/>
			<path class="st2" d="M143.5,161.5c0.3,2.4,0.8,5.5-1,8c-1.1,1.5-2.4,1.9-5,3c-7.2,3-5.5,3.1-13,6c-7.2,2.8-8.8,2.7-10,2
				c-1.6-0.9-2.2-2.6-3-5c-1.4-4.2-1.2-8-1-10c0.2-1.4,0.5-3.4,4-12c2.7-6.7,4.1-10.1,6-13c2.4-3.7,2.6-2.9,6-8c2.2-3.3,2.9-4.8,5-6
				c0.9-0.5,3.8-2.2,7-1c2.6,1,3.7,3.4,4,4v13v2c0,0.3,0,0.7,0,1C142.5,152.5,143,157.8,143.5,161.5z"/>
		</g>
		<g>
			<polyline class="st2" points="142.5,142.5 142.5,129.5 142.5,124.5 			"/>
			<line class="st3" x1="142.5" y1="124.5" x2="146.5" y2="124.5"/>
			<path class="st2" d="M146.5,124.5c0,2,0,4,0,6c0,4,0,8,0,12"/>
			<line class="st3" x1="142.5" y1="145.5" x2="147.5" y2="145.5"/>
			<path class="st2" d="M146.5,130.5c0.4-0.7,1.1-1.8,2-3c1.3-1.7,2-2.6,3-3c1.7-0.7,3.5,0.2,5,1c2.7,1.4,4.3,3.2,6,5
				c3.8,4.2,5.7,6.3,7,8c1.8,2.5,4,5.5,6,10c1.6,3.7,2.2,6.5,3,10c2,9.1,1.3,13.5,1,15c-0.9,4.5-2.3,5.6-3,6c-1.6,0.9-3.3,0.6-6,0
				c-7.9-1.8-11.8-2.7-16-5c-6.1-3.4-6.8-5.3-7-6c-0.2-0.9-0.1-1.3,0-5c0-2,0-4,0-6c0-4,0-8,0-12c0-0.3,0-0.7,0-1"/>
			<path class="st2" d="M142.5,129.5c-0.3-0.6-1.4-3-4-4c-3.2-1.2-6.1,0.5-7,1c-2.1,1.3-2.8,2.7-5,6c-3.4,5.1-3.6,4.3-6,8
				c-1.9,2.9-3.3,6.3-6,13c-3.5,8.6-3.8,10.6-4,12c-0.2,2-0.4,5.8,1,10c0.8,2.4,1.4,4.1,3,5c1.2,0.7,2.8,0.8,10-2
				c7.5-2.9,5.8-3,13-6c2.6-1.1,3.9-1.5,5-3c1.8-2.5,1.3-5.6,1-8c-0.5-3.7-1-9-1-16c0-0.3,0-0.7,0-1"/>
		</g>
	</g>
</g>
<g id="_x31_">
	<g id="XMLID_6_">
		<g>
			<polygon class="st4" points="151,204.9 146.9,205.4 148.3,168.9 148.3,168.9 152.4,168.9 			"/>
		</g>
		<g>
			<polyline class="st4" points="148.3,167.8 148.3,168.9 146.9,205.4 			"/>
			<line class="st3" x1="146.9" y1="205.4" x2="151" y2="204.9"/>
			<line class="st3" x1="151" y1="204.9" x2="152.4" y2="168.9"/>
			<line class="st3" x1="152.4" y1="168.9" x2="148.3" y2="168.9"/>
		</g>
	</g>
	<path class="st4" d="M152.2,168.6c0.1-1.3-0.2-2.6-1.1-3.7c-1-1.1-2.7-1.8-4.5-1.6c-1.2,0.1-2.2,0.7-2.9,1.4
		c-0.7,0.7-1.1,1.5-1.3,2.4c-0.3,1.3-0.3,2.7,0,4"/>
	<path class="st4" d="M148.1,168.9c0.2-0.2,0.1-0.5-0.1-0.7s-0.6-0.3-1-0.4c-1-0.1-2,0.2-2.4,0.8c-0.2,0.3-0.3,0.7-0.3,1.1
		c0,1.1,0.4,2.2,1.2,3.2c-1.4-0.1-3,0.5-4.1,0c-0.7-0.3-0.9-1-1-1.6c-0.2-1.5-0.2-3,0.7-4.4c0.3-0.4,0.6-0.8,1.1-1.1
		c0.9-0.6,2.2-0.8,3.4-0.9c1.4-0.2,3-0.3,4.3,0.2c1,0.4,1.7,1.1,2,1.9s0.3,1.6,0.3,2.4"/>
</g>
<g id="_x31_1">
	<g id="XMLID_4_">
		<g>
			<path class="st5" d="M139.3,171.6c0.3-0.1,4.3-1.6,5.3-1.1c0.1,0.1,0.1,0.1,1,1c0,0,1,1.1,2,2c1.1,1,1.5,0.7,4,2
				c1.4,0.7,2.1,1.1,3,2c0.4,0.4,0.7,0.7,0.9,1.1c0.6,0.8,0.9,1.5,1.1,1.9c0.6,1.3,0.7,2.3,1,4c0.6,4.2,1,6.3,1,7
				c0.1,3.1,0.2,4.9-1,6c-0.4,0.4-1,0.5-3,1c-0.7,0.2-3.9,0.9-8,0c-1.6-0.3-4.3-0.9-7-3c-1.5-1.1-2.5-2.5-3-3c-0.6-0.8-1.4-1.7-2-3
				c-0.5-1-1.3-3-1-6l-0.1-0.5c0.8-0.1,1.6-1,2.6-2c0.4-0.4,1.3-1.4,2-3c0.8-1.8,1-3.4,1-4c0-0.1,0-0.5,0-1c0-0.8,0.1-0.9,0-1
				c0,0-0.1-0.1-0.2-0.1L139.3,171.6C139.2,171.6,139.2,171.6,139.3,171.6z"/>
			<path class="st5" d="M155.5,176.5c0,0.7,0,1.3,0,2l-0.1,0.1c-0.2-0.4-0.6-0.7-0.9-1.1c-0.9-0.9-1.6-1.3-3-2c-2.5-1.3-2.9-1-4-2
				c0.3-0.3,0.7-0.7,1-1s0.7-0.7,1-1c0.2-0.2,0.9-0.9,2-1c1.7-0.2,2.9,0.9,3,1c1.2,1.2,1,2.8,1,3c0,0.3,0,0.7,0,1
				S155.5,176.2,155.5,176.5z"/>
			<path class="st5" d="M136,173c1.8-0.9,2.5-1.1,2.8-1.1c0.1,0,0.2,0,0.2,0.1c0.1,0.1,0,0.2,0,1c0,0.5,0,0.9,0,1c0,0.6-0.2,2.2-1,4
				c-0.7,1.6-1.6,2.6-2,3c-1,1-1.8,1.9-2.6,2c-0.1,0-0.3,0-0.4,0c-1.3-0.2-1.9-2.8-2-4c0-0.1,0-0.5,0-1c0.1-0.8,0.1-2.1,1-3
				c0.3-0.3,0.3-0.2,2-1C135,173.5,135,173.5,136,173z"/>
		</g>
		<g>
			<path class="st5" d="M138.8,171.9c-0.3,0-1,0.2-2.8,1.1c-1,0.5-1,0.5-2,1c-1.7,0.8-1.7,0.7-2,1c-0.9,0.9-0.9,2.2-1,3
				c0,0.5,0,0.9,0,1c0.1,1.2,0.7,3.8,2,4c0.1,0,0.3,0,0.4,0c0.8-0.1,1.6-1,2.6-2c0.4-0.4,1.3-1.4,2-3c0.8-1.8,1-3.4,1-4
				c0-0.1,0-0.5,0-1c0-0.8,0.1-0.9,0-1C139,172,138.9,171.9,138.8,171.9z"/>
			<path class="st5" d="M139.2,171.6L139.2,171.6c0.1,0,0.1,0,0.3-0.1"/>
			<path class="st5" d="M133.5,183.5c-0.3,3,0.5,5,1,6c0.6,1.3,1.4,2.2,2,3c0.5,0.5,1.5,1.9,3,3c2.7,2.1,5.4,2.7,7,3
				c4.1,0.9,7.3,0.2,8,0c2-0.5,2.6-0.6,3-1c1.2-1.1,1.1-2.9,1-6c0-0.7-0.4-2.8-1-7c-0.3-1.7-0.4-2.7-1-4c-0.2-0.5-0.5-1.1-1.1-1.9
				c-0.2-0.4-0.6-0.7-0.9-1.1c-0.9-0.9-1.6-1.3-3-2c-2.5-1.3-2.9-1-4-2c-1-0.9-2-2-2-2c-0.9-0.9-0.9-0.9-1-1c-1-0.5-4.9,0.9-5.3,1.1
				"/>
			<path class="st5" d="M155.5,178.5c0-0.7,0-1.3,0-2c0-0.3,0-0.7,0-1s0-0.7,0-1"/>
			<path class="st5" d="M147.5,173.5c0.3-0.3,0.7-0.7,1-1s0.7-0.7,1-1"/>
			<path class="st5" d="M149.5,171.5c0.2-0.2,0.9-0.9,2-1c1.7-0.2,2.9,0.9,3,1c1.2,1.2,1,2.8,1,3"/>
		</g>
	</g>
</g>
<g id="female">
	<path id="ovary" class="st4" d="M102.6,339.2c-0.3-0.1-1.4-0.6-1.9-1.7c-0.6-1.3-0.2-2.4,0-2.9c0.5-1.3,1.5-2,1.9-2.3
		c0.6-0.4,2-1.4,3.9-1.2c1.8,0.2,2.9,1.4,3.2,1.7c0.8,0.9,1,1.7,1.3,2.9s0.5,2.1,0,2.9c-0.4,0.6-0.9,1-1.3,1.2"/>
	<path id="输卵管" class="st4" d="M100,342.1c0-0.8,0.5-1.5,0.6-1.7c0.4-0.6,1-1,1.3-1.2c0.1-0.1,0.6-0.4,1.3-0.6
		c0.2-0.1,1.1-0.3,2.3-0.3c1.1,0,1.9,0.3,2.6,0.6c0.8,0.3,1.3,0.5,1.6,0.9c0.2,0.2,0.2,0.3,0.6,1.2c0.5,0.9,0.5,0.8,0.6,1.2
		c0.1,0.2,0.3,1,0,1.7c-0.1,0.2-0.3,0.6-1.3,1.2c-0.6,0.4-1.7,1-3.2,1.2c-0.7,0.1-2.3,0.3-3.9-0.6C102.4,345.5,99.9,344.2,100,342.1
		z"/>
</g>
<g id="_x36_">
	<path class="st5" d="M103.5,251.5c2.6-2.6,6.1-3,7-3c0.9-0.1,4.1-0.2,7,2c2.6,2,4.8,5.7,4,9c-0.9,3.7-4.7,3.8-5,7
		c-0.2,2.2,1.5,2.7,4,8c1.6,3.4,2.4,5.1,2,7c-0.7,3.4-4.4,5.2-6,6s-5.4,2.6-9,1c-2.7-1.2-3.9-3.7-5-6c-1.4-2.8-1.6-5.2-2-9
		c-0.5-4.7-0.2-8.6,0-11C101.1,256.6,101.4,253.7,103.5,251.5z"/>
	<path class="st5" d="M174.1,274.8c-0.3-1.3-0.7-1.6-1.9-3.9c-1.1-2.1-1.7-3.4-2-4.9c-0.4-2.1-0.1-4.9,1.4-7.1
		c2.1-3,5.3-3.2,6.8-3.3c1.1-0.1,3.8-0.2,6.2,1.7c2.6,2.1,3.3,5.3,3.9,7.8c0.7,3,0.2,3.4,0.5,10c0.3,5.5,0.6,5.9,0.4,9
		c-0.2,3.5-0.4,6.2-2.2,8.1c-1.6,1.7-3.5,2-6,2.3c-2.6,0.3-4.4,0.6-6.1-0.7c-2.7-2.1-2.9-6.4-2.9-6.9c0-0.8,0.4-2.9,1.4-7.1
		C174.1,277,174.4,276.2,174.1,274.8z"/>
</g>
<g id="_x39_">
	<path class="st6" d="M86.5,235.5c-1.3-4.9-1.8-8.7-2-10c-0.9-6.9-1.4-10.3,0-13c1.8-3.6,5.3-5.2,7-6c2.1-1,5.3-1.9,16-1
		c8.7,0.8,8.7,1.5,16,2c6.2,0.4,9.4,0.6,14,0c6.9-0.9,10.6-2.7,12-1c1.2,1.5-0.2,4.4-1,6c-1.8,3.8-4.6,6.4-10,10
		c-2.7,1.8-7,4.6-14,8s-10.5,5.2-14,6c-6.5,1.5-8.8,0.4-13,3c-4,2.5-5,5.5-7,5C88.8,244.1,88,241.2,86.5,235.5z"/>
</g>
<g id="male">
	<path id="_x32_" class="st4" d="M161,382c1.1-0.9,1.9-1.5,3-2c1.7-0.8,3.3-1.6,5-1c1.4,0.5,2.5,1.6,3,3c0.7,2.1-0.4,4-1,5
		c-1.4,2.3-3.5,3.3-5,4c-2.3,1.1-5,2.3-7,1c-1.3-0.9-2-2.6-2-4c0-1.3,0.6-2.3,1-3C158.7,383.8,159.6,383.1,161,382z"/>
	<g>
		<g>
			<path class="st4" d="M171.5,351.5c0.7,1.2,1,3.2,0,4c-0.7,0.7-2.1,0.6-3,0c-1.2-0.8-0.8-2.4-2-3c-0.7-0.3-1.3-0.1-2,0
				c-2.8,0.6-3.6-0.3-6,0c-3.8,0.4-6.8,3-8,4c-1.1,0.9-2,2-4,3c-1.6,0.8-2.6,1-3,1c-2,0.2-3.4-0.7-4-1c-0.8-0.5-1-0.8-1-1
				c-0.1-0.6,0.4-1.2,1-2c1.3-1.7,1-1.8,2-3c1.6-2,3.7-3.2,5-4c2.1-1.2,4.6-2.7,8-3c1-0.1,1.4,0,10,2
				C168.6,349.5,170.6,350,171.5,351.5z"/>
		</g>
		<g>
			<path class="st4" d="M139.5,356.5c1.3-1.7,1-1.8,2-3c1.6-2,3.7-3.2,5-4c2.1-1.2,4.6-2.7,8-3c1-0.1,1.4,0,10,2c4.1,1,6.1,1.5,7,3
				c0.7,1.2,1,3.2,0,4c-0.7,0.7-2.1,0.6-3,0c-1.2-0.8-0.8-2.4-2-3c-0.7-0.3-1.3-0.1-2,0c-2.8,0.6-3.6-0.3-6,0c-3.8,0.4-6.8,3-8,4
				c-1.1,0.9-2,2-4,3c-1.6,0.8-2.6,1-3,1c-2,0.2-3.4-0.7-4-1c-0.8-0.5-1-0.8-1-1C138.4,357.9,138.9,357.3,139.5,356.5z"/>
		</g>
	</g>
	<path class="st4" d="M142.5,360.5c0.9,0.2,2.3,0.5,4,1c2.5,0.7,3.8,1.1,5,2c1,0.7,2.8,2,3,4c0.2,1.9-1.4,2.5-1,4
		c0.3,1.2,1.4,1.1,3,3c1.5,1.8,1.9,3.6,2,4c0.3,1.5,0.2,2.6,0,4c-0.2,1.7-0.6,3.1-1,4"/>
</g>
<g id="_x34__00000129917934886923334540000002211491812629516943_">
	<path class="st2" d="M70.5,92.5c0.6-0.4,2.7,1.7,4,3c1.2,1.3,2.5,2.7,4,5c1.1,1.7,2.6,3.9,4,7c1,2.2,3.2,7.1,2,8
		c-0.7,0.5-2.3-0.5-3-1c-1-0.6-2.1-1.6-4-5c-1-1.7-1-2.1-3-6c-1.5-2.9-1.5-2.9-2-4C71.8,98,69.6,93.1,70.5,92.5z"/>
	<path class="st2" d="M102.5,114.5"/>
</g>
<g id="_x33_">
	<path class="st2" d="M99.5,320.5c0-2,2.7-2.4,3-5s-2.5-3.6-2-6c0.4-1.9,2.3-1.7,3-4c0.5-1.7-0.4-2.2,0-5c0.2-1.6,0.3-2.4,1-3
		c1.2-1.1,2.7,0,5-1c1.9-0.8,1.7-1.9,3-2c1.9-0.2,3.9,1.8,5,3c1.3,1.3,1.3,1.8,2,2c1.8,0.4,2.6-2.6,5-3c2.7-0.4,3.6,3,7,3
		c2.5,0,2.8-1.9,6-2c1.2,0,2.5,0.3,5,1c3,0.8,3.7,1.4,5,1c1.6-0.5,1.5-1.6,3-2c2.2-0.6,3.1,1.8,6,2c3,0.2,3.5-2.1,7-2
		c2.6,0.1,2.8,1.3,5,1c2.5-0.4,2.8-2.1,5-2c1.8,0.1,2.2,1.1,4,1c1.6-0.1,2.1-1.1,3-1c2.1,0.1,4.6,4.3,4,8c-0.6,3.4-3.6,4.6-3,7
		c0.4,1.6,1.8,1.5,2,3c0.3,2.3-3,3.3-3,6c0,1.7,1.4,2.1,2,4c0.9,2.9-2.5,3.8-3,8c-0.4,3,1,4.1,0,7c-0.3,0.8-0.7,2.1-2,3
		c-1.8,1.3-4.7,1.4-6,0c-0.6-0.6-0.4-1-1-4c-0.7-3.2-1-3.5-1-5c0-1.4,0.4-1.7,1-4c0.3-1.2,1-4,1-7c0-3.4-1.6-4-1-6
		c0.6-1.9,1.9-1.8,3-4c1-2.2,1.2-5.2,0-6s-2.6,1.6-6,2c-4.1,0.4-5.5-2.8-9-2c-2.6,0.6-2.4,2.5-5,3c-2.9,0.6-3.9-1.6-8-2
		c-3.5-0.3-3.6,1.2-7,1c-4.6-0.3-5.1-3.1-9-3c-3.8,0.1-4.7,2.7-8,2c-2.7-0.5-3.5-2.6-5-2c-1.5,0.5-2.2,3.1-2,5c0.2,2.2,1.4,2.8,1,4
		c-0.6,1.8-3.6,1.4-4,3c-0.5,1.9,3.5,3.7,3,6c-0.2,1.1-1.4,1.7-2,2C107.8,327.9,99.6,323.8,99.5,320.5z"/>
</g>
<g id="_x32__00000105419802732043864720000012838743809909935272_">
	<path class="st4" d="M63.6,95.8c-0.4-1.4-1.2-4.1,0-6.1c0.8-1.3,2.5-2.1,3.8-1.5c1.5,0.7,1.7,3.1,2.5,6.1c0.8,2.8,2.2,5.4,5,10.6
		c3.4,6.2,5.1,9.4,7.5,10.6c2.1,1.1,4,1,5,3c0.7,1.4,0.8,3.5,0,4.6c-1,1.3-2.6,0.1-3.8,1.5c-0.8,1.1-0.4,2.3-1.3,3
		c-1,0.8-2.4,0-2.5,0c-1.3-0.7-1.8-2.3-2.5-4.5c-0.9-2.8-2-6.2-2.5-7.6c-1.2-3.2-2.5-5.4-3.8-7.6c-1.4-2.3-3.3-5-5-7.6
		C64.8,98.5,64.2,97.5,63.6,95.8z"/>
</g>
<g id="_x32__00000181772132851407801350000012238397480070641803_">
	<path class="st2" d="M115.5,320.5c0.1-1.8,2.5-1.7,4-4c1.6-2.4,0-4.2,2-7c0.6-0.9,1.4-1.5,2-2c1.6-1.3,2.7-2.2,4-2
		c1.4,0.2,2.7,1.6,3,3s-0.5,2.2-2,5c-1.4,2.7-2.1,4.6-3,7c-1.7,4.7-1.3,5.6-1,6c0.9,1.2,2.9,1.2,4,1c2.2-0.4,3.5-2.3,4-3
		c1.4-2.1,0.8-3.2,2-8c1.1-4.1,2-5.3,3-6c0.5-0.4,1.8-1.3,3-1c2.2,0.6,3.1,5,3,8c-0.1,3.2-1.1,3.7-2,9c-0.6,3.5-0.8,5.2,0,7
		c1.1,2.4,4,4.6,6,4c2.4-0.8,3-5.4,4-13c0.5-4.1,0.5-6.1,2-9c0.9-1.7,2.2-4.3,5-5c0.1,0,3.1-0.7,5,1c1.8,1.7,1.4,4.7,1,8
		c-0.2,1.4-0.4,1.9-2,8c-1.3,4.7-1.5,5.7-1,7c0.6,1.5,2,3.3,4,4c1.4,0.5,2.3,0.1,4,1c0.7,0.4,2,1,2,2c0,0.9-1.1,1.7-2,2
		c-2.1,0.7-4.3-0.8-6-2c-1.4-1-2.9-2-4-4c-1.5-2.7-1.2-5.5-1-7c0.4-3.5,1.8-3.9,3-9c0.6-2.5,1.2-5.1,0-6c-0.8-0.6-2.2-0.2-3,0
		c-0.4,0.1-2,0.6-3,2c-0.9,1.2-0.9,2.5-1,4c-0.2,3-0.7,6-1,9c-0.4,4-0.5,4.8-1,6c-0.5,1.1-1.2,2.8-3,4c-0.3,0.2-3.3,2.1-6,1
		c-1.8-0.7-2.5-2.5-4-6c-1.4-3.2-2.1-4.9-2-7c0.1-3.4,1.8-3.9,2-8c0.1-2.2-0.3-4.9-1-5c-0.4-0.1-0.7,0.6-1,1c-0.9,1.5-0.8,2.8-1,4
		c-0.2,1.6-0.6,1.2-2,5s-1.1,4.4-2,5c-1,0.7-2.6,0.5-6,0c-2.3-0.3-3.4-0.5-4-1c-2.2-2-1.1-6.5-1-7c0.2-0.8,0.5-1.7,0.6-1.9
		c0.5-1.3,0.9-2.1,1.4-3.1c2.4-4.6,2.2-5.5,2-6c-0.2-0.4-0.6-1-1-1c-0.7,0-1,1.4-2,4c-1.5,4-2.4,5.2-3,6c-0.6,0.7-2,2.4-3,2
		C115.9,322.3,115.4,321.3,115.5,320.5z"/>
</g>
<g id="_x33__00000003068411182560300930000003787379971991352218_">
	<path class="st2" d="M191.5,384.5c-0.3-13.2,7-23.7,8-25c4.1-5.6,9.4-13.1,15-12c6.5,1.2,8.8,13.1,9,14c0.9,4.5-0.4,11.1-3,24
		c-1.4,7.2-2.2,10-1,14c1.4,4.6,4.4,7.5,7,10c2,2,7.1,6.7,15,9c7.3,2.1,13.3,1.2,20,5c1.9,1.1,3.1,2.1,3,3c-0.2,1.2-2.8,1.8-4,2
		c-3.2,0.7-5.8,0.2-7,0c-11.6-2-10.3-1.5-12-2c-1.2-0.4-2.7-0.9-11-5c-12-6-13.3-7.1-14-9c-0.8-2.2,0.1-2.8-1-9
		c-0.8-4.4-1.5-5.5-2-6c-1.1-1.2-2.4-1.9-8-3c-8.1-1.6-10.2-1.1-12-3C192.4,390.4,191.6,388.7,191.5,384.5z"/>
</g>
</svg>
